<svg width="23" height="19" viewBox="0 0 23 19" fill="none" xmlns="http://www.w3.org/2000/svg">
<path d="M1.04086 16.24C0.43223 16.655 0.275242 17.4848 0.690216 18.0934C1.10519 18.702 1.93498 18.859 2.54361 18.4441L1.79224 17.342L1.04086 16.24ZM22.6652 4.252C22.8021 3.52821 22.3263 2.83045 21.6025 2.69351L9.8076 0.462036C9.0838 0.325101 8.38604 0.800847 8.2491 1.52464C8.11217 2.24844 8.58791 2.9462 9.31171 3.08314L19.7961 5.06667L17.8126 15.5511C17.6756 16.2749 18.1514 16.9726 18.8752 17.1096C19.599 17.2465 20.2967 16.7708 20.4337 16.047L22.6652 4.252ZM1.79224 17.342L2.54361 18.4441L22.106 5.10608L21.3546 4.00406L20.6032 2.90204L1.04086 16.24L1.79224 17.342Z" fill="white"/>
</svg>
