<svg width="65" height="65" viewBox="0 0 65 65" fill="none" xmlns="http://www.w3.org/2000/svg">
<path d="M32.4999 6.5C29.0521 6.5 25.7455 7.86964 23.3075 10.3076C20.8696 12.7456 19.4999 16.0522 19.4999 19.5C19.4999 22.9478 20.8696 26.2544 23.3075 28.6924C25.7455 31.1304 29.0521 32.5 32.4999 32.5C35.9477 32.5 39.2543 31.1304 41.6923 28.6924C44.1303 26.2544 45.4999 22.9478 45.4999 19.5C45.4999 16.0522 44.1303 12.7456 41.6923 10.3076C39.2543 7.86964 35.9477 6.5 32.4999 6.5ZM48.3112 54.5903C44.8304 56.81 40.3357 58.0483 35.4347 58.396C35.19 57.7507 34.8112 57.1647 34.3232 56.6767L27.8232 50.18C28.7631 48.2111 29.2506 46.0568 29.2499 43.875C29.2502 40.9827 28.3929 38.1551 26.7864 35.75H48.7499C50.4738 35.75 52.1271 36.4348 53.3461 37.6538C54.5651 38.8728 55.2499 40.5261 55.2499 42.25C55.2499 47.7458 52.5427 51.8895 48.3112 54.5903ZM14.6249 55.25C17.1794 55.25 19.5389 54.405 21.4369 52.9847L29.7244 61.2723C29.8753 61.4233 30.0544 61.5432 30.2517 61.6251C30.4489 61.7069 30.6603 61.7491 30.8738 61.7493C31.0873 61.7494 31.2987 61.7075 31.4961 61.626C31.6934 61.5444 31.8727 61.4247 32.0238 61.2739C32.1749 61.123 32.2948 60.9438 32.3766 60.7466C32.4585 60.5494 32.5007 60.338 32.5008 60.1245C32.501 59.911 32.4591 59.6996 32.3775 59.5022C32.2959 59.3049 32.1763 59.1256 32.0254 58.9745L23.7379 50.687C25.272 48.6355 26.0686 46.1263 25.999 43.5657C25.9293 41.005 24.9974 38.5428 23.3541 36.5778C21.7108 34.6127 19.4523 33.2599 16.9444 32.7383C14.4364 32.2167 11.8258 32.5569 9.53533 33.7038C7.24481 34.8507 5.40846 36.7371 4.32362 39.0577C3.23878 41.3782 2.96896 43.997 3.55785 46.49C4.14674 48.983 5.55986 51.2043 7.5684 52.7941C9.57694 54.3839 12.0633 55.2493 14.6249 55.25ZM14.6249 52C12.47 52 10.4034 51.144 8.87968 49.6202C7.35594 48.0965 6.49992 46.0299 6.49992 43.875C6.49992 41.7201 7.35594 39.6535 8.87968 38.1298C10.4034 36.606 12.47 35.75 14.6249 35.75C16.7798 35.75 18.8464 36.606 20.3702 38.1298C21.8939 39.6535 22.7499 41.7201 22.7499 43.875C22.7499 46.0299 21.8939 48.0965 20.3702 49.6202C18.8464 51.144 16.7798 52 14.6249 52Z" fill="url(#paint0_linear_31_21)"/>
<defs>
<linearGradient id="paint0_linear_31_21" x1="29.2515" y1="6.5" x2="29.2515" y2="61.7493" gradientUnits="userSpaceOnUse">
<stop stop-color="#0383C2"/>
<stop offset="1" stop-color="#6BCE64"/>
</linearGradient>
</defs>
</svg>
