<svg width="61" height="60" viewBox="0 0 61 60" fill="none" xmlns="http://www.w3.org/2000/svg">
<path d="M14.75 12C12.562 12 10.4635 12.8692 8.91637 14.4164C7.36919 15.9635 6.5 18.062 6.5 20.25V24H54.5V20.25C54.5 18.062 53.6308 15.9635 52.0836 14.4164C50.5365 12.8692 48.438 12 46.25 12H14.75ZM54.5 27H6.5V39.75C6.5 41.938 7.36919 44.0365 8.91637 45.5836C10.4635 47.1308 12.562 48 14.75 48H46.25C48.438 48 50.5365 47.1308 52.0836 45.5836C53.6308 44.0365 54.5 41.938 54.5 39.75V27ZM41 39H47C47.3978 39 47.7794 39.158 48.0607 39.4393C48.342 39.7206 48.5 40.1022 48.5 40.5C48.5 40.8978 48.342 41.2794 48.0607 41.5607C47.7794 41.842 47.3978 42 47 42H41C40.6022 42 40.2206 41.842 39.9393 41.5607C39.658 41.2794 39.5 40.8978 39.5 40.5C39.5 40.1022 39.658 39.7206 39.9393 39.4393C40.2206 39.158 40.6022 39 41 39Z" fill="url(#paint0_linear_235_264)"/>
<defs>
<linearGradient id="paint0_linear_235_264" x1="30.5" y1="12" x2="30.5" y2="48" gradientUnits="userSpaceOnUse">
<stop stop-color="#0383C2"/>
<stop offset="1" stop-color="#6BCE64"/>
</linearGradient>
</defs>
</svg>
