<svg width="34" height="33" viewBox="0 0 34 33" fill="none" xmlns="http://www.w3.org/2000/svg">
<path d="M15.9641 23.8604C15.9615 22.169 16.4452 20.5125 17.3576 19.0883H8.12704C7.31436 19.089 6.53518 19.4122 5.96053 19.9868C5.38589 20.5615 5.06273 21.3407 5.06201 22.1533V23.4077C5.06201 24.1876 5.3047 24.9484 5.75737 25.5838C7.8598 28.5343 11.3011 29.9959 15.9641 29.9959C16.7822 29.9959 17.5625 29.9509 18.3052 29.8609C16.7975 28.2266 15.9616 26.0839 15.9641 23.8604ZM15.9641 2.73242C17.7722 2.73242 19.5061 3.45066 20.7846 4.72914C22.0631 6.00762 22.7813 7.74161 22.7813 9.54965C22.7813 11.3577 22.0631 13.0917 20.7846 14.3702C19.5061 15.6486 17.7722 16.3669 15.9641 16.3669C14.1561 16.3669 12.4221 15.6486 11.1436 14.3702C9.86513 13.0917 9.14689 11.3577 9.14689 9.54965C9.14689 7.74161 9.86513 6.00762 11.1436 4.72914C12.4221 3.45066 14.1561 2.73242 15.9641 2.73242ZM32.3255 23.8604C32.3255 25.8492 31.5354 27.7566 30.1291 29.1629C28.7227 30.5693 26.8154 31.3593 24.8265 31.3593C22.8377 31.3593 20.9303 30.5693 19.524 29.1629C18.1176 27.7566 17.3276 25.8492 17.3276 23.8604C17.3276 21.8715 18.1176 19.9641 19.524 18.5578C20.9303 17.1515 22.8377 16.3614 24.8265 16.3614C26.8154 16.3614 28.7227 17.1515 30.1291 18.5578C31.5354 19.9641 32.3255 21.8715 32.3255 23.8604ZM25.5832 19.661C25.5364 19.4964 25.4372 19.3515 25.3007 19.2484C25.1641 19.1452 24.9976 19.0894 24.8265 19.0894C24.6554 19.0894 24.4889 19.1452 24.3524 19.2484C24.2158 19.3515 24.1166 19.4964 24.0698 19.661L23.3104 22.0988H20.8521C20.0804 22.0988 19.7613 23.1268 20.3844 23.5986L22.3723 25.1052L21.6129 27.5417C21.3743 28.3066 22.2141 28.9433 22.8386 28.4702L24.8265 26.9649L26.8144 28.4702C27.4389 28.9433 28.2788 28.3066 28.0401 27.543L27.2807 25.1052L29.2686 23.6C29.8931 23.1268 29.5727 22.0988 28.801 22.0988H26.3427L25.5832 19.661Z" fill="url(#paint0_linear_40_210)"/>
<defs>
<linearGradient id="paint0_linear_40_210" x1="18.6937" y1="2.73242" x2="18.6937" y2="31.3593" gradientUnits="userSpaceOnUse">
<stop stop-color="#0383C2"/>
<stop offset="1" stop-color="#6BCE64"/>
</linearGradient>
</defs>
</svg>
