<svg width="31" height="30" viewBox="0 0 31 30" fill="none" xmlns="http://www.w3.org/2000/svg">
<path d="M15.4996 0.599976C7.54661 0.599976 1.09961 7.04698 1.09961 15C1.09961 22.953 7.54661 29.4 15.4996 29.4C23.4526 29.4 29.8996 22.953 29.8996 15C29.8996 7.04698 23.4526 0.599976 15.4996 0.599976ZM11.9746 20.9685H9.05861V11.5845H11.9746V20.9685ZM10.4986 10.4325C9.57761 10.4325 8.98211 9.77997 8.98211 8.97297C8.98211 8.14948 9.59561 7.51648 10.5361 7.51648C11.4766 7.51648 12.0526 8.14948 12.0706 8.97297C12.0706 9.77997 11.4766 10.4325 10.4986 10.4325ZM22.6246 20.9685H19.7086V15.768C19.7086 14.5575 19.2856 13.7355 18.2311 13.7355C17.4256 13.7355 16.9471 14.292 16.7356 14.8275C16.6576 15.018 16.6381 15.288 16.6381 15.5565V20.967H13.7206V14.577C13.7206 13.4055 13.6831 12.426 13.6441 11.583H16.1776L16.3111 12.8865H16.3696C16.7536 12.2745 17.6941 11.3715 19.2676 11.3715C21.1861 11.3715 22.6246 12.657 22.6246 15.42V20.9685Z" fill="url(#paint0_linear_361_59)"/>
<defs>
<linearGradient id="paint0_linear_361_59" x1="15.4996" y1="0.599976" x2="15.4996" y2="29.4" gradientUnits="userSpaceOnUse">
<stop stop-color="#0383C2"/>
<stop offset="1" stop-color="#6BCE64"/>
</linearGradient>
</defs>
</svg>
