<svg width="20" height="20" viewBox="0 0 20 20" fill="none" xmlns="http://www.w3.org/2000/svg">
<path fill-rule="evenodd" clip-rule="evenodd" d="M0 9.24515C0 4.13615 4.142 -0.00384521 9.25 -0.00384521C14.358 -0.00384521 18.5 4.13616 18.5 9.24415C18.5042 11.4396 17.7232 13.5642 16.298 15.2342L19.779 18.7142C19.8507 18.7833 19.9078 18.866 19.9472 18.9575C19.9865 19.049 20.0073 19.1474 20.0082 19.247C20.0091 19.3466 19.9902 19.4453 19.9525 19.5375C19.9148 19.6297 19.8592 19.7135 19.7888 19.7839C19.7184 19.8544 19.6347 19.9101 19.5425 19.9479C19.4504 19.9856 19.3516 20.0047 19.2521 20.0038C19.1525 20.003 19.054 19.9824 18.9625 19.9431C18.871 19.9039 18.7882 19.8468 18.719 19.7752L15.237 16.2942C13.5672 17.7172 11.4439 18.4968 9.25 18.4922C4.142 18.4922 0 14.3532 0 9.24515ZM9.25 1.49615C8.22204 1.47964 7.20108 1.66784 6.24657 2.0498C5.29207 2.43176 4.42312 2.99984 3.69033 3.72095C2.95755 4.44205 2.37558 5.30177 1.97834 6.25001C1.58109 7.19825 1.37651 8.21607 1.37651 9.24415C1.37651 10.2722 1.58109 11.2901 1.97834 12.2383C2.37558 13.1865 2.95755 14.0463 3.69033 14.7674C4.42312 15.4885 5.29207 16.0565 6.24657 16.4385C7.20108 16.8205 8.22204 17.0087 9.25 16.9922C10.278 17.0087 11.2989 16.8205 12.2534 16.4385C13.2079 16.0565 14.0769 15.4885 14.8097 14.7674C15.5425 14.0463 16.1244 13.1865 16.5217 12.2383C16.9189 11.2901 17.1235 10.2722 17.1235 9.24415C17.1235 8.21607 16.9189 7.19825 16.5217 6.25001C16.1244 5.30177 15.5425 4.44205 14.8097 3.72095C14.0769 2.99984 13.2079 2.43176 12.2534 2.0498C11.2989 1.66784 10.278 1.47964 9.25 1.49615Z" fill="#8C8C8C"/>
<path d="M9.25 3.51794C9.05109 3.51794 8.86032 3.59383 8.71967 3.7289C8.57902 3.86396 8.5 4.04716 8.5 4.23818C8.5 4.42919 8.57902 4.61239 8.71967 4.74746C8.86032 4.88253 9.05109 4.95841 9.25 4.95841C10.5098 4.95841 11.718 5.43899 12.6088 6.29443C13.4996 7.14987 14 8.3101 14 9.51987C14 9.71089 14.079 9.89408 14.2197 10.0292C14.3603 10.1642 14.5511 10.2401 14.75 10.2401C14.9489 10.2401 15.1397 10.1642 15.2803 10.0292C15.421 9.89408 15.5 9.71089 15.5 9.51987C15.5 8.73161 15.3383 7.95106 15.0242 7.22281C14.71 6.49456 14.2495 5.83287 13.6691 5.27553C13.0886 4.71819 12.3995 4.27611 11.6411 3.97454C10.8827 3.67297 10.0698 3.51782 9.249 3.51794" fill="#8C8C8C"/>
</svg>
