<svg width="353" height="92" viewBox="0 0 353 92" fill="none" xmlns="http://www.w3.org/2000/svg">
<circle cx="4" cy="60" r="4" fill="#6BCE64"/>
<circle cx="4" cy="88" r="4" fill="#6BCE64"/>
<circle cx="33" cy="88" r="4" fill="#6BCE64"/>
<circle cx="62" cy="88" r="4" fill="#6BCE64"/>
<circle cx="90" cy="88" r="4" fill="#6BCE64"/>
<circle cx="117" cy="88" r="4" fill="#6BCE64"/>
<circle cx="146" cy="88" r="4" fill="#6BCE64"/>
<circle cx="175" cy="88" r="4" fill="#6BCE64"/>
<circle cx="204" cy="88" r="4" fill="#6BCE64"/>
<circle cx="233" cy="88" r="4" fill="#6BCE64"/>
<circle cx="262" cy="88" r="4" fill="#6BCE64"/>
<circle cx="291" cy="88" r="4" fill="#6BCE64"/>
<circle cx="320" cy="88" r="4" fill="#6BCE64"/>
<circle cx="349" cy="88" r="4" fill="#6BCE64"/>
<circle cx="33" cy="60" r="4" fill="#6BCE64"/>
<circle cx="62" cy="60" r="4" fill="#6BCE64"/>
<circle cx="204" cy="60" r="4" fill="#6BCE64"/>
<circle cx="233" cy="60" r="4" fill="#6BCE64"/>
<circle cx="262" cy="60" r="4" fill="#6BCE64"/>
<circle cx="291" cy="60" r="4" fill="#6BCE64"/>
<circle cx="320" cy="60" r="4" fill="#6BCE64"/>
<circle cx="349" cy="60" r="4" fill="#6BCE64"/>
<circle cx="175" cy="60" r="4" fill="#6BCE64"/>
<circle cx="146" cy="60" r="4" fill="#6BCE64"/>
<circle cx="117" cy="60" r="4" fill="#6BCE64"/>
<circle cx="90" cy="60" r="4" fill="#6BCE64"/>
<circle cx="4" cy="4" r="4" fill="#6BCE64"/>
<circle cx="4" cy="32" r="4" fill="#6BCE64"/>
<circle cx="33" cy="32" r="4" fill="#6BCE64"/>
<circle cx="62" cy="32" r="4" fill="#6BCE64"/>
<circle cx="90" cy="32" r="4" fill="#6BCE64"/>
<circle cx="117" cy="32" r="4" fill="#6BCE64"/>
<circle cx="146" cy="32" r="4" fill="#6BCE64"/>
<circle cx="175" cy="32" r="4" fill="#6BCE64"/>
<circle cx="204" cy="32" r="4" fill="#6BCE64"/>
<circle cx="233" cy="32" r="4" fill="#6BCE64"/>
<circle cx="262" cy="32" r="4" fill="#6BCE64"/>
<circle cx="291" cy="32" r="4" fill="#6BCE64"/>
<circle cx="320" cy="32" r="4" fill="#6BCE64"/>
<circle cx="349" cy="32" r="4" fill="#6BCE64"/>
<circle cx="33" cy="4" r="4" fill="#6BCE64"/>
<circle cx="62" cy="4" r="4" fill="#6BCE64"/>
<circle cx="204" cy="4" r="4" fill="#6BCE64"/>
<circle cx="233" cy="4" r="4" fill="#6BCE64"/>
<circle cx="262" cy="4" r="4" fill="#6BCE64"/>
<circle cx="291" cy="4" r="4" fill="#6BCE64"/>
<circle cx="320" cy="4" r="4" fill="#6BCE64"/>
<circle cx="349" cy="4" r="4" fill="#6BCE64"/>
<circle cx="175" cy="4" r="4" fill="#6BCE64"/>
<circle cx="146" cy="4" r="4" fill="#6BCE64"/>
<circle cx="117" cy="4" r="4" fill="#6BCE64"/>
<circle cx="90" cy="4" r="4" fill="#6BCE64"/>
</svg>
