<svg width="65" height="65" viewBox="0 0 65 65" fill="none" xmlns="http://www.w3.org/2000/svg">
<path d="M32.4993 27.0827C38.4824 27.0827 43.3327 22.2324 43.3327 16.2493C43.3327 10.2663 38.4824 5.41602 32.4993 5.41602C26.5163 5.41602 21.666 10.2663 21.666 16.2493C21.666 22.2324 26.5163 27.0827 32.4993 27.0827Z" fill="url(#paint0_linear_235_248)" stroke="url(#paint1_linear_235_248)" stroke-width="2" stroke-linecap="round" stroke-linejoin="round"/>
<path d="M56.875 59.582C56.875 46.1203 45.9618 35.207 32.5 35.207C19.0382 35.207 8.125 46.1203 8.125 59.582" stroke="url(#paint2_linear_235_248)" stroke-width="2" stroke-linecap="round" stroke-linejoin="round"/>
<path d="M40.625 48.75L29.7917 59.5833L24.375 54.1667" stroke="url(#paint3_linear_235_248)" stroke-width="2" stroke-linecap="round" stroke-linejoin="round"/>
<defs>
<linearGradient id="paint0_linear_235_248" x1="32.4993" y1="5.41602" x2="32.4993" y2="27.0827" gradientUnits="userSpaceOnUse">
<stop stop-color="#0383C2"/>
<stop offset="1" stop-color="#6BCE64"/>
</linearGradient>
<linearGradient id="paint1_linear_235_248" x1="32.4993" y1="5.41602" x2="32.4993" y2="27.0827" gradientUnits="userSpaceOnUse">
<stop stop-color="#0383C2"/>
<stop offset="1" stop-color="#6BCE64"/>
</linearGradient>
<linearGradient id="paint2_linear_235_248" x1="32.5" y1="35.207" x2="32.5" y2="59.582" gradientUnits="userSpaceOnUse">
<stop stop-color="#0383C2"/>
<stop offset="1" stop-color="#6BCE64"/>
</linearGradient>
<linearGradient id="paint3_linear_235_248" x1="32.5" y1="48.75" x2="32.5" y2="59.5833" gradientUnits="userSpaceOnUse">
<stop stop-color="#0383C2"/>
<stop offset="1" stop-color="#6BCE64"/>
</linearGradient>
</defs>
</svg>
