<svg width="217" height="37" viewBox="0 0 217 37" fill="none" xmlns="http://www.w3.org/2000/svg">
<path d="M20.1734 34.9792C20.2932 34.919 20.8001 34.8076 21.0135 34.7304C20.8358 35.012 19.7506 35.1934 20.1734 34.9792ZM38.9274 13.6098C38.7487 13.7068 38.5706 13.8037 38.3934 13.9007C38.9383 13.8057 39.6674 13.5935 40.1828 13.5248C40.2667 13.5139 40.0891 13.7132 40.2845 13.6745C40.4803 13.6358 40.3949 13.4401 40.6735 13.3522C40.9885 13.253 42.4783 13.0607 42.9863 12.9429C44.8727 12.5014 46.7569 11.9662 48.6763 11.6481C46.7427 12.2194 48.7616 11.9493 49.2887 11.7701C49.4049 11.7304 49.3127 11.3474 51.2944 11.0377C52.5606 10.8419 51.516 11.623 53.5449 10.9272C51.861 10.8696 53.45 10.5739 54.7023 10.3124C54.9193 10.2663 56.6817 9.97947 57.456 9.81371C57.7228 9.75618 58.0845 9.47864 58.4353 9.40639C58.6765 9.35687 58.8804 9.43188 59.24 9.35817C60.9098 9.0173 62.5603 8.70545 64.248 8.44256C63.3602 9.13492 65.0567 8.52557 65.142 8.53669C65.567 8.60596 63.7631 8.96785 64.4946 8.9283C65.4948 8.73357 66.488 8.54311 67.4907 8.354C66.6567 8.43205 68.5029 7.73095 68.8842 7.84175C68.6568 7.40468 73.519 7.48137 74.2162 7.21988C74.362 7.16421 73.3412 7.09117 75.6381 6.8371C75.8872 6.8101 75.8158 6.963 75.9427 6.93006C76.0186 6.91032 76.4184 6.39772 76.9561 6.56426C77.1524 6.6258 76.0285 7.09048 78.5762 6.58629C77.4853 6.28913 82.1015 5.81507 82.9607 5.81428C82.7837 5.77781 82.6068 5.74141 82.43 5.70509C83.2859 5.74937 83.4157 5.57613 83.605 5.558C84.3704 5.48473 85.4289 5.49608 86.1352 5.38667C86.9611 5.25919 86.9239 4.97965 87.9035 4.96114C87.6664 4.92956 87.4294 4.89812 87.1926 4.86683C87.8596 4.79343 88.5314 4.72075 89.1975 4.65016C87.7045 5.21933 89.5318 4.62459 89.6551 4.60136C89.8506 4.56274 89.5866 4.75033 89.9139 4.68946C89.9477 4.68206 89.88 4.5455 90.387 4.46514C91.4465 4.29841 91.2993 4.49963 91.7453 4.44224C91.7862 4.43635 91.6267 4.32505 92.3943 4.20022C94.8337 3.80703 92.3946 4.29946 92.3023 4.32953C92.1823 4.36856 93.0854 4.80112 90.9853 4.86832C91.6897 4.84196 91.7895 5.07146 91.8687 5.06759C91.9383 5.06356 93.1449 4.88242 93.2102 4.86661C93.7942 4.71442 93.2522 4.61468 93.3644 4.57164C93.4561 4.53629 94.9385 4.57531 95.2248 4.0469C95.9751 4.4175 94.8695 4.50219 93.7088 4.71136C93.5492 4.82399 94.8438 4.76174 94.9116 4.75399C96.5682 4.56064 95.6081 4.29627 95.9432 4.01704C96.1194 3.87096 96.8246 4.04732 96.1623 3.78555C97.6656 3.57941 96.7733 3.87612 96.8738 3.89352C97.0254 3.91883 97.5427 3.76437 97.6097 3.76986C97.7085 3.77793 97.385 3.93058 97.771 3.92882C97.835 3.9277 98.4282 3.66125 97.6246 3.65422C98.6874 3.56517 98.5823 3.40624 98.979 3.70804C99.4843 3.15491 99.5514 3.63605 99.6844 3.89643C99.7256 3.97697 99.7731 4.03643 99.8419 4.03773C100.617 4.05191 100.341 3.56897 100.379 3.53992C100.641 3.35104 102.779 3.30796 103.296 3.18438C103.125 3.56944 101.617 3.35675 101.294 3.46225C100.221 3.81085 102.86 3.48628 102.109 4.02669C102.431 3.86678 102.752 3.70721 103.074 3.54797C103.715 3.78262 102.859 3.9957 104.496 3.7275C104.741 3.44644 103.335 3.88116 103.603 3.6526C103.761 3.51793 104.715 3.39998 104.728 3.33631C104.74 3.25959 103.884 3.43186 104.009 3.3038C104.283 3.02476 107.458 2.96454 105.071 3.32608C105.74 3.25819 106.13 3.7196 106.696 3.51236C107.063 3.3787 104.887 2.88842 108.068 2.72626C108.157 2.95296 106.808 2.90911 106.774 2.93048C106.728 2.96075 107.018 3.46455 107.062 3.48672C107.217 3.55633 110.426 2.99014 111.131 3.20068C110.836 2.91758 113.569 2.94707 113.858 2.83314C113.935 2.8014 113.626 2.63797 113.709 2.61167C114.225 2.45269 115.67 2.67768 116.329 2.63853C117.067 2.59451 116.962 2.44057 117.003 2.43782C117.328 2.42352 117.077 2.5513 117.275 2.5368C117.575 2.51373 119.634 2.3941 119.736 2.36529C119.766 2.35616 119.417 2.19468 119.864 2.12964C119.941 2.11868 119.908 2.33884 121.23 2.15849C122.821 1.94274 120.102 1.95861 120.751 1.68745C121.801 1.94622 121.746 1.62659 122.027 1.63412C122.125 1.63724 122.862 1.86615 123.64 1.80207C123.084 1.88019 122.526 1.95919 121.968 2.03909C122.523 2.05208 123.587 1.9274 124.044 1.95503C124.267 1.96835 124.098 2.20436 124.579 2.17003C124.681 2.16172 125.055 1.58831 123.807 1.90945C123.694 1.71947 124.303 1.81126 124.578 1.73964C124.62 1.72856 124.767 1.3913 125.134 1.5744C125.222 1.62018 124.348 2.62617 126.703 1.80131C126.779 1.77479 126.504 1.66986 126.578 1.64092C126.629 1.62119 127.243 1.63634 127.309 1.61583C127.377 1.59389 127.075 1.47915 127.156 1.44901C127.571 1.29382 128.151 1.78265 127.28 1.78951C127.574 1.83793 127.868 1.88659 128.161 1.93549C127.829 1.56124 128.612 1.8016 129.014 1.76926C131.583 1.56426 129.848 1.39605 130.284 1.24263C130.988 0.997174 130.476 1.69135 131.524 1.44073C131.621 1.4179 130.33 1.19152 132.834 1.2385C132.463 1.266 132.098 1.29363 131.73 1.32171C131.958 1.68949 133.059 1.23556 133.146 1.22671C134.125 1.13244 133.465 1.29641 134.915 1.04137C135.045 1.01856 135.332 1.10031 135.609 1.04275C136.756 0.805109 134.078 0.987564 134.002 0.838895C133.961 0.763927 136.842 0.667459 136.943 0.70104C137.368 0.842838 135.642 0.820299 135.978 1.00378C136.095 1.06568 140.2 0.775757 141.021 0.830899C141.977 0.890554 142.415 1.39175 142.405 0.81546C142.688 1.37329 142.914 0.981014 143.036 0.981569C144.51 0.994558 144.505 1.00077 145.768 0.917134C146.046 0.899044 146.284 1.06552 146.381 1.03442C146.438 1.0157 146.327 0.834352 146.605 0.771724C146.997 0.68456 149.338 0.830074 149.517 0.929829C149.694 1.02827 148.525 0.990681 148.737 1.15407C149.587 1.15595 150.379 1.10231 151.235 1.10841C151.588 1.11156 151.408 1.23077 151.561 1.23112C151.627 1.23139 152.834 1.11449 152.786 1.07219C152.664 0.970274 148.914 1.0914 149.898 0.872931C150.089 0.830314 150.761 1.0897 150.651 0.763936C154.015 0.789883 157.358 0.844848 160.724 0.932429C158.794 1.16928 156.619 0.954039 154.603 0.992253C154.323 0.996939 153.395 0.973663 153.509 1.13819C155.224 1.16437 157.355 1.06888 159.008 1.17842C159.061 1.18203 158.867 1.33055 159.064 1.35425C159.43 1.39811 160.638 1.1617 160.839 1.22491C160.874 1.2394 160.188 1.43291 160.396 1.5582C160.93 1.87973 161.068 1.17251 161.524 1.18334C161.885 1.19069 164.273 1.55338 164.864 1.34616C164.902 1.33254 164.93 1.32001 164.947 1.30843C164.98 1.28673 164.978 1.2684 164.948 1.2526C164.742 1.13855 163.136 1.16026 163.282 1.0068C163.844 0.947003 164.402 0.934184 164.952 0.943377C166.027 0.961262 167.079 1.06049 168.081 1.06483C168.108 1.06477 167.878 0.912473 168.218 0.898574C168.822 0.874861 168.972 1.08795 169.261 1.1279C169.565 1.17002 170.684 1.1678 170.826 1.24833C170.844 1.25883 170.616 1.46068 170.582 1.46566C170.098 1.53888 169.93 1.26528 169.886 1.26071C169.718 1.24642 169.559 1.34602 169.409 1.33642C169.164 1.32055 169.03 1.22195 168.702 1.20651C168.476 1.19555 168.691 1.38362 168.473 1.37067C168.388 1.36487 167.545 0.9293 167.456 1.35571C167.424 1.4765 174.451 1.8344 175.158 1.77039C174.558 1.69616 173.954 1.62328 173.354 1.55205C174.567 1.71655 176.059 1.43417 176.145 1.94405C180.677 2.17013 185.242 2.48428 189.796 2.92406C190.613 3.04001 190.13 3.32107 191.479 3.35183C191.15 3.21666 190.802 3.08055 190.47 2.94668C191.152 3.07563 194.182 3.52086 194.682 3.51305C194.747 3.51148 194.865 3.22738 195.631 3.28787C196.312 3.3425 196.387 3.57363 196.748 3.65845C197.049 3.72895 197.39 3.71184 197.482 3.73526C197.55 3.75333 197.561 3.89043 197.723 3.93387C198.23 4.06936 197.86 3.6414 198.325 4.13812C198.197 4.13889 198.068 4.13959 197.937 4.14022C198.564 4.28088 199.397 4.58688 198.457 4.56603C198.297 4.56299 198.449 4.45062 198.331 4.43609C193.668 3.90189 197.364 4.58865 199.014 4.59823C199.129 4.67289 199.446 4.74383 199.806 4.80522C199.836 4.8069 199.924 4.82409 199.953 4.82657C200.793 4.99059 201.963 5.14279 202.011 5.1789C202.111 5.25236 201.68 5.33346 202.187 5.55784C202.288 5.5913 205.525 6.11331 204.316 6.13751C204.064 6.13759 202.545 5.7946 202.174 5.74006C202.964 6.28852 205.118 6.11934 205.352 6.19109C206.28 6.45362 203.484 6.1584 205.581 6.65216C207.197 7.05223 205.734 6.44187 206.384 6.46993C206.751 6.4769 208.564 7.2551 208.621 6.87573C209.293 7.02207 208.849 7.11186 208.927 7.14895C209.003 7.1789 210.355 7.46965 210.779 7.71611C210.829 7.7446 210.593 7.87642 210.643 7.91157C210.73 7.96162 212.075 8.43751 212.142 8.45903C212.182 8.46251 211.926 8.1629 212.075 8.17848C212.246 8.18168 213.563 8.84401 213.661 8.8535C213.801 8.81924 212.125 8.09043 212.481 8.04364C213.161 8.37782 214.347 8.87423 214.969 9.09775L214.828 9.01495C214.859 9.01867 214.887 9.02027 214.913 9.0207C214.896 9.02141 214.87 9.01502 214.835 9.0021L214.976 9.08512C214.714 8.95234 214.182 8.65393 213.978 8.53349C214.126 8.41899 214.745 8.678 215.084 8.90772L214.938 8.82161C215.062 8.90563 215.106 8.99395 214.946 9.01589C215.176 9.00233 215.092 8.88095 215.241 8.8292C215.281 8.81816 215.503 8.92723 215.564 8.9006C215.574 8.89535 215.404 8.68429 215.476 8.65459C215.544 8.63016 215.722 8.69996 215.9 8.77751C216.072 8.85333 216.328 8.97573 216.371 9.00928C216.481 9.09953 216.291 9.06668 216.114 9.04338C215.934 9.01943 215.771 9.00392 215.721 9.04831C215.715 9.0558 215.795 9.16515 215.909 9.28634C216.02 9.40622 216.186 9.54737 216.188 9.55996C216.165 9.67391 215.957 9.60289 215.808 9.55174C215.656 9.49943 215.538 9.45523 215.525 9.56215C215.642 9.66443 215.776 9.77017 215.957 9.89461C215.436 9.81129 215.064 9.64541 214.595 9.42477L214.723 9.50057C214.212 9.21987 213.75 9.02074 213.505 8.99932C213.901 9.18448 214.3 9.39495 214.656 9.6105L214.531 9.53662C215.148 9.88545 215.554 10.1579 215.427 10.5447C215.328 10.7474 214.884 10.6903 214.878 10.7484C214.83 10.9559 215.513 11.0131 215.563 11.0441C215.58 11.0648 215.585 11.0803 215.581 11.0911C215.581 11.0911 215.581 11.0911 215.581 11.0911C215.556 11.1453 215.276 11.0832 215.054 11.0312C214.828 10.9784 214.622 10.9161 214.59 10.9304C214.481 10.9852 214.652 11.5099 214.62 11.5906C214.598 11.6045 213.989 11.4068 214.111 11.6394C214.232 11.8796 214.766 12.1225 214.792 12.1491C214.844 12.2798 213.878 11.928 213.83 11.953C213.801 11.9724 214.221 12.369 214.22 12.4191C214.211 12.4704 213.781 12.3848 213.555 12.4397C213.386 12.4821 213.683 12.7344 213.616 12.7198C213.586 12.7141 213.212 12.5249 212.922 12.3638L212.965 12.3894C212.76 12.2681 212.586 12.1749 212.561 12.1692C212.463 12.1475 212.661 12.42 212.604 12.4273C212.526 12.4374 212.185 12.1904 212.207 12.2617C212.216 12.286 212.46 12.5369 212.699 12.8259L212.669 12.8079C212.924 13.1278 213.214 13.4728 213.179 13.5332C213.067 13.7295 211.986 12.5714 212.812 13.9886C212.819 13.9992 213.153 14.0986 213.16 14.1064C213.289 14.3413 212.164 14.074 213.429 14.6247C210.998 13.7264 212.988 14.7845 212.488 14.9411C212.356 14.9792 211.9 14.8045 211.607 14.674C211.602 14.671 211.587 14.6633 211.583 14.6601C211.447 14.598 211.344 14.5523 211.34 14.5581C211.332 14.6649 211.424 14.7233 211.513 14.7742C211.519 14.7779 211.535 14.7866 211.54 14.7901C211.629 14.8379 211.719 14.8791 211.745 14.9394C211.757 14.9676 211.628 14.9417 211.473 14.9091C211.467 14.9052 211.448 14.8953 211.442 14.8912C211.226 14.8492 210.953 14.81 211.012 14.9293C211.031 14.9679 211.151 15.0498 211.29 15.1415C211.297 15.1466 211.32 15.1589 211.328 15.1637C211.604 15.3333 211.963 15.5152 211.984 15.5336C212.297 15.8237 211.791 15.7048 211.833 15.8186C211.859 15.8977 212.436 16.1839 212.447 16.1968C212.464 16.2329 211.576 16.045 211.381 16.0213C211.229 16.0087 211.647 16.3377 211.55 16.3154C211.327 16.2657 211.065 16.1015 210.869 15.9694C210.857 15.9615 210.82 15.9416 210.808 15.9334C210.584 15.7664 210.472 15.6711 210.688 16.1313C210.7 16.1403 210.742 16.162 210.755 16.1707C210.781 16.2082 210.808 16.248 210.84 16.292C210.885 16.3585 211.298 16.5665 211.309 16.5782C211.482 16.8396 210.802 16.5033 210.57 16.4953C210.555 16.4854 210.508 16.4607 210.493 16.4503C210.483 16.4516 210.474 16.4538 210.465 16.457C210.397 16.4832 210.397 16.5239 210.423 16.5656C210.438 16.5764 210.488 16.6022 210.503 16.6126C210.631 16.756 211.043 16.9473 210.439 16.7243C210.423 16.7136 210.372 16.6866 210.356 16.6754C210.339 16.67 210.321 16.6642 210.301 16.6579C210.315 16.6725 210.328 16.6868 210.341 16.7007C210.357 16.712 210.409 16.7392 210.425 16.7501C210.976 17.21 211.424 17.4384 212.238 17.7539C211.354 17.4174 210.629 17.1347 210.251 17.0551C210.233 17.0431 210.176 17.013 210.158 17.0005C209.89 16.9793 209.809 17.0831 209.986 17.2838C210.005 17.2974 210.068 17.3302 210.087 17.3432C210.301 17.5237 210.705 17.7931 211.382 18.1113C210.521 17.6817 210.473 18.0078 210.219 17.881C210.173 17.8566 210.051 17.7574 209.91 17.6536C209.889 17.6393 209.821 17.6037 209.8 17.5888C209.626 17.4242 209.38 17.2805 209.328 17.8401C209.323 17.897 209.459 17.9573 209.538 18.0199C209.561 18.0365 209.637 18.0763 209.661 18.0922C209.78 18.1704 209.847 18.2354 209.71 18.2502C209.673 18.2287 209.639 18.2083 209.606 18.1884C209.582 18.1721 209.504 18.1314 209.48 18.1145C208.814 17.6911 209.293 18.0974 209.412 18.2265C209.437 18.2439 209.516 18.2856 209.541 18.3023C209.581 18.333 209.605 18.3526 209.604 18.3555C209.587 18.382 209.549 18.3922 209.493 18.3873C209.467 18.3703 209.386 18.3277 209.361 18.31C209.139 18.3481 208.679 18.0744 208.054 17.7837C207.442 17.4916 206.665 17.1832 206.415 17.1324C205.784 17.001 205.11 17.1798 204.969 17.1441C204.499 17.0261 204.93 16.9569 204.841 16.8691C204.751 16.7765 203.295 16.7797 203.224 16.7505C202.962 16.6198 203.287 16.4808 203.26 16.4646C202.954 16.2635 200.978 16.0396 200.427 15.8999C200.425 16.0328 201.525 16.2449 200.797 16.3276C199.949 16.4264 200.004 15.8466 199.987 15.8169C199.409 15.7177 198.842 15.625 198.254 15.5324L198.398 15.5533C195.145 15.1301 191.911 14.7823 188.639 14.5035C188.666 14.8142 191.202 14.8138 191.252 14.8631C191.571 15.1297 187.314 14.737 186.799 14.5967C187.2 14.6957 187.577 14.7938 187.976 14.8947C187.273 15.1927 185.803 14.6114 184.811 14.6995C184.487 14.7275 185.093 14.909 185.078 14.9175C184.706 15.0294 184.15 14.8835 184.586 14.7275C183.712 14.8452 183.837 14.6569 183.179 14.5985C183.144 14.5957 183.422 14.758 182.889 14.7832C182.633 14.7938 181.315 14.7138 181.13 14.83C181.053 14.8785 181.693 15.4758 181.805 15.0012C183.219 15.3235 182.277 14.8108 182.836 14.8571C182.922 14.8658 182.704 15.1179 184.12 15.0876C183.816 15.5503 182.222 15.0841 181.946 15.1272C181.371 15.2116 183.696 15.6077 184.163 15.2648C183.937 15.6277 184.322 15.3263 184.848 15.3797C185.423 15.4382 185.163 15.5322 185.472 15.5555C186.319 15.6221 185.994 15.3301 186.666 15.6236C186.045 14.828 187.874 15.6209 188.401 15.8641C187.507 15.8248 186.622 15.7913 185.725 15.7615C185.773 15.8043 185.822 15.8472 185.87 15.89C185.631 15.8663 185.404 15.8438 185.169 15.8211C185.21 15.7865 185.25 15.7519 185.29 15.7173C184.056 15.8713 183.79 15.5814 183.687 15.5709C182.419 15.4531 180.948 15.367 179.658 15.2975C179.467 15.2878 179.576 15.5349 178.183 15.2751C177.733 15.1927 178.17 15.0239 177.654 15.0279C176.998 15.5126 177.025 15.1034 176.835 15.0942C176.282 15.0697 175.953 15.1839 175.9 15.183C175.222 15.1745 174.239 15.1156 173.494 15.109C173.48 15.1104 173.857 15.2817 173.381 15.2184C173.216 15.1957 171.715 14.47 170.379 14.6558C170.721 14.7104 171.066 14.7654 171.413 14.8211C171.002 14.7426 168.156 14.8452 168.847 15.0426C169.264 15.1619 170.328 14.7533 170.428 15.1748C169.694 15.0561 166.435 15.0749 164.773 15.0594C164.28 15.0537 163.926 15.0428 163.832 15.0193C163.776 15.0048 164.125 14.8728 164.047 14.8546C163.989 14.8404 162.779 14.8608 162.624 14.8078C162.529 14.7761 163.059 14.6973 163.016 14.6481C162.983 14.6123 161.475 14.5433 161.388 14.7136C161.76 14.647 162.799 14.7145 162.253 14.8539C162.183 14.8711 161.82 14.7589 161.734 14.781C160.944 14.9843 163.295 14.9499 163.667 14.957C162.188 15.1577 159.895 14.8907 158.177 15.0345C157.479 14.8934 159.211 14.8173 158.422 14.7003C156.792 14.459 157.989 14.8966 157.937 14.9147C157.539 15.0575 156.148 14.2969 156.153 14.8801C155.565 14.7954 155.756 14.7205 154.921 14.8024C155.031 14.842 155.142 14.8816 155.252 14.9212C154.323 15.2637 152.359 14.4328 152.504 14.3667C152.898 14.188 153.926 14.4494 154.011 14.4423C154.137 14.4319 154.495 13.8359 155.909 14.3568C156.488 13.9561 153.662 14.1038 154.948 13.8246C154.086 13.8717 150.505 13.6386 150.001 13.8236C149.939 13.8474 150.233 14.2376 149.346 14.0512C148.925 13.9625 149.936 13.9409 149.743 13.8541C149.149 13.574 141.136 13.9419 139.615 14.0231C139.516 14.0269 139.548 13.9031 139.45 13.9075C139.148 13.921 138.075 14.1419 137.536 14.1057C138.652 14.2916 136.504 14.3887 135.958 14.3866C135.127 14.382 135.167 14.1647 134.809 14.1336C133.423 14.0137 131.305 14.6252 130.212 14.2008C130.295 14.6722 128.345 14.0618 127.475 14.1061C126.79 14.1399 125.823 14.5102 126.751 14.6498C125.577 14.6935 124.342 14.8555 123.243 14.9529C123.061 14.9691 123.304 14.813 122.993 14.8452C122.965 14.8491 122.935 14.989 122.668 15.0203C120.476 15.2813 121.527 14.921 121.109 14.8617C120.875 14.8289 120.703 14.8164 120.577 14.8169C121.861 14.7033 123.339 14.5571 123.735 14.5291C123.378 14.2448 120.891 14.7671 120.151 14.737C120.125 14.7357 120.202 14.5624 120.176 14.563C120.176 14.563 120.175 14.563 120.175 14.5631C119.9 14.568 118.149 14.7528 118.524 14.9271C118.625 14.9735 119.433 14.916 120.387 14.8336C120.131 14.8884 120.337 15.0629 120.292 15.0739C119.746 15.2034 118.373 15.1156 117.891 15.126C117.781 15.1285 117.798 15.248 117.78 15.2496C117.34 15.2541 117.495 14.8982 117.072 15.2846C116.247 14.9154 118.552 15.1129 118.372 14.8478C118.234 14.637 113.176 15.1378 113.222 15.4784C113.201 15.4439 113.128 15.4049 112.982 15.3657C112.656 15.2781 111.251 15.4311 111.014 15.5142C110.974 15.5299 111.018 15.8548 110.968 15.8622C110.842 15.8799 109.1 15.774 108.477 16.0258C108.827 16.0401 109.178 16.0548 109.528 16.0699C107.437 16.2598 107.769 16.3299 108.475 16.3633C108.51 16.361 108.545 16.3704 108.578 16.3687C109.124 16.3918 109.822 16.4003 109.835 16.4252C109.883 16.5169 106.344 16.8964 106.998 16.532C107.089 16.4811 108.742 16.465 107.909 16.3237C107.763 16.2987 106.716 16.4586 106.659 16.4403C106.273 16.3162 108.555 15.8922 108.254 15.694C107.714 15.959 106.987 15.9128 106.351 16.029C106.062 16.0817 106.006 16.2521 105.97 16.2587C105.437 16.353 105.722 16.1527 105.543 16.1743C105.447 16.1862 104.425 16.6549 104.575 16.1326C101.126 16.8549 103.647 16.5938 105.783 16.3591C105.125 16.6069 103.792 16.6498 103.202 16.7534C102.991 16.7906 103.134 16.9453 102.778 17.0158C102.509 17.0691 101.861 17.1261 101.103 17.182C99.7913 17.278 98.1507 17.3738 97.564 17.4123C98.1225 17.2886 97.9365 17.125 97.5015 17.1875C97.0666 17.2503 97.4611 17.4517 97.379 17.4876C97.2921 17.524 95.2294 17.6493 94.8941 17.7228C96.4234 17.451 96.0546 17.3101 94.7449 17.4477C94.9275 17.3726 95.1102 17.2975 95.293 17.2226C94.5372 17.3866 92.8866 17.3082 92.4556 17.4467C92.3878 17.4686 92.6563 17.5902 92.6183 17.6025C92.2375 17.7155 90.8943 17.7284 90.84 17.7887C90.7935 17.8387 91.3735 17.8945 91.1724 17.9843C91.13 18.0032 90.5621 17.8662 90.0318 17.987C89.8353 18.0316 89.974 18.1604 89.925 18.1753C89.5169 18.2994 89.7308 18.0237 88.9742 18.1636C88.4207 18.2665 88.0363 18.5597 87.2543 18.586C89.8294 18.547 87.68 18.7061 86.6368 18.9436C86.4689 18.9818 86.6528 19.2225 85.6205 19.2364C87.712 18.4636 84.9689 19.0708 84.4044 19.1475C84.3732 19.1503 84.3381 18.9791 84.0603 19.016C84.0368 19.0195 84.0872 19.1312 83.8297 19.1772C81.3926 19.6155 82.9398 19.2576 82.4579 19.21C82.2545 19.1893 81.0851 19.5303 80.7663 19.5825C80.6928 19.5939 80.7084 19.4678 80.4244 19.5152C79.9235 19.5994 79.4884 19.7973 79.1574 19.8584C79.1188 19.865 79.0874 19.6741 78.4668 19.833C78.2924 19.8777 78.1043 19.9762 78.364 19.9922C79.2257 20.0433 80.7628 19.491 81.7362 19.5321C82.6219 19.5685 79.9086 19.9872 79.768 20.0114C79.7161 20.0199 80.2334 19.8445 79.6905 19.9076C79.2261 19.962 78.4389 20.4201 77.7429 20.4552C77.6897 20.458 77.0979 20.2644 77.1207 20.2442C77.1413 20.2286 77.9746 20.0363 77.8398 19.9746C77.8236 19.9676 77.2882 20.0531 77.209 20.0039C77.1121 19.944 76.7684 19.2612 76.6512 19.2612C76.3511 19.2629 76.5677 19.3968 76.3764 19.4154C75.969 19.4546 74.5196 19.4695 74.5155 19.7262C74.7506 19.7033 74.986 19.6805 75.2217 19.6578C73.9291 19.8925 74.4997 19.9096 74.3236 19.9859C74.1346 20.0685 74.1545 19.8405 73.7156 19.8911C73.6176 19.9017 71.7992 20.2501 71.8494 20.3368C72.8318 20.0225 72.5041 20.3554 72.5511 20.3524C72.7307 20.3407 72.9315 20.1516 73.1698 20.1154C74.8465 19.8647 73.1992 20.3807 73.6041 20.3775C73.744 20.3758 73.9922 20.2023 74.0507 20.1996C74.2407 20.1906 74.2714 20.3597 74.3937 20.3258C74.6792 20.2467 74.3008 20.0618 74.3218 20.0456C74.5567 19.853 75.6083 19.8755 75.0147 20.2391C75.4112 20.2718 75.4052 19.9472 75.7287 20.0256C76.3699 20.1812 75.4586 20.2602 75.2209 20.3414C74.3696 20.6332 74.0948 20.5523 72.8617 20.7988C72.4182 20.8874 71.921 21.129 71.7137 21.1726C71.5835 21.1995 70.2637 20.8722 70.3719 21.717C69.8858 21.7165 69.0347 21.2946 68.5497 21.4054C68.1133 21.5053 68.3055 21.7773 68.2663 21.796C68.2075 21.8248 67.6694 21.8953 67.4957 21.9693C67.2928 22.0562 67.4183 22.1506 67.0913 22.2562C66.2787 22.5189 66.2478 22.2129 66.1586 22.2086C65.1209 22.161 65.6348 22.5125 65.4201 22.5869C65.2196 22.6539 62.3172 23.0182 61.7308 23.2441C61.9654 23.1372 62.204 23.0296 62.4362 22.9235C61.9617 22.8175 61.5489 23.2138 61.4775 22.8776C61.4901 23.4396 60.5159 23.2477 60.2452 23.3146C60.1382 23.3412 60.1645 23.4324 60.0302 23.4624C59.5037 23.5803 58.3126 23.7364 58.0325 23.8408C56.8409 24.2856 60.0533 24.0039 60.3089 23.9786C59.8068 24.0667 57.0279 24.7402 58.3696 24.7479C58.5782 24.7488 58.883 24.4361 58.9923 24.4049C59.7357 24.1949 59.1838 24.5291 59.2471 24.5383C59.3541 24.5522 59.8117 24.2443 59.9489 24.2439C59.9947 24.2435 59.7485 24.4959 60.4752 24.3603C60.1516 24.6201 58.0967 24.8592 57.8369 24.9586C57.7454 24.9939 58.42 25.2836 56.6076 25.2326C56.6354 25.2666 56.6632 25.3005 56.6911 25.3344C55.7255 25.5444 54.7655 25.7566 53.8058 25.9719C53.8919 25.8629 54.3958 25.5755 53.7235 25.7536C53.3374 25.8562 53.6668 25.9908 53.6323 26.0039C53.2845 26.121 47.0564 27.3958 45.8655 27.7036C45.4605 27.8025 44.3586 28.2205 44.2728 28.2439C43.7621 28.3775 41.909 28.7088 41.5472 28.8202C41.3221 28.8892 41.578 28.9986 41.3724 29.04C41.1815 29.0783 41.3398 28.875 41.2821 28.882C41.1572 28.8965 40.8282 28.979 40.4002 29.0938C39.1632 29.4232 37.109 30.0301 36.4631 30.0819C36.9814 29.9926 39.4572 29.0422 39.3753 28.948C39.359 28.9359 38.717 28.969 38.5985 29.0601C38.3498 28.9786 37.73 29.5706 37.3178 29.5896C37.2711 29.5918 37.3872 29.3168 36.671 29.455C36.4247 29.5027 35.8406 29.8437 35.1483 29.81C34.2481 30.1357 29.3386 31.1615 29.084 31.5103C29.0792 31.5255 29.7792 31.4187 29.3516 31.6486C28.7784 31.9562 29.1972 31.3492 28.4776 31.5128C28.3733 31.5343 26.4151 32.1539 26.3584 32.2029C25.8379 32.6307 27.5853 32.2271 27.5685 32.2653C27.5316 32.3552 26.1173 32.8199 26.0573 32.8199C25.9961 32.8183 27.0555 32.1398 25.7019 32.6802C25.8749 32.672 26.0435 32.6653 26.2152 32.6578C25.5885 32.9287 25.4494 32.7193 25.2876 32.7524C24.782 32.8557 24.3505 33.3689 23.4335 33.1779C23.188 33.128 23.4966 32.8932 23.4645 32.8843C23.1669 32.8068 22.9701 33.3202 22.4993 33.1293C22.4628 33.1158 23.2849 32.6554 21.7485 33.1364C21.8637 33.1325 21.9791 33.1287 22.0947 33.1248C21.8957 33.2582 20.3565 33.7907 20.1455 33.8429C19.5208 33.9946 19.9838 33.6113 19.3787 33.8355C19.8654 33.9961 18.0166 34.6431 18.043 34.3601C17.8856 34.7575 16.2271 35.0445 15.4815 35.2921C15.0129 35.4466 14.1021 35.9129 13.95 35.9482C13.7619 35.9917 13.7428 35.7607 13.3984 35.8277C13.3001 35.8467 12.3803 36.342 11.4453 36.4273C11.2641 36.444 10.7881 36.2092 11.0649 36.0099C11.5414 35.6676 12.6418 35.6059 12.5559 35.398C12.4602 35.176 11.1593 35.786 10.7861 35.8861C9.05937 36.3476 9.94215 35.7615 9.87286 35.7036C9.69848 35.5659 8.7808 35.9014 8.73719 35.8993C8.55287 35.8857 9.15337 35.5116 9.12478 35.3999C9.08583 35.2549 8.10877 35.3196 8.29307 35.1997C8.55644 35.0286 9.44878 34.9476 9.49571 34.9196C10.1184 34.5431 9.08266 34.5462 8.76981 34.4783C8.67492 34.4569 8.95379 34.2657 8.88458 34.2743C7.82901 34.4063 8.8422 34.8051 8.17792 34.9931C7.58401 35.1618 8.25264 34.6795 8.22585 34.6759C8.1934 34.6728 7.49542 34.9114 7.36002 34.875C7.29264 34.856 8.94404 33.7924 8.80255 33.6335C8.24142 33.8808 7.68235 34.1285 7.12187 34.3775C6.98845 34.1512 7.88197 34.0306 7.95723 33.9754C8.11102 33.8633 7.58759 33.913 7.58 33.829C7.57411 33.7759 8.07385 33.399 7.53936 33.5104C7.35452 33.549 7.04923 33.8514 6.34806 33.9088C8.48837 32.8839 6.90014 33.3037 6.80347 33.2413C6.70815 33.1785 7.69584 32.5929 6.42152 33.0938C6.19489 32.6417 6.39496 32.9345 6.73088 32.7193C7.14249 32.4555 6.05003 32.6729 7.7318 32.2009C7.55927 32.0125 6.24599 32.504 6.17069 32.5116C6.10473 32.5174 6.35789 32.3028 6.24025 32.3037C4.84911 32.3242 5.76894 32.2117 5.31194 32.0687C5.27162 32.0556 4.06571 32.3795 4.94143 32.0162C6.53655 31.3552 7.32697 31.4266 7.35961 30.6577C6.05279 30.7975 4.75609 31.7582 4.39403 31.8983C3.83997 32.1118 4.36817 31.765 4.28553 31.7517C4.25706 31.748 3.78062 31.9343 3.7703 31.9258C3.24097 31.5399 5.90772 31.1382 6.65954 30.7683C6.42211 30.7673 6.18385 30.7667 5.94648 30.766C6.22988 30.6601 6.51496 30.5538 6.79786 30.4486C5.38507 30.7839 6.72892 30.4072 6.91881 29.8717C6.96148 29.7513 6.12557 30.2318 7.05193 29.6071C6.27795 29.8176 6.48921 29.6461 5.84987 30.0086C5.80774 29.8359 7.27097 29.0975 7.84667 28.797C5.64215 29.3754 7.07982 29.5467 5.12011 29.8903C4.8528 30.2194 5.71723 29.8613 5.65785 29.9212C5.44528 30.1358 4.77107 30.1608 4.20011 30.8517C4.10732 30.9648 4.68615 30.9984 3.94186 31.2574C3.85946 31.2857 3.32102 31.2731 3.32253 31.2574C3.33269 31.0902 3.81873 30.9744 3.81615 30.9072C3.81338 30.8436 3.30554 31.0673 3.29777 31.0523C3.21603 30.8772 3.70698 30.825 3.62098 30.7922C3.43528 30.7203 1.41905 31.0141 3.90651 30.2373C1.94968 31.1814 3.71832 30.5313 4.48194 30.1653C4.67663 30.0724 4.68848 29.9458 4.96316 29.8038C5.3163 29.6209 5.76807 29.5164 5.95349 29.4272C6.15203 29.331 4.88652 29.4978 6.61098 28.9633C5.65514 29.0189 4.2296 29.842 3.31886 29.972C1.48134 30.2333 4.34926 29.1008 4.64049 28.9568C4.71772 28.9181 4.39441 28.8702 4.44494 28.8417C4.52846 28.7954 6.20121 28.2677 6.32152 28.0887C6.44042 27.9095 5.71869 28.3117 5.6226 28.2042C5.55576 28.1316 7.49828 27.2654 6.39704 27.5947C5.63684 27.8219 4.39216 28.6576 4.02894 28.3755C5.10866 27.9495 6.19349 27.5241 7.27902 27.1031C6.62816 27.1778 5.97775 27.2537 5.32955 27.3298C6.54265 26.8429 7.6635 26.6204 8.76764 26.0071C5.78742 26.5568 9.55958 25.3246 9.58257 25.259C9.58563 25.2209 8.34283 25.2482 8.14136 25.2451C9.07476 24.7547 12.0711 23.647 10.1487 23.8064C10.5041 23.7968 11.1951 23.2797 11.1784 23.2644C11.0124 23.0978 9.3615 23.8121 9.57658 23.5374C9.82239 23.2189 10.3712 23.3453 10.8558 23.154C13.3483 22.175 12.3095 21.365 14.9261 20.6876C14.863 20.6671 14.8 20.6466 14.737 20.626C17.553 19.772 20.3767 18.964 23.2164 18.2C24.2269 17.5518 27.1156 16.524 28.5771 16.171C28.8734 16.0971 30.3479 15.8853 30.4666 15.8867C30.6817 15.8907 29.5859 16.2049 30.1117 16.1798C30.224 16.171 32.6703 15.6088 32.4487 15.4744C32.1738 15.5224 31.3392 15.8369 31.1922 15.8301C30.3825 15.7907 34.5866 14.7885 36.7836 14.2611C37.4569 14.0968 37.9469 13.9703 38.0282 13.9198C37.8468 13.9008 37.6659 13.8817 37.4855 13.8627C37.9662 13.7774 38.4511 13.6921 38.9274 13.6098ZM21.8005 33.9013C21.5936 34.1637 20.8836 34.2413 20.5088 34.4175C19.9892 34.6617 19.2946 35.6506 19.4648 34.8315C20.2419 34.5178 21.0239 34.2066 21.8005 33.9013ZM33.6178 30.7574C33.0536 30.8039 33.3643 30.3006 33.8531 30.345C33.908 30.3503 34.385 30.6937 33.6178 30.7574ZM27.8965 32.1487C27.9182 32.1368 28.3882 32.0123 28.4049 32.0143C28.8674 32.0503 27.4534 32.4237 27.8965 32.1487ZM55.6308 25.2326C55.0241 25.3738 55.5388 25.645 55.8889 25.4194C55.9109 25.4051 55.6708 25.2235 55.6308 25.2326ZM55.195 25.3113C54.651 25.0851 53.8267 25.9383 54.5754 25.7153C54.6472 25.6934 55.2224 25.322 55.195 25.3113ZM31.6426 31.1252C31.6717 30.9859 32.2458 30.8923 32.4914 30.8572C32.514 30.9706 31.8773 31.0459 31.6426 31.1252ZM45.9371 27.523C45.9393 27.4193 43.9624 27.8793 43.86 28.0391C44.157 27.9116 45.9342 27.6144 45.9371 27.523ZM50.9923 26.2652C50.9376 26.2592 50.2578 26.4321 50.2968 26.5136C50.6538 26.5542 51.2359 26.2927 50.9923 26.2652ZM61.158 24.2167C61.1919 24.188 60.5683 23.7377 61.8649 23.8658C62.0553 23.8845 61.4381 24.1499 61.5061 24.1574C61.6474 24.1704 61.7569 24.1682 61.8427 24.1553C61.2788 24.309 60.6933 24.4434 60.6299 24.4211C60.3317 24.3154 61.1427 24.2288 61.158 24.2167ZM66.4443 22.8161C66.5454 22.7053 67.3073 22.619 67.4862 22.6255C67.517 22.6273 67.4299 22.8857 67.7671 22.8079C68.038 22.7452 67.5869 22.5757 68.1265 22.5205C68.6678 22.4655 67.9844 22.7628 68.032 22.7672C68.0988 22.7718 68.9064 22.5188 68.9057 22.6638C68.9038 22.7711 68.0069 22.8556 67.7881 22.9173C67.511 22.9956 67.8834 23.1083 67.4059 23.1545C67.1061 23.1838 67.2159 22.85 67.1507 22.8457C67.0954 22.8425 66.0969 23.2022 66.446 22.8168C66.4454 22.8166 66.4449 22.8163 66.4443 22.8161ZM61.9951 24.1125C61.9539 24.131 61.9043 24.146 61.8427 24.1553C61.8939 24.1413 61.9447 24.1267 61.9951 24.1125ZM23.3079 33.2882C23.6161 33.2928 22.8209 33.6667 22.4748 33.6444C22.4381 33.5499 23.2575 33.2879 23.3079 33.2882ZM62.4798 23.7649C63.3388 23.683 62.7411 23.9027 61.9951 24.1125C62.2242 24.01 62.1904 23.7929 62.4798 23.7649ZM38.5985 29.0601C38.6395 29.0737 38.6706 29.103 38.6878 29.1597C38.5791 29.1201 38.5624 29.0885 38.5985 29.0601ZM40.5674 28.6842C40.9409 28.4821 40.6018 28.5225 40.2831 28.6135C40.0671 28.675 39.8607 28.7586 39.8764 28.8076C39.8857 28.8351 40.1204 28.7906 40.3157 28.747C40.4456 28.7181 40.5573 28.6896 40.5674 28.6842ZM56.4207 25.0909C56.3553 25.0861 57.2121 24.3589 55.8932 25.0409C56.6517 24.9531 55.8764 25.17 55.8978 25.2143C55.9538 25.3422 57.1849 24.9605 57.4702 24.9647C57.6386 24.6813 56.6394 25.1057 56.4223 25.0906C56.4217 25.0907 56.4212 25.0908 56.4207 25.0909ZM76.1608 21.3056C76.0132 21.4744 75.4603 21.5161 75.0931 21.5669C75.2409 21.3976 75.7932 21.3555 76.1608 21.3056ZM172.913 15.2486C170.382 15.3019 170.068 14.7113 172.374 15.0103C172.42 15.0165 173.069 15.1944 172.913 15.2486ZM151.124 14.9291C150.879 14.6778 151.678 14.6257 152.198 14.7248C152.316 14.747 152.752 14.9999 152.258 15.0561C152.27 14.7472 151.5 14.6387 151.124 14.9291ZM62.9281 23.515C63.1431 23.302 63.9292 23.2791 64.3362 23.2304C64.1164 23.4128 63.291 23.5011 62.9281 23.515ZM164.594 14.7584C164.329 14.7359 164.146 14.9555 164.192 14.9744C164.397 15.0612 164.894 14.8883 164.594 14.7584ZM60.4686 23.9539C60.4145 23.8607 61.4008 23.5728 61.5187 23.8061C61.299 23.8291 60.5054 24.0115 60.4686 23.9539ZM75.4567 21.3411C75.2902 21.3155 76.0945 21.093 76.3468 21.105C76.3449 21.2145 75.5655 21.3575 75.4567 21.3411ZM160.283 14.8006C160.041 14.7805 159.442 14.7734 159.376 14.8629C159.293 14.9746 160.171 14.9383 160.283 14.8006ZM203.861 17.8587C203.88 17.9033 203.005 18.0021 202.65 17.8544C201.977 17.5678 203.852 17.82 203.861 17.8587ZM167.13 14.6826C167.88 14.9072 167.048 14.6876 167.076 14.9102C167.58 14.9267 168.848 14.9643 167.978 14.7281C167.809 14.6824 167.368 14.7012 167.13 14.6826ZM166.431 14.5962C166.347 14.6667 165.806 14.8848 166.272 14.8759C166.488 14.8715 166.849 14.6259 166.431 14.5962ZM198.557 16.9424C197.945 16.6386 200.875 17.2406 200.937 17.2978C200.978 17.3239 201.004 17.346 201.017 17.3633C201.132 17.3209 201.68 17.4145 201.709 17.581C201.554 17.537 201.103 17.4655 201.057 17.4394C201.036 17.4279 201.021 17.418 201.011 17.4089C200.799 17.5021 198.682 16.9955 198.557 16.9424ZM193.736 16.1389C194.528 15.9354 194.607 16.4415 194.54 16.4495C193.692 16.5561 194.271 16.2563 194.247 16.2363C194.195 16.2017 193.587 16.3037 193.739 16.1392C193.738 16.1391 193.737 16.139 193.736 16.1389ZM197.725 16.7395C197.747 16.7381 198.039 16.7812 198.233 16.813L198.055 16.7872C198.154 16.8061 198.229 16.8217 198.237 16.8256C198.431 16.9236 198.269 16.9307 198.037 16.9009L198.218 16.9272C197.873 16.8923 197.358 16.7771 197.725 16.7395ZM70.4364 21.7674C70.904 21.7373 70.4836 21.9928 70.1682 21.9808C70.1422 21.9787 70.0243 21.794 70.4364 21.7674ZM166.061 14.6391C166.012 14.6227 165.413 14.5779 164.78 14.5622C164.045 14.5435 163.263 14.5661 163.353 14.7156C163.457 14.7024 164.129 14.7282 164.777 14.744C165.623 14.764 166.43 14.7677 166.061 14.6391ZM145.361 14.679C145.852 14.6694 145.323 14.9402 145.059 14.8504C144.961 14.817 145.237 14.6815 145.361 14.679ZM59.0639 23.9869C58.5961 24.2228 58.6068 23.7358 59.0677 23.8121C59.0858 23.8151 59.0822 23.9777 59.0639 23.9869ZM149.27 14.747C147.59 14.9342 147.965 14.1062 150.17 14.3464C150.102 14.384 150.034 14.4215 149.966 14.459C152.494 14.5443 150.141 14.513 149.521 14.5698C149.285 14.5912 149.485 14.7245 149.271 14.7479C149.271 14.7476 149.27 14.7473 149.27 14.747ZM142.789 14.7306C141.149 14.1965 144.264 14.485 145.147 14.3901C144.294 14.6508 143.171 14.6443 144.701 14.8505C142.472 14.9559 143.392 14.7014 143.303 14.684C143.196 14.6654 142.859 14.7536 142.789 14.7306ZM147.072 14.621C147.166 14.6019 147.878 14.7057 148.132 14.6817C147.78 14.8865 146.45 14.7493 147.072 14.621ZM188.431 15.753C188.499 15.6029 188.656 15.501 189.198 15.6078C189.025 15.6706 188.661 15.7059 188.431 15.753ZM21.051 33.2803C20.6821 33.3856 19.9478 33.5603 20.2177 33.6453C20.2447 33.6509 21.0766 33.3681 21.051 33.2803ZM158.023 14.4575C157.947 14.4374 155.827 14.4319 156.561 14.6009C156.786 14.6509 158.699 14.6259 158.023 14.4575ZM168.947 14.5876C168.773 14.5819 168.053 14.596 168.036 14.6326C167.986 14.7585 168.869 14.7074 168.947 14.5876ZM19.1771 33.7163C19.1267 33.7151 18.029 34.1057 18.1752 34.1374C18.4492 34.1966 19.3578 33.7156 19.1771 33.7163ZM72.0521 21.1247C72.1475 21.1029 72.3029 21.2482 72.3366 21.2445C72.4137 21.2333 74.1774 20.8768 73.5346 21.2024C73.4262 21.2555 70.8664 21.5991 70.5324 21.6361C70.3652 21.4292 71.4893 21.4619 71.7518 21.3939C71.7974 21.3817 71.797 21.185 72.0514 21.1258C72.0516 21.1255 72.0519 21.1251 72.0521 21.1247ZM191.292 15.8534C191.39 15.7125 193.461 15.8305 193.418 16.0077C192.704 15.9521 192.007 15.902 191.292 15.8534ZM190.246 15.7277C189.815 15.5823 190.855 15.6457 191.151 15.7217C191.149 15.8208 190.304 15.748 190.246 15.7277ZM164.962 13.9661C164.748 13.9993 165.401 14.2232 165.254 14.263C165.193 14.279 164.974 14.2484 164.784 14.2424C164.682 14.2391 164.588 14.2432 164.535 14.2664C164.512 14.2776 164.639 14.3427 164.782 14.3996C164.908 14.4487 165.047 14.4918 165.112 14.4887C165.312 14.4797 165.121 14.3179 165.338 14.3198C166.056 14.3264 166.69 14.4504 167.363 14.4602C167.423 14.4608 166.956 14.3397 167.472 14.3509C167.551 14.3525 168.027 14.5288 168.65 14.5176C170.022 14.0297 171.025 14.5639 172.759 14.4325C172.689 14.3809 171.406 14.2106 171.326 14.204C169.88 14.0754 167.277 14.0098 165.754 13.9879C165.364 13.9817 165.552 14.0942 165.383 14.0958C165.25 14.097 165.412 13.8959 164.962 13.9661ZM21.2079 33.1127C20.9783 32.9725 20.404 33.2902 20.019 33.4035C20.2084 33.5346 20.8182 33.1888 21.2079 33.1127ZM180.927 14.8701C180.727 14.8662 180.088 14.7695 180.038 14.828C179.961 14.9035 180.88 15.0051 180.927 14.8701ZM82.0622 19.6095C82.0809 19.6011 82.5708 19.5403 82.5903 19.544C83.0503 19.6412 81.5801 19.8229 82.0622 19.6095ZM93.788 18.0668C94.157 17.9962 94.5254 17.8877 94.6704 18.036C94.4298 18.0396 93.7583 18.1858 93.788 18.0668ZM110.005 16.3582C109.909 16.15 111.047 16.1915 111.26 16.193C111.19 16.2949 110.075 16.5077 110.005 16.3582ZM188.41 15.0719C189.085 15.1432 188.977 14.8063 189.391 14.9917C189.457 15.0229 189.626 15.7203 188.904 15.4002C188.774 15.3429 189.312 15.2274 188.41 15.0719ZM150.526 14.3478C150.696 14.2026 151.251 14.237 151.622 14.2436C151.542 14.3505 150.785 14.3336 150.526 14.3478ZM17.1337 34.2188C16.7688 34.1273 15.4074 34.7459 15.7992 34.7538C15.8516 34.7538 16.9364 34.276 17.1337 34.2188ZM64.5342 22.5567C65.1091 22.2903 63.8508 22.4705 63.4803 22.6971C63.6582 22.6536 64.4965 22.574 64.5342 22.5567ZM106.092 16.5992C106.121 16.5898 106.771 16.5434 106.801 16.5485C107.349 16.6628 105.508 16.7952 106.092 16.5992ZM89.8965 18.2962C90.1145 18.1355 91.6583 18.0428 92.0195 18.1295C91.7117 18.3595 89.6294 18.4948 89.8965 18.2962ZM185.604 14.9396C186.095 14.9695 186.542 15.0445 186.99 15.137C186.881 15.2377 185.652 15.0247 185.604 14.9396ZM108.475 16.3633C108.51 16.361 108.545 16.3704 108.578 16.3687C108.543 16.3672 108.508 16.365 108.475 16.3633ZM174.692 14.2583C174.285 14.1995 174.361 14.4039 174.387 14.411C174.693 14.4876 175.151 14.3249 174.692 14.2583ZM20.6728 32.9693C20.4799 32.84 19.8758 33.1815 19.4818 33.264C19.6376 33.3641 20.3731 33.0846 20.6728 32.9693ZM141.038 14.4107C140.51 14.2297 142.623 13.9359 143.067 14.0516C143.106 14.1715 141.115 14.4344 141.038 14.4107ZM62.6057 22.6364C62.54 22.5037 61.7003 22.8364 61.8977 22.8677C62.0246 22.8872 62.6462 22.7187 62.6057 22.6364ZM144.134 14.1059C144.332 14.0572 144.797 14.186 144.637 14.2757C144.431 14.3906 144.084 14.1196 144.134 14.1059ZM161.939 13.8096C161.849 13.7869 160.688 13.9271 161.166 14.0747C161.497 14.1773 161.552 13.9719 161.632 13.9718C161.723 13.9724 163.59 14.2383 161.939 13.8096ZM129.208 14.7769C129.646 14.6994 130.181 14.736 130.64 14.7096C130.458 14.8064 129.402 14.8837 129.208 14.7769ZM65.9605 21.9822C65.8395 21.9436 62.9799 22.4318 64.6323 22.3094C64.7269 22.3016 66.3111 22.0959 65.9605 21.9822ZM188.41 15.0719C188.325 15.063 188.228 15.0478 188.114 15.024C188.227 15.0392 188.325 15.0573 188.41 15.0719ZM180.672 14.5024C180.838 14.4078 180.037 14.3352 179.806 14.3783C179.725 14.5005 180.649 14.5152 180.672 14.5024ZM130.668 14.5635C130.929 14.4913 131.416 14.5311 131.744 14.5087C131.694 14.6074 130.786 14.6555 130.668 14.5635ZM112.054 15.6803C112.585 15.6934 113.228 15.6147 113.229 15.4965C113.241 15.514 113.268 15.5314 113.312 15.5475C113.357 15.5634 113.914 15.4636 114.162 15.4844C115.644 15.6006 108.523 16.0902 112.619 15.416C112.431 15.5039 112.242 15.5921 112.054 15.6803ZM87.7859 18.297C87.4696 18.1948 86.6645 18.4864 86.8875 18.5129C87.0421 18.5305 88.1021 18.3999 87.7859 18.297ZM99.1931 16.8071C99.102 16.7912 98.3001 16.9821 98.2878 17.0597C98.7642 17.0858 99.6101 16.8806 99.1931 16.8071ZM85.485 18.4438C85.2958 18.4484 85.0908 18.7108 85.1141 18.7177C85.3145 18.7747 85.8155 18.5276 85.485 18.4438ZM187.053 14.3338C186.774 14.2446 185.893 14.3445 185.685 14.4824C185.652 14.4503 185.56 14.4048 185.389 14.3458C185.389 14.3459 185.39 14.3459 185.39 14.346C185.163 14.249 178.034 13.7471 182.798 14.3331C182.948 14.3522 182.754 14.202 183.359 14.2658C183.398 14.2702 183.411 14.3832 183.533 14.3968C183.822 14.4268 185.338 14.6044 185.644 14.5381C185.645 14.559 185.663 14.5801 185.703 14.6013C186.072 14.79 187.259 14.4013 187.053 14.3338ZM100.801 16.611C100.633 16.5872 100.12 16.6825 100.077 16.7866C100.339 16.8065 101.191 16.6664 100.801 16.611ZM65.7994 21.5994C65.4527 21.5791 64.6438 21.8806 64.911 21.9141C65.0737 21.9346 66.198 21.6223 65.7994 21.5994ZM95.6253 17.249C97.5484 17.1403 96.0799 17.1859 96.3555 17.0076C96.1118 17.0879 95.8684 17.1683 95.6253 17.249ZM195.754 15.575C195.462 15.5067 195.84 15.2636 196.158 15.4585C196.257 15.5202 195.917 15.6127 195.754 15.575ZM207.93 18.0534C207.869 17.7488 208.589 18.2285 208.218 18.2535C208.205 18.253 207.941 18.0672 207.93 18.0534ZM199.68 15.9277C199.454 16.0644 199.325 16.0624 198.77 15.9283C199.607 16.0172 198.868 15.7392 199.68 15.9277ZM113.222 15.4784C113.226 15.4851 113.229 15.49 113.229 15.4965C113.225 15.4905 113.223 15.4846 113.222 15.4784ZM83.7014 18.7418C83.4417 18.6312 82.7751 18.7386 82.9952 18.8555C83.0163 18.8661 83.6188 18.8627 83.7014 18.7418ZM185.685 14.4824C185.714 14.5109 185.697 14.5266 185.644 14.5381C185.643 14.5185 185.658 14.5011 185.685 14.4824ZM87.2725 18.1223C87.2629 18.2334 88.2881 18.1377 88.3267 18.1198C88.8853 17.8542 87.6923 18.0581 87.2725 18.1223ZM59.0955 22.6983C59.0458 22.7196 59.4342 22.9309 59.6192 22.7828C59.7624 22.668 59.2815 22.618 59.0955 22.6983ZM201.57 16.1965C201.878 16.2551 202.298 16.3385 202.35 16.4857C202.151 16.4238 201.55 16.2921 201.57 16.1965ZM207.668 17.7516C207.353 17.7964 206.714 17.5765 206.268 17.4187C206.333 17.2156 207.427 17.6995 207.668 17.7516ZM187.915 14.4819C187.884 14.4706 187.095 14.3439 187.191 14.4909C187.335 14.706 188.135 14.5758 187.915 14.4819ZM60.6791 22.5453C61.0175 22.3836 60.1443 22.2517 59.8049 22.548C59.6327 22.6992 60.6233 22.572 60.6791 22.5453ZM81.5885 18.856C81.1233 19.0057 82.326 18.9725 82.4686 18.8057C82.248 18.8261 81.7545 18.8027 81.5885 18.856ZM97.8074 16.5844C96.2537 16.342 97.1614 17.0051 97.4203 16.9078C97.4568 16.8939 97.8452 16.59 97.8074 16.5844ZM13.3298 34.6335C13.1475 34.7582 13.9672 34.6964 14.0196 34.5321C14.0509 34.4296 13.4478 34.5532 13.3298 34.6335ZM120.577 14.8169C120.513 14.8225 120.45 14.8281 120.387 14.8336C120.434 14.8236 120.496 14.8172 120.577 14.8169ZM77.1809 18.9605C78.3313 19.3779 78.1463 18.9474 78.2394 18.9353C78.4384 18.911 78.9232 18.9978 79.2937 18.9149C78.8749 19.0459 78.4572 19.1772 78.0407 19.309C78.3831 19.2967 81.3531 19.0674 81.4011 18.9657C81.4692 18.8177 80.5506 18.9977 80.5223 18.99C80.481 18.9789 80.2806 18.6261 80.1928 18.6247C80.0491 18.6216 77.5915 18.9898 77.1809 18.9605ZM94.6662 17.0184C94.9133 17.034 94.9999 17.1748 95.1079 17.1257C95.1448 17.1089 95.1339 16.9661 95.2603 16.9137C95.0621 16.9485 94.8641 16.9834 94.6662 17.0184ZM75.3741 19.7837C75.0479 19.6586 76.3976 19.5104 76.4429 19.5235C76.6895 19.6043 75.6431 19.8849 75.3741 19.7837ZM86.7474 18.0659C86.6972 18.0622 85.6594 18.1506 85.6804 18.2459C85.9655 18.2803 87.3432 18.1131 86.7474 18.0659ZM95.4207 16.8848C95.7855 16.8581 96.4891 16.9208 96.3853 16.716C96.3848 16.7161 96.3843 16.7161 96.3837 16.7162C96.0624 16.7721 95.7414 16.8283 95.4207 16.8848ZM61.8219 21.8654C61.0897 21.6544 61.4868 22.0204 62.0992 22.0179C62.2486 21.8331 61.9426 21.8994 61.8219 21.8654ZM59.6416 22.0206C59.4419 21.9952 57.5515 22.4339 57.8758 22.5558C57.9944 22.5981 59.0554 22.2244 59.1092 22.2271C59.1894 22.2305 58.8775 22.4955 59.4553 22.343C59.408 22.2828 59.709 22.0286 59.6416 22.0206ZM61.2281 21.754C60.5169 21.6233 60.4597 22.1246 60.9565 22.0312C61.1509 21.995 61.3297 21.773 61.2281 21.754ZM63.9441 21.2888C63.6969 21.2877 63.0464 21.3401 62.6394 21.579C63.2253 21.4836 63.821 21.3875 64.4047 21.2947C64.4558 21.1931 64.1588 21.2901 63.9425 21.2891C63.943 21.289 63.9435 21.2889 63.9441 21.2888ZM211.51 18.3007C210.948 17.8928 212.395 18.4937 212.379 18.5134C212.494 18.6829 211.787 18.4985 211.51 18.3007ZM7.92143 31.9066C7.76166 31.9061 7.6085 31.7708 7.32978 31.9708C7.68625 31.983 8.04588 31.9943 8.40121 32.0076C8.54144 31.6358 8.09708 31.9073 7.92143 31.9066ZM6.35217 31.2954C6.39403 31.2725 5.99374 30.9218 6.67165 31.0078C7.12804 31.0659 5.09961 32.0164 4.65145 31.9605C5.03661 31.7183 5.99224 31.4887 6.35217 31.2954ZM1.98894 30.7365C1.9521 30.7103 2.72988 30.3686 2.83132 30.3596C3.36301 30.3126 2.1879 30.8756 1.98894 30.7365ZM4.5631 29.8938C4.15768 29.9447 4.96799 29.5887 5.23297 29.5483C5.28691 29.6209 4.62513 29.8852 4.5631 29.8938ZM209.067 9.79637C208.715 9.35395 208.119 9.88828 208.842 9.96426C208.876 9.96791 209.08 9.81674 209.067 9.79637ZM2.60692 30.011C3.01179 29.9597 2.20357 30.3164 1.93918 30.3575C1.88664 30.2845 2.54531 30.0194 2.60692 30.011ZM208.974 8.97795C208.434 8.57801 208.433 9.37717 208.498 9.42765C208.766 9.62766 209.911 9.68361 210.163 9.70058C208.525 9.26426 209.23 9.17603 208.974 8.97795ZM206.116 8.69159C205.554 8.64287 206.901 9.12053 207.223 8.98921C206.943 8.92577 206.277 8.70416 206.116 8.69159ZM202.888 7.76706C202.604 7.68471 201.751 7.46525 201.592 7.56029C201.909 7.5925 202.744 7.865 202.888 7.76706ZM202.298 7.29204C201.874 7.04981 201.681 7.49918 202.229 7.45317C202.25 7.4514 202.313 7.30396 202.298 7.29204ZM199.786 6.69173C199.749 6.659 199.708 6.63862 199.668 6.62801C199.648 6.62635 199.589 6.61488 199.569 6.61376C199.328 6.55672 199.094 6.87217 199.497 6.93556C199.507 6.93712 199.517 6.93713 199.527 6.93579C199.545 6.93681 199.599 6.94726 199.617 6.94877C199.742 6.93637 199.813 6.71624 199.786 6.69173ZM208.442 7.96555C208.012 7.76086 207.359 7.92778 208.296 8.22085C207.947 8.1757 207.605 8.13718 207.263 8.10209C208.446 8.6009 208.476 8.14732 208.837 8.26922C209.333 8.445 209.185 8.79756 209.048 8.87919C209.519 8.772 211.305 9.36047 212.403 9.85475C211.503 9.30583 210.055 8.60789 209.19 8.28832C208.941 8.19368 208.664 8.22082 208.458 8.1507C208.121 8.03614 208.466 7.97781 208.444 7.96605C208.443 7.96589 208.443 7.96572 208.442 7.96555ZM196.374 6.25374C195.536 5.94028 196.022 6.46244 196.527 6.43893C196.549 6.43511 196.396 6.26152 196.374 6.25374ZM1.05384 29.0796C2.19981 28.8678 1.50038 29.3947 3.63002 28.2055C2.77278 28.8105 3.64521 28.411 3.49749 28.5831C3.37831 28.72 2.79605 28.8543 3.18067 28.903C2.68855 28.8764 0.860579 29.6003 0.768375 29.6007C0.769148 29.6004 0.76992 29.6001 0.770693 29.5999C0.714994 29.6004 0.68866 29.1474 1.05384 29.0796ZM203.107 6.57603C202.915 5.96868 202.639 6.82373 202.144 6.26228C201.257 6.78727 204.267 6.64915 204.513 7.29555C201.385 6.60271 206.484 8.27464 204.455 6.98848C206.216 7.67515 205.076 7.01077 205.381 6.9634C205.702 6.91134 206.729 7.27866 206.723 7.06386C206.722 7.06372 206.722 7.06358 206.721 7.06345C206.073 6.92381 205.428 6.79702 204.795 6.68063C205.324 7.25179 204.058 6.84933 203.696 6.40772C203.498 6.46304 203.3 6.51864 203.107 6.57603ZM206.59 7.74311C206.528 7.71327 205.139 7.46567 205.209 7.57664C205.371 7.66238 207.348 8.0587 206.59 7.74311ZM213.009 9.84567C212.462 9.55802 211.652 9.11491 211.298 9.16136C211.836 9.37097 212.635 9.83956 213.009 9.84567ZM187.52 5.00706C186.895 5.09708 188.785 5.29071 188.251 5.08167C188.227 5.07163 187.553 5.0029 187.52 5.00706ZM201.679 6.40479C201.074 6.12637 201.286 6.71681 201.773 6.65702C201.801 6.65342 201.707 6.41755 201.679 6.40479ZM1.90545 28.6982C1.89778 28.5583 3.49943 28.0751 3.77755 27.9733C3.66177 28.1473 1.91276 28.8587 1.90545 28.6982ZM214.212 9.93796C213.343 8.84161 211.549 8.70757 211.418 8.64976C211.263 8.57557 211.59 8.47816 211.556 8.45875C211.468 8.39377 209.769 7.81574 209.692 7.82047C209.632 7.81343 209.841 8.18961 209.474 8.17149C210.148 8.13942 213.279 9.55152 213.463 9.69775C213.602 9.74925 212.789 8.93364 214.21 9.93684C214.211 9.93721 214.212 9.93759 214.212 9.93796ZM211.039 8.43496C211.416 8.70667 210.229 8.28417 209.965 8.15789C209.374 7.85333 210.978 8.38329 211.039 8.43496ZM208.286 7.43787C208.164 7.37144 207.019 7.05191 206.887 7.16568C207.379 7.46446 208.561 7.57896 208.286 7.43787ZM195.803 5.23579C195.516 5.22032 194.743 5.02791 194.689 5.14362C194.977 5.15703 195.74 5.3497 195.803 5.23579ZM6.92293 25.7661C6.44613 25.8287 7.45704 25.4249 7.77448 25.3643C7.81658 25.4345 6.9635 25.7606 6.92293 25.7661ZM201.769 5.24978C201.686 5.21745 200.844 5.08428 199.932 4.96367C199.903 4.96125 199.817 4.94449 199.788 4.94286C198.823 4.84142 197.758 4.74934 197.512 4.74929C197.746 4.82569 198.809 4.98159 199.766 5.11379C199.794 5.11537 199.877 5.13159 199.905 5.13393C200.792 5.2799 201.601 5.4097 201.685 5.40273C201.733 5.39751 201.79 5.25925 201.769 5.24978ZM209.56 6.93899C209.961 6.87547 210.132 7.1557 210.174 7.17206C210.6 7.3333 211.55 7.64084 211.285 7.72641C210.501 7.34595 208.764 7.06849 209.56 6.93899ZM195.648 4.4092C194.478 4.34333 196.697 4.78332 196.421 4.56597C196.406 4.55278 195.771 4.41596 195.648 4.4092ZM202.164 5.26624C202.439 5.15344 205.96 5.96601 206.546 6.12651C205.975 6.26643 205.594 5.97587 204.91 5.84763C204.72 5.81257 204.751 5.93142 204.73 5.92737C204.414 5.86815 204.676 5.79156 204.48 5.75003C204.347 5.71325 201.764 5.39542 202.164 5.26624ZM209.796 6.88297C210.014 6.81244 212.546 7.69113 212.661 7.81116C213.339 8.28194 209.931 6.89999 209.796 6.88297ZM201.888 4.97894C202.31 4.73656 204.031 5.26415 202.802 5.19391C202.691 5.18759 202.223 4.96802 201.888 4.97894ZM195.806 4.13233C195.751 4.11615 194.538 3.91975 194.506 4.01561C194.672 4.07 196.454 4.30583 195.806 4.13233ZM196.476 3.87632C196.446 3.87526 196.709 4.09546 196.144 4.00591C196.099 3.99868 196.024 3.77555 195.303 3.77297C195.155 3.77255 194.909 3.88659 194.926 3.89731C195.636 4.3073 197.972 3.94288 196.476 3.87632ZM209.891 6.73242C209.787 6.60645 210.183 6.45018 210.429 6.67265C210.532 6.76827 210.255 6.84286 209.891 6.73242ZM191.947 3.63991C192.675 3.54737 190.441 3.30401 190.329 3.33796C190.385 3.44267 191.873 3.64733 191.947 3.63991ZM7.54644 24.2247C7.54591 24.2249 7.54539 24.2251 7.54486 24.2253C8.11588 24.0625 7.8143 24.3111 7.84186 24.3058C9.10163 24.0713 8.68456 23.8969 8.85941 23.7975C9.23426 23.5846 9.29341 23.9547 9.91944 23.5756C8.87321 24.178 9.86366 23.7338 9.93676 23.8477C10.2398 24.3094 8.36339 24.1288 7.84568 24.4318C7.77333 24.4738 8.40179 24.4339 8.21954 24.5497C7.62772 24.9244 5.35277 24.8548 7.54644 24.2247ZM210.661 6.72508C211.004 6.63362 213.508 7.83229 212.778 7.67342C212.632 7.59189 210.107 6.76115 210.661 6.72508ZM112.454 3.66357C112.942 3.48744 111.772 3.42111 111.566 3.54488C111.464 3.60623 112.24 3.74069 112.454 3.66357ZM104.287 3.80267C103.696 3.88779 103.127 4.51536 103.856 4.35495C103.933 4.33762 104.363 3.87452 104.287 3.80267ZM143.305 1.73241C142.676 1.54628 142.724 1.92261 143.181 1.90477C143.342 1.89859 143.325 1.73832 143.305 1.73241ZM119.636 2.88976C119.574 2.88066 118.86 2.95342 118.892 3.03827C119.16 3.07183 120.044 2.95299 119.636 2.88976ZM143.501 1.67344C143.134 1.7513 143.776 2.00703 144.218 1.72908C143.991 1.75668 143.539 1.66545 143.501 1.67344ZM200.713 3.93589C200.577 3.97713 200.352 3.97075 200.093 3.94472C200.059 3.94183 199.957 3.92184 199.922 3.91989C199.56 3.89462 199.125 3.82824 198.822 3.80594C198.803 3.66682 199.426 3.7485 199.935 3.82027C199.97 3.82225 200.074 3.84256 200.109 3.84549C200.366 3.88865 200.594 3.92839 200.713 3.93589ZM106.828 3.79247C106.279 3.98492 107.493 3.99 107.366 3.81402C107.35 3.80523 106.85 3.78437 106.828 3.79247ZM163.347 1.46935C162.933 1.5851 164.242 1.75898 163.884 1.54495C163.866 1.53612 163.37 1.46284 163.347 1.46935ZM169.044 1.6271C168.731 1.5792 167.402 1.56569 167.916 1.69259C167.989 1.71165 169.021 1.73601 169.044 1.6271ZM8.84486 23.6495C8.61672 23.5105 9.55947 23.2339 9.70188 23.2231C9.75967 23.2188 9.13929 23.8306 8.84486 23.6495ZM139.274 1.82215C138.951 1.85864 138.12 1.83867 137.977 1.95218C138.367 1.91554 139.387 2.03388 139.274 1.82215ZM109.39 3.56308C108.881 3.382 108.047 3.47836 108.279 3.75168C109.2 3.6507 108.142 3.49896 109.39 3.56308ZM145.564 1.38094C145.306 1.3698 145.114 1.65568 145.143 1.66822C145.427 1.78753 145.823 1.48444 145.564 1.38094ZM126.251 2.37102C126.228 2.2518 125.409 2.35261 125.523 2.4237C125.561 2.44746 126.268 2.46742 126.251 2.37102ZM189.607 2.62034C189.232 2.47764 190.418 2.47309 190.746 2.63246C190.897 2.83091 189.654 2.63631 189.607 2.62034ZM152.71 1.32986C152.743 1.15085 151.46 1.26692 151.968 1.40868C152.096 1.44403 152.695 1.38958 152.71 1.32986ZM165.093 1.12444C164.222 1.32378 167.871 1.52989 166.916 1.25043C166.838 1.22945 165.177 1.10681 165.093 1.12444ZM171.059 1.3757C170.913 1.34841 170.993 0.750676 171.617 0.999429C171.699 1.0317 171.309 1.1792 171.375 1.21732C171.419 1.23863 172.765 1.36276 172.826 1.3513C172.895 1.33757 172.821 1.14306 172.89 1.12371C172.97 1.10198 173.801 1.29791 174.231 1.31523C175.062 1.34807 175.151 1.19225 175.219 1.19415C175.414 1.20049 175.74 1.32662 176.142 1.34281C178.15 1.41985 181.238 1.44394 182.814 1.88349C181.402 1.66061 180.033 1.73099 178.626 1.70794C179.051 1.39294 176.543 1.86943 178.012 1.55098C177.334 1.59087 171.553 1.45121 171.06 1.37574C171.06 1.37573 171.059 1.37571 171.059 1.3757ZM101.927 3.86854C102.271 3.6272 100.403 3.86591 100.27 4.11906C100.52 4.12508 101.884 3.89576 101.927 3.86854ZM110.522 2.56856C110.693 2.51889 110.825 2.10576 111.755 2.23294C111.756 2.23288 111.757 2.23281 111.758 2.23274C112.03 2.26997 111.733 2.39194 111.785 2.42256C111.804 2.43512 112.652 2.56593 111.964 2.65391C110.914 2.78921 111.84 2.36536 111.278 2.40746C111.209 2.41257 110.163 2.71761 110.229 2.75992C110.236 2.76487 110.552 2.69221 110.606 2.70748C110.812 2.76472 110.725 2.89733 110.754 2.9009C110.847 2.90768 112.512 2.55753 112.771 2.724C112.856 2.7757 110.107 3.14079 109.998 3.12069C109.928 3.10693 109.927 2.75906 109.854 2.73111C109.816 2.717 108.717 2.94267 108.57 2.92397C108.527 2.91848 108.495 2.91139 108.47 2.90531C108.648 2.99715 107.642 3.07882 107.662 2.95576C107.675 2.9067 108.37 2.87241 108.395 2.87862C108.406 2.88117 108.416 2.88517 108.425 2.88772C108.27 2.76903 110.615 2.57259 110.093 2.42261C110.763 2.25887 110.02 2.71504 110.522 2.56856ZM113.772 2.09051C113.704 2.13233 113.637 2.17416 113.57 2.21601C114.752 2.03375 116.14 2.10553 117.508 2.00709C117.857 1.98235 117.44 1.78823 117.901 1.81682C118.27 1.83979 118.688 2.0183 118.493 2.07801C118.446 2.09274 117.692 2.01026 117.321 2.05081C116.227 2.17041 116.517 2.34167 116.454 2.35133C116.383 2.36184 115.682 2.27854 115.305 2.31306C114.357 2.40015 113.933 2.55004 112.624 2.5006C113.362 2.31538 112.931 2.07473 113.772 2.09051ZM158.168 0.756618C158.214 0.636094 158.998 0.742699 159.279 0.725539C159.236 0.846019 158.455 0.7385 158.168 0.756618ZM42.7013 13.0556C42.5109 13.3006 44.2816 12.9517 43.7817 12.8958C43.6733 12.8826 42.9238 13.0063 42.7013 13.0556ZM50.642 11.4539C50.8668 11.3513 49.8882 11.4098 49.9202 11.5595C49.9317 11.6071 50.6149 11.4666 50.642 11.4539ZM129.167 1.29995C129.212 1.29138 129.874 1.30244 129.894 1.31156C130.342 1.49891 128.165 1.48706 129.167 1.29995ZM60.2371 9.31501C59.4369 9.59561 61.9287 9.18945 61.1401 9.16805C61.1002 9.16707 60.275 9.30135 60.2371 9.31501ZM63.684 8.64674C63.4875 8.68888 62.5944 8.78527 62.5944 8.84671C62.5934 8.94548 63.6141 8.8283 63.684 8.64674ZM145.721 0.631017C145.621 0.410501 146.792 0.553065 147.205 0.517005C147.305 0.737519 146.128 0.59327 145.721 0.631017ZM138.302 0.681998C143.247 0.344269 142.169 0.851757 138.012 0.800752C138 0.658304 137.991 0.70403 138.302 0.681998ZM144.642 0.51884C144.467 0.665712 143.905 0.637555 143.524 0.636284C143.59 0.535264 144.371 0.550996 144.642 0.51884ZM40.5364 13.2397C40.799 12.9929 42.2033 12.8981 41.9778 13.0262C41.931 13.0527 40.4441 13.3622 40.5364 13.2397ZM129.572 1.08896C129.446 0.87818 130.936 0.893807 131.053 0.936876C131.521 1.10792 129.688 1.03461 129.572 1.08896ZM152.748 0.32252C153.011 0.150064 153.76 0.229912 154.237 0.228444C154.021 0.374988 153.159 0.320979 152.748 0.32252ZM149.282 0.237309C149.312 0.230196 149.982 0.234717 150.012 0.242159C150.563 0.398896 148.668 0.387095 149.282 0.237309ZM6.22477 22.9659C6.2437 22.9533 6.72725 22.7932 6.74644 22.7933C7.22907 22.7948 5.7784 23.2742 6.22477 22.9659Z" fill="#B0FCAA"/>
</svg>
