<svg width="61" height="60" viewBox="0 0 61 60" fill="none" xmlns="http://www.w3.org/2000/svg">
<path d="M40.5 52.5C39.125 52.5 37.9483 52.0108 36.97 51.0325C35.9917 50.0542 35.5017 48.8767 35.5 47.5V37.5C35.5 36.125 35.99 34.9483 36.97 33.97C37.95 32.9917 39.1267 32.5017 40.5 32.5H50.5C51.875 32.5 53.0525 32.99 54.0325 33.97C55.0125 34.95 55.5017 36.1267 55.5 37.5V47.5C55.5 48.875 55.0108 50.0525 54.0325 51.0325C53.0542 52.0125 51.8767 52.5017 50.5 52.5H40.5ZM8.00001 45C7.29168 45 6.69834 44.76 6.22001 44.28C5.74168 43.8 5.50168 43.2067 5.50001 42.5C5.49834 41.7933 5.73834 41.2 6.22001 40.72C6.70168 40.24 7.29501 40 8.00001 40H25.5C26.2083 40 26.8025 40.24 27.2825 40.72C27.7625 41.2 28.0017 41.7933 28 42.5C27.9983 43.2067 27.7583 43.8008 27.28 44.2825C26.8017 44.7642 26.2083 45.0033 25.5 45H8.00001ZM40.5 27.5C39.125 27.5 37.9483 27.0108 36.97 26.0325C35.9917 25.0542 35.5017 23.8767 35.5 22.5V12.5C35.5 11.125 35.99 9.94833 36.97 8.97C37.95 7.99167 39.1267 7.50167 40.5 7.5H50.5C51.875 7.5 53.0525 7.99 54.0325 8.97C55.0125 9.95 55.5017 11.1267 55.5 12.5V22.5C55.5 23.875 55.0108 25.0525 54.0325 26.0325C53.0542 27.0125 51.8767 27.5017 50.5 27.5H40.5ZM8.00001 20C7.29168 20 6.69834 19.76 6.22001 19.28C5.74168 18.8 5.50168 18.2067 5.50001 17.5C5.49834 16.7933 5.73834 16.2 6.22001 15.72C6.70168 15.24 7.29501 15 8.00001 15H25.5C26.2083 15 26.8025 15.24 27.2825 15.72C27.7625 16.2 28.0017 16.7933 28 17.5C27.9983 18.2067 27.7583 18.8008 27.28 19.2825C26.8017 19.7642 26.2083 20.0033 25.5 20H8.00001Z" fill="url(#paint0_linear_235_278)"/>
<defs>
<linearGradient id="paint0_linear_235_278" x1="30.5" y1="7.5" x2="30.5" y2="52.5" gradientUnits="userSpaceOnUse">
<stop stop-color="#0383C2"/>
<stop offset="1" stop-color="#6BCE64"/>
</linearGradient>
</defs>
</svg>
