<svg width="61" height="60" viewBox="0 0 61 60" fill="none" xmlns="http://www.w3.org/2000/svg">
<path d="M8 50.1925V11.54C8 10.3883 8.38583 9.4275 9.1575 8.6575C9.92917 7.8875 10.8892 7.50167 12.0375 7.5H48.9625C50.1125 7.5 51.0725 7.88583 51.8425 8.6575C52.6125 9.42917 52.9983 10.39 53 11.54V38.4625C53 39.6125 52.6142 40.5733 51.8425 41.345C51.0708 42.1167 50.1108 42.5017 48.9625 42.5H15.6925L8 50.1925ZM24.2925 34.1825L30.5 30.4175L36.7075 34.1825L35.0575 27.12L40.5475 22.41L33.3325 21.77L30.5 15.145L27.6675 21.77L20.4525 22.41L25.9425 27.12L24.2925 34.1825Z" fill="url(#paint0_linear_235_281)"/>
<defs>
<linearGradient id="paint0_linear_235_281" x1="30.5" y1="7.5" x2="30.5" y2="50.1925" gradientUnits="userSpaceOnUse">
<stop stop-color="#0383C2"/>
<stop offset="1" stop-color="#6BCE64"/>
</linearGradient>
</defs>
</svg>
