<svg width="61" height="60" viewBox="0 0 61 60" fill="none" xmlns="http://www.w3.org/2000/svg">
<path fill-rule="evenodd" clip-rule="evenodd" d="M13 10C11.0109 10 9.10322 10.7902 7.6967 12.1967C6.29018 13.6032 5.5 15.5109 5.5 17.5V20H55.5V17.5C55.5 15.5109 54.7098 13.6032 53.3033 12.1967C51.8968 10.7902 49.9891 10 48 10H13ZM55.5 25H5.5V42.5C5.5 44.4891 6.29018 46.3968 7.6967 47.8033C9.10322 49.2098 11.0109 50 13 50H48C49.9891 50 51.8968 49.2098 53.3033 47.8033C54.7098 46.3968 55.5 44.4891 55.5 42.5V25ZM20.5 37.5C20.5 36.837 20.7634 36.2011 21.2322 35.7322C21.7011 35.2634 22.337 35 23 35H34.035L33.7325 34.6975C33.2634 34.2287 32.9997 33.5928 32.9995 32.9296C32.9993 32.2665 33.2625 31.6304 33.7312 31.1613C34.2 30.6922 34.8359 30.4285 35.4991 30.4282C36.1623 30.428 36.7984 30.6912 37.2675 31.16L41.8375 35.7325C42.3062 36.2013 42.5695 36.8371 42.5695 37.5C42.5695 38.1629 42.3062 38.7987 41.8375 39.2675L37.2675 43.8375C37.0369 44.0763 36.761 44.2667 36.456 44.3978C36.151 44.5288 35.823 44.5977 35.491 44.6006C35.1591 44.6035 34.8299 44.5403 34.5226 44.4146C34.2154 44.2889 33.9362 44.1032 33.7015 43.8685C33.4668 43.6338 33.2811 43.3546 33.1554 43.0474C33.0297 42.7401 32.9665 42.4109 32.9694 42.079C32.9723 41.747 33.0412 41.419 33.1722 41.114C33.3033 40.809 33.4937 40.5331 33.7325 40.3025L34.035 40H23C22.337 40 21.7011 39.7366 21.2322 39.2678C20.7634 38.7989 20.5 38.163 20.5 37.5Z" fill="url(#paint0_linear_235_267)"/>
<defs>
<linearGradient id="paint0_linear_235_267" x1="30.5" y1="10" x2="30.5" y2="50" gradientUnits="userSpaceOnUse">
<stop stop-color="#0383C2"/>
<stop offset="1" stop-color="#6BCE64"/>
</linearGradient>
</defs>
</svg>
