<svg width="36" height="36" viewBox="0 0 36 36" fill="none" xmlns="http://www.w3.org/2000/svg">
<g clip-path="url(#clip0_40_208)">
<path fill-rule="evenodd" clip-rule="evenodd" d="M18.3274 8.03722C18.9027 8.03722 19.4545 7.80869 19.8612 7.4019C20.268 6.99512 20.4966 6.44339 20.4966 5.86811C20.4966 5.29282 20.268 4.7411 19.8612 4.33431C19.4545 3.92752 18.9027 3.69899 18.3274 3.69899C17.7522 3.69899 17.2004 3.92752 16.7936 4.33431C16.3869 4.7411 16.1583 5.29282 16.1583 5.86811C16.1583 6.44339 16.3869 6.99512 16.7936 7.4019C17.2004 7.80869 17.7522 8.03722 18.3274 8.03722ZM18.3274 0.445313C19.5776 0.445057 20.7894 0.876732 21.7578 1.66728C22.7262 2.45782 23.3918 3.55869 23.6418 4.78355H29.173C29.7483 4.78355 30.3 5.01208 30.7068 5.41887C31.1136 5.82566 31.3421 6.37738 31.3421 6.95267V32.9821C31.3421 33.5574 31.1136 34.1091 30.7068 34.5159C30.3 34.9227 29.7483 35.1512 29.173 35.1512H7.48186C6.90658 35.1512 6.35485 34.9227 5.94806 34.5159C5.54128 34.1091 5.31274 33.5574 5.31274 32.9821V6.95267C5.31274 6.37738 5.54128 5.82566 5.94806 5.41887C6.35485 5.01208 6.90658 4.78355 7.48186 4.78355H13.0131C13.2631 3.55869 13.9287 2.45782 14.8971 1.66728C15.8655 0.876732 17.0773 0.445057 18.3274 0.445313ZM16.1583 11.2909H23.7502V8.03722H28.0885V31.8975H8.56642V8.03722H12.9047V11.2909H16.1583ZM23.8153 18.4056C23.9751 18.2567 24.1033 18.0771 24.1923 17.8775C24.2812 17.678 24.329 17.4625 24.3328 17.2441C24.3367 17.0257 24.2965 16.8087 24.2147 16.6061C24.1329 16.4035 24.0111 16.2195 23.8566 16.065C23.7021 15.9106 23.5181 15.7888 23.3155 15.707C23.113 15.6251 22.896 15.585 22.6776 15.5888C22.4591 15.5927 22.2437 15.6405 22.0441 15.7294C21.8446 15.8183 21.665 15.9465 21.516 16.1063L17.2429 20.3795L16.2234 19.36C15.915 19.0727 15.5071 18.9162 15.0857 18.9236C14.6642 18.9311 14.2621 19.1018 13.964 19.3999C13.6659 19.6979 13.4952 20.1001 13.4878 20.5215C13.4803 20.943 13.6368 21.3509 13.9241 21.6593L16.0933 23.8284C16.3983 24.1331 16.8118 24.3042 17.2429 24.3042C17.674 24.3042 18.0875 24.1331 18.3925 23.8284L23.8153 18.4056Z" fill="url(#paint0_linear_40_208)"/>
</g>
<defs>
<linearGradient id="paint0_linear_40_208" x1="18.3274" y1="0.445312" x2="18.3274" y2="35.1512" gradientUnits="userSpaceOnUse">
<stop stop-color="#0383C2"/>
<stop offset="1" stop-color="#6BCE64"/>
</linearGradient>
<clipPath id="clip0_40_208">
<rect width="34.7059" height="34.7059" fill="white" transform="translate(0.974609 0.445312)"/>
</clipPath>
</defs>
</svg>
