<svg width="61" height="60" viewBox="0 0 61 60" fill="none" xmlns="http://www.w3.org/2000/svg">
<path d="M30.5001 5C29.2836 5 28.0826 5.27231 26.9851 5.79695C26.0201 6.25945 25.1326 7.01445 23.9076 8.05945L23.7126 8.22445C23.1176 8.73195 22.9301 8.88695 22.7426 9.01445C22.2601 9.33695 21.7176 9.56195 21.1476 9.67445C20.7341 9.7378 20.3178 9.78035 19.9001 9.80195L19.6476 9.82195C18.0426 9.94945 16.8826 10.042 15.8726 10.397C14.7244 10.8019 13.6815 11.459 12.8206 12.32C11.9596 13.1809 11.3025 14.2238 10.8976 15.372C10.5426 16.382 10.4501 17.542 10.3226 19.147L10.3026 19.3995C10.2426 20.1795 10.2201 20.422 10.1751 20.647C10.0626 21.217 9.84005 21.7595 9.51505 22.242C9.26807 22.5783 9.00441 22.902 8.72505 23.212L8.56005 23.407L8.52852 23.444C7.49985 24.6523 6.75539 25.5267 6.29755 26.4845C5.77252 27.5823 5.5 28.7838 5.5 30.0007C5.5 31.2176 5.77252 32.4191 6.29755 33.517C6.76 34.4819 7.51489 35.3668 8.55972 36.5916L8.56005 36.592L8.72505 36.7845C9.00454 37.096 9.26821 37.4214 9.51505 37.7595C9.83562 38.2428 10.0597 38.7836 10.1751 39.352C10.2384 39.7654 10.281 40.1817 10.3026 40.5995L10.3226 40.852C10.4501 42.457 10.5426 43.617 10.8976 44.627C11.3029 45.7747 11.9601 46.8171 12.821 47.6775C13.6819 48.538 14.7246 49.1947 15.8726 49.5995C16.8826 49.957 18.0426 50.0495 19.6476 50.1745L19.9001 50.197C20.3178 50.2186 20.7341 50.2611 21.1476 50.3245C21.7168 50.4395 22.2585 50.6636 22.7426 50.9845C23.0789 51.2314 23.4026 51.4951 23.7126 51.7745L23.9076 51.9395L23.9266 51.9557C25.1442 52.9948 26.0226 53.7443 26.9851 54.202C28.0829 54.727 29.2844 54.9995 30.5013 54.9995C31.7182 54.9995 32.9197 54.727 34.0176 54.202C34.9826 53.7395 35.8676 52.987 37.0926 51.9395L37.2851 51.7745C37.5966 51.495 37.922 51.2313 38.2601 50.9845C38.7434 50.6639 39.2841 50.4398 39.8526 50.3245C40.266 50.2611 40.6823 50.2186 41.1001 50.197L41.3526 50.177L41.4203 50.1715H41.4204C42.9903 50.0444 44.1318 49.9519 45.1276 49.602C46.2753 49.1967 47.3177 48.5394 48.1781 47.6785C49.0386 46.8176 49.6953 45.7749 50.1001 44.627C50.4576 43.617 50.5501 42.457 50.6751 40.852L50.6976 40.5995C50.7601 39.8195 50.7801 39.577 50.8251 39.352C50.9375 38.7845 51.16 38.242 51.4851 37.7595C51.732 37.4223 51.9956 37.0977 52.2751 36.787L52.44 36.592L52.4563 36.5729C53.4954 35.3553 54.2449 34.4769 54.7026 33.5145C55.7651 31.292 55.7651 28.707 54.7026 26.482C54.2401 25.517 53.4875 24.632 52.44 23.407L52.2751 23.212C51.7676 22.617 51.6125 22.4295 51.4851 22.242C51.1626 21.7595 50.9375 21.217 50.8251 20.647C50.7801 20.4245 50.7576 20.1795 50.6976 19.3995L50.6776 19.147L50.6721 19.0792L50.6721 19.0791C50.545 17.5091 50.4525 16.3677 50.1026 15.372C49.696 14.2246 49.0383 13.1826 48.1776 12.3219C47.3169 11.4612 46.2749 10.8035 45.1276 10.397C44.1176 10.042 42.9576 9.94945 41.3526 9.82195L41.1001 9.80195C40.3201 9.74195 40.0776 9.71945 39.8526 9.67445C39.2851 9.56195 38.7426 9.33945 38.2601 9.01445C38.0701 8.88695 37.8826 8.73195 37.2876 8.22445L37.0926 8.05945L37.0555 8.02792L37.0555 8.0279C35.8472 6.99924 34.9728 6.25479 34.0151 5.79695C32.9175 5.27231 31.7165 5 30.5001 5Z" fill="url(#paint0_linear_235_195)"/>
<path d="M43 21L26.5 38.5L18.5 32" stroke="white" stroke-width="4" stroke-linecap="round" stroke-linejoin="round"/>
<defs>
<linearGradient id="paint0_linear_235_195" x1="30.4997" y1="5" x2="30.4997" y2="54.9995" gradientUnits="userSpaceOnUse">
<stop stop-color="#0383C2"/>
<stop offset="1" stop-color="#6BCE64"/>
</linearGradient>
</defs>
</svg>
