<svg width="31" height="29" viewBox="0 0 31 29" fill="none" xmlns="http://www.w3.org/2000/svg">
<path d="M14.8723 1.22954C15.1716 0.308233 16.475 0.308232 16.7744 1.22954L19.6061 9.94468C19.74 10.3567 20.1239 10.6357 20.5572 10.6357H29.7208C30.6895 10.6357 31.0923 11.8753 30.3086 12.4447L22.8951 17.8309C22.5446 18.0856 22.3979 18.5369 22.5318 18.949L25.3635 27.6641C25.6629 28.5854 24.6084 29.3515 23.8247 28.7821L16.4111 23.3959C16.0606 23.1412 15.586 23.1412 15.2356 23.3959L7.82202 28.7821C7.03831 29.3515 5.98382 28.5854 6.28318 27.6641L9.1149 18.949C9.24877 18.5369 9.10211 18.0856 8.75163 17.8309L1.33809 12.4447C0.554372 11.8753 0.957147 10.6357 1.92587 10.6357H11.0895C11.5227 10.6357 11.9067 10.3567 12.0406 9.94468L14.8723 1.22954Z" fill="url(#paint0_linear_40_212)"/>
<defs>
<linearGradient id="paint0_linear_40_212" x1="15.8233" y1="-1.69751" x2="15.8233" y2="34" gradientUnits="userSpaceOnUse">
<stop stop-color="#0383C2"/>
<stop offset="1" stop-color="#6BCE64"/>
</linearGradient>
</defs>
</svg>
