<svg width="65" height="65" viewBox="0 0 65 65" fill="none" xmlns="http://www.w3.org/2000/svg">
<g clip-path="url(#clip0_31_28)">
<path d="M43.1437 50.2125C42.8732 49.549 42.3508 49.0196 41.6909 48.7405C41.031 48.4613 40.2874 48.455 39.6228 48.7229C35.0595 50.5507 29.9675 50.5507 25.4041 48.7229C25.0751 48.5878 24.7227 48.5187 24.367 48.5198C24.0114 48.5208 23.6594 48.5919 23.3312 48.7289C23.003 48.866 22.705 49.0664 22.4543 49.3186C22.2035 49.5708 22.0049 49.87 21.8697 50.199C21.7346 50.528 21.6655 50.8803 21.6666 51.236C21.6676 51.5917 21.7387 51.9436 21.8757 52.2718C22.0128 52.6 22.2132 52.898 22.4654 53.1488C22.7176 53.3996 23.0168 53.5982 23.3458 53.7333C29.2167 56.1123 35.7832 56.1123 41.6541 53.7333C42.3176 53.4629 42.8469 52.9405 43.1261 52.2806C43.4053 51.6207 43.4116 50.877 43.1437 50.2125ZM43.1708 15.4646C45.726 17.2046 47.8169 19.5431 49.2614 22.2763C50.7059 25.0095 51.4601 28.0544 51.4583 31.1458C51.4521 31.942 51.4069 32.7374 51.3228 33.5292C51.2802 33.8848 51.3079 34.2454 51.4046 34.5903C51.5013 34.9353 51.665 35.2578 51.8863 35.5394C52.1076 35.8211 52.3822 36.0564 52.6945 36.232C53.0067 36.4075 53.3505 36.5198 53.7062 36.5625C54.0618 36.6052 54.4224 36.5774 54.7673 36.4807C55.1123 36.384 55.4348 36.2204 55.7164 35.9991C55.9981 35.7777 56.2334 35.5031 56.409 35.1909C56.5845 34.8786 56.6968 34.5348 56.7395 34.1792C56.8555 33.1725 56.9008 32.1589 56.8749 31.1458C56.8767 27.1742 55.9079 23.2622 54.0528 19.7504C52.1978 16.2386 49.5127 13.2332 46.2312 10.9958C45.9379 10.7897 45.6067 10.6438 45.2566 10.5666C44.9066 10.4895 44.5447 10.4826 44.1919 10.5463C43.8392 10.6101 43.5026 10.7432 43.2017 10.938C42.9008 11.1328 42.6416 11.3854 42.4391 11.6811C42.2365 11.9769 42.0947 12.3099 42.0218 12.6609C41.9489 13.0118 41.9465 13.3738 42.0145 13.7257C42.0826 14.0777 42.2198 14.4126 42.4183 14.7111C42.6168 15.0096 42.8725 15.2657 43.1708 15.4646ZM11.3208 36.5354C12.031 36.4473 12.6776 36.0817 13.1191 35.5184C13.5606 34.9551 13.7612 34.2399 13.677 33.5292C13.6381 32.7352 13.6381 31.9398 13.677 31.1458C13.6601 28.0665 14.3936 25.0294 15.8139 22.2971C17.2343 19.5649 19.2989 17.2198 21.8291 15.4646C22.1273 15.2657 22.383 15.0096 22.5815 14.7111C22.78 14.4126 22.9172 14.0777 22.9853 13.7257C23.0534 13.3738 23.0509 13.0118 22.978 12.6609C22.9051 12.3099 22.7633 11.9769 22.5608 11.6811C22.3582 11.3854 22.099 11.1328 21.7981 10.938C21.4972 10.7432 21.1606 10.6101 20.8079 10.5463C20.4551 10.4826 20.0933 10.4895 19.7432 10.5666C19.3932 10.6438 19.0619 10.7897 18.7687 10.9958C15.4872 13.2332 12.8021 16.2386 10.947 19.7504C9.09198 23.2622 8.12318 27.1742 8.12492 31.1458C8.11703 32.1601 8.18038 33.1737 8.3145 34.1792C8.40258 34.8894 8.76822 35.536 9.33153 35.9775C9.89484 36.419 10.61 36.6196 11.3208 36.5354ZM42.4395 25.7292C42.5424 25.7324 42.6446 25.7121 42.7385 25.6699C42.8324 25.6276 42.9153 25.5645 42.9812 25.4854C43.0416 25.405 43.0849 25.313 43.1082 25.2152C43.1315 25.1173 43.1343 25.0157 43.1166 24.9167C42.5694 22.4826 41.2107 20.307 39.2637 18.7472C37.3168 17.1873 34.8972 16.3358 32.4024 16.3327C29.9076 16.3295 27.4859 17.1749 25.535 18.7298C23.5841 20.2848 22.2199 22.4569 21.6666 24.8896C21.6211 24.9823 21.5975 25.0842 21.5975 25.1875C21.5975 25.2908 21.6211 25.3927 21.6666 25.4854C21.7999 25.6304 21.9845 25.7178 22.1812 25.7292H42.4395ZM25.7291 6.77083C25.7291 8.56657 26.4424 10.2888 27.7122 11.5585C28.982 12.8283 30.7042 13.5417 32.4999 13.5417C34.2957 13.5417 36.0178 12.8283 37.2876 11.5585C38.5574 10.2888 39.2708 8.56657 39.2708 6.77083C39.2708 4.9751 38.5574 3.25291 37.2876 1.98313C36.0178 0.713354 34.2957 0 32.4999 0C30.7042 0 28.982 0.713354 27.7122 1.98313C26.4424 3.25291 25.7291 4.9751 25.7291 6.77083ZM54.1666 55.5208C51.64 55.5009 49.1836 56.3516 47.2106 57.93C45.2376 59.5084 43.8684 61.7182 43.3333 64.1875C43.3134 64.2848 43.3151 64.3852 43.3384 64.4818C43.3617 64.5783 43.4059 64.6685 43.4679 64.746C43.5299 64.8236 43.6082 64.8865 43.6973 64.9304C43.7864 64.9743 43.884 64.998 43.9832 65H64.1874C64.3923 64.99 64.5858 64.903 64.7291 64.7563C64.7693 64.6621 64.7901 64.5607 64.7901 64.4583C64.7901 64.3559 64.7693 64.2546 64.7291 64.1604C64.1987 61.7413 62.8672 59.572 60.9501 58.0039C59.0331 56.4359 56.6429 55.561 54.1666 55.5208ZM47.477 46.0417C47.477 47.8374 48.1904 49.5596 49.4601 50.8294C50.7299 52.0991 52.4521 52.8125 54.2478 52.8125C56.0436 52.8125 57.7658 52.0991 59.0355 50.8294C60.3053 49.5596 61.0187 47.8374 61.0187 46.0417C61.0187 44.2459 60.3053 42.5237 59.0355 41.254C57.7658 39.9842 56.0436 39.2708 54.2478 39.2708C52.4521 39.2708 50.7299 39.9842 49.4601 41.254C48.1904 42.5237 47.477 44.2459 47.477 46.0417ZM10.8333 55.5208C8.30666 55.5009 5.85027 56.3516 3.87727 57.93C1.90427 59.5084 0.535045 61.7182 -8.25413e-05 64.1875C-0.0396316 64.2771 -0.0600586 64.3739 -0.0600586 64.4719C-0.0600586 64.5698 -0.0396316 64.6667 -8.25413e-05 64.7563C0.0873229 64.8834 0.215511 64.9768 0.363265 65.0211C0.511019 65.0655 0.669479 65.058 0.812418 65H20.9895C21.0939 65.0031 21.1976 64.9819 21.2925 64.9383C21.3874 64.8946 21.4708 64.8296 21.5364 64.7483C21.602 64.6669 21.6479 64.5716 21.6704 64.4696C21.693 64.3676 21.6917 64.2618 21.6666 64.1604C21.1214 61.6984 19.7486 59.4978 17.7772 57.9256C15.8057 56.3533 13.3548 55.5046 10.8333 55.5208ZM4.252 46.0417C4.252 47.8374 4.96535 49.5596 6.23513 50.8294C7.50491 52.0991 9.2271 52.8125 11.0228 52.8125C12.8186 52.8125 14.5408 52.0991 15.8105 50.8294C17.0803 49.5596 17.7937 47.8374 17.7937 46.0417C17.7937 44.2459 17.0803 42.5237 15.8105 41.254C14.5408 39.9842 12.8186 39.2708 11.0228 39.2708C9.2271 39.2708 7.50491 39.9842 6.23513 41.254C4.96535 42.5237 4.252 44.2459 4.252 46.0417Z" fill="url(#paint0_linear_31_28)"/>
</g>
<defs>
<linearGradient id="paint0_linear_31_28" x1="32.365" y1="0" x2="32.365" y2="65.0497" gradientUnits="userSpaceOnUse">
<stop stop-color="#0383C2"/>
<stop offset="1" stop-color="#6BCE64"/>
</linearGradient>
<clipPath id="clip0_31_28">
<rect width="65" height="65" fill="white"/>
</clipPath>
</defs>
</svg>
