<svg version="1.2" xmlns="http://www.w3.org/2000/svg" viewBox="0 0 217 37" width="217" height="37">
	<style>
		.s0 { fill: #0383c2 } 
	</style>
	<path class="s0" d="m38.93 13.61q-0.27 0.15-0.54 0.29c0.55-0.09 1.28-0.31 1.79-0.38 0.09-0.01-0.09 0.19 0.1 0.15 0.2-0.03 0.11-0.23 0.39-0.32 0.32-0.1 1.81-0.29 2.32-0.41 1.88-0.44 3.77-0.97 5.69-1.29-1.94 0.57 0.08 0.3 0.61 0.12 0.11-0.04 0.02-0.42 2-0.73 1.27-0.2 0.23 0.58 2.25-0.11-1.68-0.06-0.09-0.36 1.16-0.62 0.22-0.04 1.98-0.33 2.76-0.5 0.26-0.05 0.62-0.33 0.98-0.4 0.24-0.05 0.44 0.02 0.8-0.05q2.49-0.52 5.01-0.92c-0.89 0.69 0.81 0.09 0.89 0.1 0.43 0.07-1.38 0.43-0.65 0.39q1.5-0.29 3-0.58c-0.83 0.08 1.01-0.62 1.39-0.51-0.22-0.44 4.64-0.36 5.34-0.62 0.14-0.06-0.88-0.13 1.42-0.38 0.25-0.03 0.18 0.12 0.3 0.09 0.08-0.02 0.48-0.53 1.02-0.37 0.19 0.07-0.93 0.53 1.62 0.03-1.09-0.3 3.52-0.77 4.38-0.78q-0.26-0.05-0.53-0.1c0.86 0.04 0.99-0.13 1.18-0.15 0.76-0.08 1.82-0.06 2.53-0.17 0.82-0.13 0.78-0.41 1.76-0.43q-0.35-0.05-0.71-0.09 1.01-0.11 2.01-0.22c-1.5 0.57 0.33-0.03 0.46-0.05 0.19-0.04-0.07 0.15 0.25 0.09 0.04-0.01-0.03-0.14 0.48-0.22 1.06-0.17 0.91 0.03 1.36-0.03 0.04 0-0.12-0.11 0.64-0.24 2.44-0.39 0 0.1-0.09 0.13-0.12 0.04 0.79 0.47-1.31 0.54 0.7-0.03 0.8 0.2 0.88 0.2 0.07-0.01 1.27-0.19 1.34-0.2 0.58-0.16 0.04-0.26 0.15-0.3 0.1-0.03 1.58 0.01 1.86-0.52 0.76 0.37-0.35 0.45-1.51 0.66-0.16 0.11 1.13 0.05 1.2 0.04 1.66-0.19 0.7-0.45 1.03-0.73 0.18-0.15 0.88 0.03 0.22-0.23 1.51-0.21 0.61 0.09 0.71 0.1 0.16 0.03 0.67-0.13 0.74-0.12 0.1 0.01-0.22 0.16 0.16 0.16 0.06 0 0.66-0.27-0.15-0.28 1.07-0.08 0.96-0.24 1.36 0.06 0.5-0.56 0.57-0.07 0.7 0.19q0.06 0.13 0.16 0.14c0.78 0.01 0.5-0.47 0.54-0.5 0.26-0.19 2.4-0.23 2.92-0.36-0.17 0.39-1.68 0.18-2.01 0.28-1.07 0.35 1.57 0.03 0.82 0.57q0.48-0.24 0.96-0.48c0.65 0.23-0.21 0.45 1.43 0.18 0.24-0.28-1.17 0.15-0.9-0.08 0.16-0.13 1.12-0.25 1.13-0.31 0.01-0.08-0.85 0.09-0.72-0.04 0.27-0.28 3.45-0.34 1.06 0.03 0.67-0.07 1.06 0.39 1.63 0.18 0.36-0.13-1.81-0.62 1.37-0.78 0.09 0.22-1.26 0.18-1.3 0.2-0.04 0.03 0.25 0.53 0.29 0.56 0.16 0.07 3.37-0.5 4.07-0.29-0.29-0.28 2.44-0.25 2.73-0.37 0.08-0.03-0.23-0.19-0.15-0.22 0.51-0.16 1.96 0.07 2.62 0.03 0.74-0.05 0.63-0.2 0.67-0.2 0.33-0.02 0.08 0.11 0.28 0.1 0.3-0.03 2.35-0.15 2.46-0.17 0.03-0.01-0.32-0.18 0.12-0.24 0.08-0.01 0.05 0.21 1.37 0.03 1.59-0.22-1.13-0.2-0.48-0.47 1.05 0.26 1-0.06 1.28-0.06 0.1 0.01 0.83 0.24 1.61 0.17q-0.83 0.12-1.67 0.24c0.55 0.01 1.62-0.11 2.07-0.08 0.23 0.01 0.06 0.24 0.54 0.21 0.1-0.01 0.48-0.58-0.77-0.26-0.12-0.19 0.49-0.1 0.77-0.17 0.04-0.01 0.19-0.35 0.55-0.17 0.09 0.05-0.78 1.06 1.57 0.23 0.08-0.03-0.2-0.13-0.12-0.16 0.05-0.02 0.66 0 0.73-0.02 0.07-0.03-0.23-0.14-0.15-0.17 0.41-0.16 0.99 0.33 0.12 0.34q0.44 0.07 0.88 0.15c-0.33-0.38 0.45-0.14 0.85-0.17 2.57-0.21 0.84-0.37 1.27-0.53 0.71-0.24 0.2 0.45 1.24 0.2 0.1-0.02-1.19-0.25 1.31-0.2q-0.55 0.04-1.1 0.08c0.23 0.37 1.33-0.08 1.42-0.09 0.98-0.1 0.32 0.07 1.76-0.19 0.13-0.02 0.42 0.06 0.7 0 1.15-0.23-1.53-0.05-1.61-0.2-0.04-0.08 2.84-0.17 2.94-0.14 0.43 0.14-1.3 0.12-0.96 0.3 0.11 0.07 4.22-0.22 5.04-0.17 0.96 0.06 1.39 0.56 1.39-0.01 0.28 0.55 0.5 0.16 0.63 0.16 1.47 0.01 1.46 0.02 2.73-0.06 0.28-0.02 0.51 0.15 0.61 0.11 0.06-0.01-0.05-0.2 0.22-0.26 0.4-0.09 2.74 0.06 2.92 0.16 0.17 0.1-0.99 0.06-0.78 0.22 0.85 0.01 1.64-0.05 2.5-0.04 0.35 0 0.17 0.12 0.32 0.12 0.07 0 1.27-0.12 1.23-0.16-0.13-0.1-3.88 0.02-2.89-0.2 0.19-0.04 0.86 0.22 0.75-0.11q5.04 0.04 10.07 0.17c-1.93 0.24-4.1 0.02-6.12 0.06-0.28 0.01-1.2-0.02-1.09 0.15 1.71 0.02 3.84-0.07 5.5 0.04 0.05 0-0.14 0.15 0.05 0.17 0.37 0.05 1.58-0.19 1.78-0.13 0.03 0.02-0.65 0.21-0.44 0.34 0.53 0.32 0.67-0.39 1.12-0.38 0.36 0.01 2.75 0.37 3.34 0.17q0.06-0.02 0.09-0.04 0.04-0.03 0-0.06c-0.21-0.11-1.81-0.09-1.67-0.24q0.85-0.09 1.67-0.07c1.08 0.02 2.13 0.12 3.13 0.12 0.03 0-0.2-0.15 0.14-0.16 0.6-0.03 0.75 0.19 1.04 0.23 0.3 0.04 1.42 0.04 1.57 0.12 0.01 0.01-0.21 0.21-0.25 0.22-0.48 0.07-0.65-0.2-0.69-0.21-0.17-0.01-0.33 0.09-0.48 0.08-0.25-0.02-0.38-0.12-0.71-0.13-0.22-0.01-0.01 0.17-0.23 0.16-0.08-0.01-0.93-0.44-1.01-0.01-0.04 0.12 6.99 0.47 7.7 0.41q-0.9-0.11-1.81-0.22c1.22 0.17 2.71-0.12 2.8 0.39q6.8 0.33 13.65 0.98c0.81 0.12 0.33 0.4 1.68 0.43q-0.5-0.2-1.01-0.4c0.68 0.13 3.71 0.57 4.21 0.56 0.07 0 0.19-0.28 0.95-0.22 0.68 0.05 0.76 0.28 1.12 0.37 0.3 0.07 0.64 0.05 0.73 0.08 0.07 0.01 0.08 0.15 0.24 0.19 0.51 0.14 0.14-0.29 0.6 0.21q-0.19 0-0.38 0c0.62 0.14 1.46 0.45 0.52 0.43-0.16-0.01-0.01-0.12-0.13-0.13-4.66-0.54-0.97 0.15 0.68 0.16 0.12 0.07 0.44 0.14 0.8 0.21 0.03 0 0.11 0.01 0.14 0.02 0.84 0.16 2.01 0.31 2.06 0.35 0.1 0.07-0.33 0.15 0.18 0.38 0.1 0.03 3.34 0.55 2.13 0.58-0.26 0-1.78-0.35-2.15-0.4 0.79 0.55 2.95 0.38 3.18 0.45 0.93 0.26-1.87-0.03 0.23 0.46 1.62 0.4 0.15-0.21 0.8-0.18 0.37 0.01 2.18 0.79 2.24 0.41 0.67 0.14 0.23 0.23 0.31 0.27 0.07 0.03 1.42 0.32 1.85 0.57 0.05 0.02-0.19 0.16-0.14 0.19 0.09 0.05 1.43 0.53 1.5 0.55 0.04 0-0.21-0.3-0.07-0.28 0.18 0 1.49 0.66 1.59 0.67 0.14-0.03-1.54-0.76-1.18-0.81 0.68 0.34 1.87 0.83 2.49 1.06l-0.14-0.09q0.04 0.01 0.08 0.01-0.02 0-0.07-0.02l0.14 0.09c-0.27-0.14-0.8-0.44-1-0.56 0.15-0.11 0.77 0.15 1.1 0.38l-0.14-0.09c0.12 0.09 0.17 0.17 0.01 0.2 0.23-0.02 0.14-0.14 0.29-0.19 0.04-0.01 0.26 0.1 0.32 0.07 0.01 0-0.16-0.22-0.08-0.25 0.06-0.02 0.24 0.05 0.42 0.13 0.17 0.07 0.43 0.2 0.47 0.23 0.11 0.09-0.08 0.06-0.26 0.03-0.18-0.02-0.34-0.04-0.39 0.01 0 0.01 0.07 0.12 0.19 0.24 0.11 0.12 0.28 0.26 0.28 0.27-0.03 0.11-0.23 0.04-0.38-0.01-0.15-0.05-0.27-0.09-0.28 0.01q0.16 0.15 0.43 0.33c-0.52-0.08-0.9-0.24-1.37-0.47l0.13 0.08c-0.51-0.28-0.97-0.48-1.22-0.5q0.61 0.28 1.16 0.61l-0.13-0.07c0.62 0.35 1.02 0.62 0.9 1-0.1 0.21-0.55 0.15-0.55 0.21-0.05 0.21 0.63 0.26 0.68 0.29q0.03 0.04 0.02 0.05c-0.02 0.06-0.3-0.01-0.53-0.06-0.22-0.05-0.43-0.11-0.46-0.1-0.11 0.06 0.06 0.58 0.03 0.66-0.02 0.01-0.63-0.18-0.51 0.05 0.12 0.24 0.66 0.48 0.68 0.51 0.05 0.13-0.91-0.22-0.96-0.2-0.03 0.02 0.39 0.42 0.39 0.47-0.01 0.05-0.44-0.04-0.66 0.02-0.17 0.04 0.12 0.29 0.06 0.28-0.03-0.01-0.41-0.2-0.7-0.36l0.05 0.03c-0.21-0.12-0.38-0.22-0.41-0.22-0.1-0.02 0.1 0.25 0.04 0.26-0.07 0.01-0.41-0.24-0.39-0.17 0.01 0.03 0.25 0.28 0.49 0.57l-0.03-0.02c0.25 0.32 0.54 0.66 0.51 0.72-0.11 0.2-1.19-0.96-0.37 0.46 0.01 0.01 0.34 0.11 0.35 0.12 0.13 0.23-1-0.04 0.27 0.51-2.43-0.89-0.44 0.16-0.94 0.32-0.13 0.04-0.59-0.14-0.88-0.27q-0.02 0-0.03-0.01c-0.13-0.06-0.24-0.11-0.24-0.1-0.01 0.1 0.08 0.16 0.17 0.21q0.02 0.01 0.03 0.02c0.09 0.05 0.18 0.09 0.21 0.15 0.01 0.03-0.12 0-0.28-0.03q-0.01-0.01-0.03-0.02c-0.21-0.04-0.49-0.08-0.43 0.04 0.02 0.04 0.14 0.12 0.28 0.21q0.02 0.01 0.04 0.02c0.27 0.17 0.63 0.36 0.65 0.37 0.32 0.29-0.19 0.17-0.15 0.29 0.03 0.08 0.61 0.36 0.62 0.38 0.01 0.03-0.87-0.15-1.07-0.18-0.15-0.01 0.27 0.32 0.17 0.3-0.22-0.05-0.49-0.22-0.68-0.35q-0.03-0.02-0.06-0.04c-0.23-0.16-0.34-0.26-0.12 0.2 0.01 0.01 0.05 0.03 0.06 0.04q0.04 0.06 0.09 0.12c0.04 0.07 0.46 0.28 0.47 0.29 0.17 0.26-0.51-0.08-0.74-0.08-0.01-0.01-0.06-0.04-0.08-0.05q-0.01 0-0.02 0.01-0.1 0.04-0.05 0.11c0.02 0.01 0.07 0.03 0.08 0.04 0.13 0.15 0.54 0.34-0.06 0.11-0.02-0.01-0.07-0.03-0.08-0.04q-0.03-0.01-0.06-0.02 0.02 0.02 0.04 0.04c0.02 0.01 0.07 0.04 0.09 0.05 0.55 0.46 0.99 0.69 1.81 1-0.89-0.33-1.61-0.62-1.99-0.69-0.02-0.02-0.07-0.05-0.09-0.06-0.27-0.02-0.35 0.08-0.17 0.28 0.01 0.02 0.08 0.05 0.1 0.06 0.21 0.18 0.62 0.45 1.29 0.77-0.86-0.43-0.91-0.1-1.16-0.23-0.05-0.02-0.17-0.12-0.31-0.23-0.02-0.01-0.09-0.05-0.11-0.06-0.17-0.17-0.42-0.31-0.47 0.25-0.01 0.06 0.13 0.12 0.21 0.18 0.02 0.02 0.1 0.06 0.12 0.07 0.12 0.08 0.19 0.15 0.05 0.16q-0.05-0.03-0.1-0.06c-0.03-0.02-0.11-0.06-0.13-0.08-0.67-0.42-0.19-0.01-0.07 0.12 0.03 0.01 0.11 0.06 0.13 0.07q0.06 0.05 0.06 0.06-0.02 0.03-0.11 0.03c-0.02-0.02-0.1-0.06-0.13-0.08-0.22 0.04-0.68-0.24-1.31-0.53-0.61-0.29-1.39-0.6-1.64-0.65-0.63-0.13-1.3 0.05-1.44 0.01-0.47-0.11-0.04-0.18-0.13-0.27-0.09-0.09-1.55-0.09-1.62-0.12-0.26-0.13 0.07-0.27 0.04-0.29-0.31-0.2-2.28-0.42-2.83-0.56 0 0.13 1.1 0.34 0.37 0.43-0.85 0.1-0.8-0.48-0.81-0.51q-0.86-0.15-1.74-0.29l0.15 0.02q-4.87-0.63-9.76-1.05c0.03 0.31 2.56 0.31 2.61 0.36 0.32 0.27-3.94-0.12-4.45-0.26q0.59 0.14 1.18 0.29c-0.71 0.3-2.18-0.28-3.17-0.19-0.32 0.03 0.28 0.21 0.27 0.22-0.37 0.11-0.93-0.04-0.49-0.19-0.88 0.12-0.75-0.07-1.41-0.13-0.04 0 0.24 0.16-0.29 0.18-0.26 0.01-1.58-0.07-1.76 0.05-0.08 0.05 0.56 0.65 0.68 0.17 1.41 0.32 0.47-0.19 1.03-0.14 0.08 0.01-0.14 0.26 1.28 0.23-0.3 0.46-1.9-0.01-2.17 0.04-0.58 0.08 1.75 0.48 2.21 0.13-0.22 0.37 0.16 0.07 0.69 0.12 0.57 0.06 0.31 0.15 0.62 0.18 0.85 0.06 0.52-0.23 1.2 0.06-0.63-0.79 1.2 0 1.73 0.24q-1.33-0.05-2.68-0.1 0.08 0.07 0.15 0.13-0.35-0.04-0.7-0.07 0.06-0.05 0.12-0.1c-1.23 0.15-1.5-0.14-1.6-0.15-1.27-0.12-2.74-0.2-4.03-0.27-0.19-0.01-0.08 0.23-1.48-0.02-0.45-0.09-0.01-0.26-0.53-0.25-0.65 0.48-0.62 0.07-0.81 0.06-0.56-0.02-0.89 0.09-0.94 0.09-0.68-0.01-1.66-0.06-2.41-0.07-0.01 0 0.37 0.17-0.11 0.11-0.16-0.02-1.66-0.75-3-0.56q0.51 0.08 1.03 0.16c-0.41-0.08-3.25 0.03-2.56 0.22 0.41 0.12 1.48-0.29 1.58 0.13-0.74-0.11-3.99-0.1-5.66-0.11-0.49-0.01-0.84-0.02-0.94-0.04-0.05-0.02 0.3-0.15 0.22-0.17-0.06-0.01-1.27 0.01-1.43-0.04-0.09-0.03 0.44-0.11 0.4-0.16-0.04-0.04-1.55-0.11-1.63 0.06 0.37-0.06 1.41 0 0.86 0.14-0.07 0.02-0.43-0.09-0.52-0.07-0.79 0.2 1.56 0.17 1.94 0.18-1.48 0.2-3.77-0.07-5.49 0.07-0.7-0.14 1.03-0.21 0.24-0.33-1.63-0.24-0.43 0.2-0.48 0.21-0.4 0.15-1.79-0.61-1.79-0.03-0.59-0.08-0.39-0.16-1.23-0.08q0.17 0.06 0.33 0.12c-0.93 0.34-2.89-0.49-2.75-0.55 0.4-0.18 1.43 0.08 1.51 0.07 0.13-0.01 0.49-0.6 1.9-0.08 0.58-0.4-2.25-0.26-0.96-0.54-0.86 0.05-4.45-0.18-4.95 0-0.06 0.03 0.23 0.42-0.65 0.23-0.42-0.09 0.59-0.11 0.39-0.2-0.59-0.28-8.6 0.09-10.12 0.17-0.1 0.01-0.07-0.12-0.17-0.11-0.3 0.01-1.38 0.23-1.91 0.2 1.11 0.18-1.04 0.28-1.58 0.28-0.83-0.01-0.79-0.23-1.15-0.26-1.39-0.12-3.5 0.5-4.6 0.07 0.08 0.47-1.87-0.14-2.74-0.09-0.68 0.03-1.65 0.4-0.72 0.54-1.17 0.04-2.41 0.21-3.51 0.3-0.18 0.02 0.06-0.14-0.25-0.1-0.02 0-0.05 0.14-0.32 0.17-2.19 0.26-1.14-0.1-1.56-0.16q-0.35-0.05-0.53-0.04c1.28-0.12 2.76-0.26 3.15-0.29-0.35-0.29-2.84 0.24-3.58 0.21-0.03 0 0.05-0.18 0.03-0.18q0 0-0.01 0c-0.27 0.01-2.02 0.19-1.65 0.37 0.1 0.04 0.91-0.01 1.87-0.1-0.26 0.06-0.05 0.23-0.1 0.24-0.54 0.13-1.92 0.05-2.4 0.06-0.11 0-0.09 0.12-0.11 0.12-0.44 0-0.28-0.35-0.71 0.03-0.82-0.36 1.48-0.17 1.3-0.43-0.14-0.21-5.19 0.29-5.15 0.63q-0.02-0.05-0.24-0.11c-0.32-0.09-1.73 0.06-1.97 0.14-0.04 0.02 0.01 0.34-0.04 0.35-0.13 0.02-1.87-0.09-2.49 0.17q0.52 0.02 1.05 0.04c-2.09 0.19-1.76 0.26-1.06 0.29q0.06 0.01 0.11 0.01c0.54 0.02 1.24 0.03 1.25 0.06 0.05 0.09-3.49 0.47-2.83 0.1 0.09-0.05 1.74-0.06 0.91-0.21-0.15-0.02-1.19 0.14-1.25 0.12-0.39-0.12 1.9-0.55 1.59-0.75-0.54 0.27-1.26 0.22-1.9 0.34-0.29 0.05-0.34 0.22-0.38 0.23-0.53 0.09-0.25-0.11-0.43-0.09-0.09 0.02-1.12 0.48-0.96-0.04-3.45 0.72-0.93 0.46 1.2 0.23-0.66 0.25-1.99 0.29-2.58 0.39-0.21 0.04-0.07 0.2-0.42 0.27-0.27 0.05-0.92 0.11-1.68 0.16-1.31 0.1-2.95 0.19-3.54 0.23 0.56-0.12 0.38-0.28-0.06-0.22-0.43 0.06-0.04 0.26-0.12 0.3-0.09 0.03-2.15 0.16-2.49 0.23 1.53-0.27 1.16-0.41-0.15-0.27q0.28-0.12 0.55-0.23c-0.75 0.17-2.4 0.09-2.83 0.23-0.07 0.02 0.2 0.14 0.16 0.15-0.38 0.12-1.73 0.13-1.78 0.19-0.05 0.05 0.53 0.1 0.33 0.19-0.04 0.02-0.61-0.11-1.14 0.01-0.19 0.04-0.06 0.17-0.11 0.19-0.4 0.12-0.19-0.16-0.95-0.02-0.55 0.11-0.93 0.4-1.72 0.43 2.58-0.04 0.43 0.12-0.61 0.35-0.17 0.04 0.01 0.28-1.02 0.3 2.09-0.78-0.65-0.17-1.22-0.09-0.03 0-0.06-0.17-0.34-0.13-0.02 0 0.03 0.11-0.23 0.16-2.44 0.44-0.89 0.08-1.37 0.03-0.21-0.02-1.37 0.32-1.69 0.37-0.08 0.01-0.06-0.11-0.35-0.06-0.5 0.08-0.93 0.28-1.26 0.34-0.04 0-0.07-0.19-0.69-0.03-0.18 0.05-0.37 0.15-0.11 0.16 0.87 0.05 2.4-0.5 3.38-0.46 0.88 0.04-1.83 0.46-1.97 0.48-0.05 0.01 0.46-0.17-0.08-0.1-0.46 0.05-1.25 0.51-1.95 0.55-0.05 0-0.64-0.2-0.62-0.22 0.02-0.01 0.85-0.2 0.72-0.27-0.02 0-0.55 0.08-0.63 0.03-0.1-0.06-0.44-0.74-0.56-0.74-0.3 0-0.08 0.14-0.27 0.16-0.41 0.03-1.86 0.05-1.86 0.31q0.35-0.04 0.7-0.07c-1.29 0.23-0.72 0.25-0.9 0.33-0.19 0.08-0.17-0.15-0.6-0.1-0.1 0.01-1.92 0.36-1.87 0.45 0.98-0.32 0.65 0.02 0.7 0.01 0.18-0.01 0.38-0.2 0.62-0.23 1.68-0.26 0.03 0.26 0.43 0.26 0.14 0 0.39-0.18 0.45-0.18 0.19-0.01 0.22 0.16 0.34 0.13 0.29-0.08-0.09-0.27-0.07-0.28 0.24-0.2 1.29-0.17 0.69 0.19 0.4 0.03 0.4-0.29 0.72-0.21 0.64 0.15-0.27 0.23-0.51 0.31-0.85 0.29-1.13 0.21-2.36 0.46-0.44 0.09-0.94 0.33-1.15 0.37-0.13 0.03-1.45-0.3-1.34 0.55-0.48 0-1.34-0.43-1.82-0.31-0.44 0.1-0.24 0.37-0.28 0.39-0.06 0.02-0.6 0.1-0.77 0.17-0.21 0.09-0.08 0.18-0.41 0.29-0.81 0.26-0.84-0.05-0.93-0.05-1.04-0.05-0.53 0.3-0.74 0.38-0.2 0.06-3.1 0.43-3.69 0.65q0.36-0.16 0.71-0.32c-0.48-0.1-0.89 0.29-0.96-0.04 0.01 0.56-0.96 0.37-1.23 0.43-0.11 0.03-0.09 0.12-0.22 0.15-0.53 0.12-1.72 0.28-2 0.38-1.19 0.45 2.02 0.16 2.28 0.14-0.5 0.09-3.28 0.76-1.94 0.77 0.21 0 0.51-0.31 0.62-0.35 0.75-0.21 0.19 0.13 0.26 0.14 0.1 0.01 0.56-0.3 0.7-0.3 0.04 0-0.2 0.26 0.53 0.12-0.33 0.26-2.38 0.5-2.64 0.6-0.09 0.03 0.58 0.32-1.23 0.27q0.04 0.05 0.08 0.1-1.45 0.32-2.88 0.64c0.08-0.11 0.59-0.39-0.09-0.22-0.38 0.11-0.05 0.24-0.09 0.25-0.35 0.12-6.57 1.4-7.76 1.7-0.41 0.1-1.51 0.52-1.6 0.54-0.51 0.14-2.36 0.47-2.72 0.58-0.23 0.07 0.03 0.18-0.18 0.22-0.19 0.04-0.03-0.16-0.09-0.16-0.12 0.02-0.45 0.1-0.88 0.21-1.24 0.33-3.29 0.94-3.94 0.99 0.52-0.09 3-1.04 2.92-1.13-0.02-0.01-0.66 0.02-0.78 0.11-0.25-0.08-0.87 0.51-1.28 0.53-0.05 0 0.07-0.27-0.65-0.14-0.25 0.05-0.83 0.39-1.52 0.36-0.9 0.33-5.81 1.35-6.07 1.7 0 0.02 0.7-0.09 0.27 0.14-0.57 0.31-0.15-0.3-0.87-0.14-0.11 0.02-2.06 0.64-2.12 0.69-0.52 0.43 1.23 0.03 1.21 0.07-0.04 0.09-1.45 0.55-1.51 0.55-0.06 0 1-0.68-0.36-0.14q0.26-0.01 0.52-0.02c-0.63 0.27-0.77 0.06-0.93 0.09-0.51 0.11-0.94 0.62-1.86 0.43-0.24-0.05 0.07-0.29 0.03-0.3-0.29-0.07-0.49 0.44-0.96 0.25-0.04-0.01 0.78-0.47-0.75 0.01q0.17-0.01 0.34-0.02c-0.19 0.14-1.73 0.67-1.94 0.72-0.63 0.15-0.17-0.23-0.77 0 0.49 0.16-1.36 0.8-1.34 0.52-0.15 0.4-1.81 0.68-2.56 0.93-0.47 0.16-1.38 0.62-1.53 0.66-0.19 0.04-0.21-0.19-0.55-0.12-0.1 0.02-1.02 0.51-1.95 0.6-0.19 0.01-0.66-0.22-0.39-0.42 0.48-0.34 1.58-0.4 1.5-0.61-0.1-0.22-1.4 0.39-1.77 0.49-1.73 0.46-0.85-0.13-0.92-0.19-0.17-0.13-1.09 0.2-1.13 0.2-0.19-0.01 0.41-0.39 0.38-0.5-0.03-0.15-1.01-0.08-0.83-0.2 0.27-0.17 1.16-0.25 1.21-0.28 0.62-0.38-0.42-0.37-0.73-0.44-0.1-0.02 0.18-0.21 0.11-0.21-1.05 0.14-0.04 0.54-0.7 0.72-0.6 0.17 0.07-0.31 0.05-0.31-0.04-0.01-0.73 0.23-0.87 0.2-0.07-0.02 1.58-1.09 1.44-1.25q-0.84 0.37-1.68 0.75c-0.13-0.23 0.76-0.35 0.84-0.4 0.15-0.12-0.37-0.07-0.38-0.15-0.01-0.05 0.49-0.43-0.04-0.32-0.19 0.04-0.49 0.34-1.19 0.4 2.14-1.03 0.55-0.61 0.45-0.67-0.09-0.06 0.9-0.65-0.38-0.15-0.23-0.45-0.03-0.16 0.31-0.37 0.41-0.26-0.68-0.05 1-0.52-0.17-0.19-1.48 0.3-1.56 0.31-0.07 0.01 0.19-0.21 0.07-0.21-1.39 0.02-0.47-0.09-0.93-0.23-0.04-0.01-1.24 0.31-0.37-0.05 1.6-0.66 2.39-0.59 2.42-1.36-1.31 0.14-2.6 1.1-2.97 1.24-0.55 0.21-0.02-0.13-0.1-0.15-0.03 0-0.51 0.18-0.52 0.18-0.53-0.39 2.14-0.79 2.89-1.16q-0.36 0-0.71 0 0.42-0.16 0.85-0.32c-1.41 0.33-0.07-0.04 0.12-0.58 0.04-0.12-0.79 0.36 0.13-0.26-0.77 0.21-0.56 0.04-1.2 0.4-0.04-0.17 1.42-0.91 2-1.21-2.21 0.58-0.77 0.75-2.73 1.09-0.27 0.33 0.6-0.03 0.54 0.03-0.21 0.22-0.89 0.24-1.46 0.93-0.09 0.11 0.49 0.15-0.26 0.41-0.08 0.03-0.62 0.01-0.62 0 0.01-0.17 0.5-0.29 0.5-0.35-0.01-0.07-0.51 0.16-0.52 0.14-0.08-0.17 0.41-0.23 0.32-0.26-0.18-0.07-2.2 0.22 0.29-0.55-1.96 0.94-0.19 0.29 0.57-0.07 0.2-0.1 0.21-0.22 0.48-0.37 0.36-0.18 0.81-0.28 0.99-0.37 0.2-0.1-1.06 0.07 0.66-0.47-0.95 0.06-2.38 0.88-3.29 1.01-1.84 0.26 1.03-0.87 1.32-1.01 0.08-0.04-0.25-0.09-0.2-0.12 0.09-0.04 1.76-0.57 1.88-0.75 0.12-0.18-0.6 0.22-0.7 0.11-0.06-0.07 1.88-0.93 0.78-0.61-0.76 0.23-2.01 1.07-2.37 0.79q1.62-0.64 3.25-1.28-0.98 0.12-1.95 0.23c1.21-0.49 2.33-0.71 3.44-1.32-2.98 0.55 0.79-0.69 0.81-0.75 0.01-0.04-1.24-0.01-1.44-0.01 0.93-0.5 3.93-1.6 2.01-1.44 0.35-0.01 1.05-0.53 1.03-0.55-0.17-0.16-1.82 0.55-1.6 0.28 0.24-0.32 0.79-0.19 1.28-0.39 2.49-0.97 1.45-1.79 4.07-2.46q-0.1-0.03-0.19-0.06 4.22-1.28 8.48-2.43c1.01-0.65 3.9-1.68 5.36-2.03 0.29-0.07 1.77-0.28 1.89-0.28 0.21 0-0.88 0.31-0.36 0.29 0.11-0.01 2.56-0.57 2.34-0.71-0.28 0.05-1.11 0.37-1.26 0.36-0.81-0.04 3.4-1.04 5.59-1.57 0.68-0.16 1.17-0.29 1.25-0.34q-0.27-0.03-0.54-0.06 0.72-0.13 1.44-0.25zm-17.13 20.29c-0.21 0.26-0.92 0.34-1.29 0.52-0.52 0.24-1.22 1.23-1.05 0.41q1.17-0.47 2.34-0.93zm-1.63 1.08c0.12-0.06 0.63-0.17 0.84-0.25-0.17 0.28-1.26 0.46-0.84 0.25zm13.45-4.22c-0.57 0.04-0.26-0.46 0.23-0.41 0.06 0 0.53 0.34-0.23 0.41zm-5.72 1.39c0.02-0.01 0.49-0.14 0.5-0.14 0.47 0.04-0.95 0.41-0.5 0.14zm27.73-6.92c-0.61 0.14-0.09 0.42 0.26 0.19 0.02-0.01-0.22-0.2-0.26-0.19zm-0.43 0.08c-0.55-0.22-1.37 0.63-0.62 0.41 0.07-0.03 0.64-0.4 0.62-0.41zm-23.56 5.82c0.03-0.14 0.61-0.24 0.85-0.27 0.02 0.11-0.61 0.19-0.85 0.27zm14.3-3.61c0-0.1-1.98 0.36-2.08 0.52 0.3-0.13 2.07-0.43 2.08-0.52zm5.05-1.25c-0.05-0.01-0.73 0.16-0.69 0.24 0.35 0.04 0.94-0.22 0.69-0.24zm10.17-2.05c0.03-0.03-0.59-0.48 0.7-0.35 0.2 0.01-0.42 0.28-0.35 0.29q0.21 0.02 0.33 0c-0.56 0.15-1.15 0.28-1.21 0.26-0.3-0.1 0.51-0.19 0.53-0.2zm5.28-1.4c0.11-0.11 0.87-0.2 1.05-0.19 0.03 0-0.06 0.26 0.28 0.18 0.27-0.06-0.18-0.23 0.36-0.29 0.54-0.05-0.15 0.24-0.1 0.25 0.07 0 0.88-0.25 0.88-0.11-0.01 0.11-0.9 0.2-1.12 0.26-0.28 0.08 0.09 0.19-0.38 0.23-0.3 0.03-0.19-0.3-0.26-0.3-0.05-0.01-1.05 0.35-0.7-0.03q0 0-0.01 0zm-4.44 1.29q-0.07 0.03-0.16 0.05 0.08-0.03 0.16-0.05zm-38.69 9.18c0.31 0-0.49 0.38-0.84 0.35-0.03-0.09 0.79-0.35 0.84-0.35zm39.17-9.53c0.86-0.08 0.26 0.14-0.48 0.35 0.22-0.1 0.19-0.32 0.48-0.35zm-23.88 5.3q0.06 0.02 0.09 0.1-0.16-0.06-0.09-0.1zm1.97-0.38c0.37-0.2 0.03-0.16-0.29-0.07-0.21 0.07-0.42 0.15-0.4 0.2 0.01 0.03 0.24-0.02 0.44-0.06 0.13-0.03 0.24-0.06 0.25-0.07zm15.85-3.59c-0.06 0 0.79-0.73-0.53-0.05 0.76-0.09-0.01 0.13 0.01 0.17 0.05 0.13 1.28-0.25 1.57-0.25 0.17-0.28-0.83 0.15-1.05 0.13q0 0 0 0zm19.74-3.78c-0.15 0.16-0.7 0.21-1.07 0.26 0.15-0.17 0.7-0.21 1.07-0.26zm96.75-6.06c-2.53 0.05-2.84-0.54-0.54-0.24 0.05 0.01 0.7 0.18 0.54 0.24zm-21.79-0.32c-0.24-0.25 0.56-0.3 1.08-0.21 0.12 0.03 0.55 0.28 0.06 0.34 0.01-0.31-0.76-0.42-1.14-0.13zm-88.19 8.59c0.21-0.22 1-0.24 1.41-0.29-0.22 0.18-1.05 0.27-1.41 0.29zm101.66-8.76c-0.26-0.02-0.44 0.2-0.4 0.21 0.21 0.09 0.7-0.08 0.4-0.21zm-104.12 9.19c-0.06-0.09 0.93-0.38 1.05-0.14-0.22 0.02-1.01 0.2-1.05 0.14zm14.99-2.61c-0.17-0.02 0.63-0.25 0.89-0.23-0.01 0.1-0.78 0.25-0.89 0.23zm84.82-6.54c-0.24-0.02-0.84-0.03-0.9 0.06-0.09 0.11 0.79 0.08 0.9-0.06zm43.58 3.06c0.02 0.04-0.85 0.14-1.21-0.01-0.67-0.28 1.2-0.03 1.21 0.01zm-36.73-3.18c0.75 0.23-0.08 0.01-0.05 0.23 0.5 0.02 1.77 0.05 0.9-0.18-0.17-0.05-0.61-0.03-0.85-0.05zm-0.7-0.08c-0.08 0.07-0.62 0.28-0.16 0.28 0.22-0.01 0.58-0.25 0.16-0.28zm32.13 2.34c-0.62-0.3 2.32 0.3 2.38 0.36q0.06 0.04 0.08 0.06c0.11-0.04 0.66 0.05 0.69 0.22-0.16-0.04-0.61-0.11-0.65-0.14q-0.03-0.02-0.05-0.03c-0.21 0.09-2.33-0.41-2.45-0.47zm-4.82-0.8c0.79-0.2 0.87 0.3 0.8 0.31-0.85 0.11-0.27-0.19-0.29-0.21-0.06-0.04-0.66 0.06-0.51-0.1q0 0 0 0zm3.98 0.6c0.03 0 0.32 0.04 0.51 0.07l-0.17-0.02q0.15 0.03 0.18 0.04c0.19 0.09 0.03 0.1-0.2 0.07l0.18 0.03c-0.35-0.04-0.86-0.15-0.5-0.19zm-127.28 5.03c0.46-0.03 0.04 0.22-0.27 0.21-0.03 0-0.15-0.19 0.27-0.21zm95.62-7.13c-0.05-0.02-0.65-0.06-1.28-0.08-0.74-0.02-1.52 0.01-1.43 0.16 0.11-0.02 0.78 0.01 1.43 0.02 0.84 0.02 1.65 0.03 1.28-0.1zm-20.7 0.04c0.49-0.01-0.04 0.26-0.3 0.17-0.1-0.03 0.18-0.17 0.3-0.17zm-86.3 9.31c-0.46 0.23-0.45-0.25 0.01-0.18 0.02 0.01 0.01 0.17-0.01 0.18zm90.21-9.24c-1.68 0.18-1.3-0.64 0.9-0.4q-0.1 0.05-0.2 0.11c2.52 0.08 0.17 0.05-0.45 0.11-0.24 0.02-0.03 0.15-0.25 0.18q0 0 0 0zm-6.48-0.02c-1.64-0.53 1.47-0.25 2.36-0.34-0.86 0.26-1.98 0.25-0.45 0.46-2.23 0.11-1.31-0.15-1.4-0.17-0.1-0.01-0.44 0.07-0.51 0.05zm4.28-0.11c0.1-0.02 0.81 0.09 1.06 0.06-0.35 0.21-1.68 0.07-1.06-0.06zm41.36 1.13c0.07-0.15 0.23-0.25 0.77-0.14-0.17 0.06-0.54 0.1-0.77 0.14zm-167.38 17.53c-0.37 0.11-1.1 0.28-0.83 0.37 0.02 0 0.86-0.28 0.83-0.37zm136.97-18.82c-0.07-0.02-2.19-0.03-1.46 0.14 0.23 0.05 2.14 0.03 1.46-0.14zm10.93 0.13c-0.18-0.01-0.9 0.01-0.91 0.04-0.05 0.13 0.83 0.08 0.91-0.04zm-149.77 19.13c-0.05 0-1.15 0.39-1 0.42 0.27 0.06 1.18-0.42 1-0.42zm52.87-12.6c0.1-0.02 0.25 0.13 0.29 0.12 0.07-0.01 1.84-0.36 1.19-0.04-0.1 0.06-2.66 0.4-3 0.44-0.16-0.21 0.96-0.18 1.22-0.25 0.05-0.01 0.05-0.21 0.3-0.26q0 0 0-0.01zm119.24-5.27c0.1-0.14 2.17-0.02 2.13 0.16q-1.06-0.08-2.13-0.16zm-1.04-0.12c-0.43-0.15 0.61-0.08 0.9-0.01 0 0.1-0.85 0.03-0.9 0.01zm-25.29-1.76c-0.21 0.03 0.44 0.25 0.29 0.29-0.06 0.02-0.28-0.01-0.47-0.02q-0.16-0.01-0.24 0.03c-0.03 0.01 0.1 0.07 0.24 0.13 0.13 0.05 0.27 0.09 0.33 0.09 0.2-0.01 0.01-0.17 0.23-0.17 0.72 0.01 1.35 0.13 2.02 0.14 0.06 0-0.4-0.12 0.11-0.11 0.08 0 0.56 0.18 1.18 0.17 1.37-0.49 2.38 0.04 4.11-0.09-0.07-0.05-1.35-0.22-1.43-0.23-1.45-0.12-4.05-0.19-5.58-0.21-0.39-0.01-0.2 0.1-0.37 0.11-0.13 0 0.03-0.2-0.42-0.13zm-143.75 19.14c-0.23-0.14-0.81 0.18-1.19 0.29 0.19 0.13 0.8-0.21 1.19-0.29zm159.72-18.24c-0.2 0-0.84-0.1-0.89-0.04-0.08 0.07 0.84 0.18 0.89 0.04zm-98.87 4.74c0.02-0.01 0.51-0.07 0.53-0.07 0.46 0.1-1.01 0.28-0.53 0.07zm11.73-1.54c0.37-0.07 0.74-0.18 0.88-0.03-0.24 0-0.91 0.15-0.88 0.03zm16.22-1.71c-0.1-0.21 1.04-0.17 1.25-0.17-0.07 0.1-1.18 0.32-1.25 0.17zm78.4-1.29c0.68 0.07 0.57-0.26 0.98-0.08 0.07 0.03 0.24 0.73-0.49 0.41-0.13-0.06 0.41-0.17-0.49-0.33zm-37.88-0.72c0.17-0.15 0.72-0.11 1.09-0.11-0.08 0.11-0.83 0.09-1.09 0.11zm-133.4 19.87c-0.36-0.09-1.72 0.53-1.33 0.53 0.05 0 1.14-0.47 1.33-0.53zm47.4-11.66c0.58-0.27-0.68-0.09-1.05 0.14 0.18-0.05 1.02-0.13 1.05-0.14zm41.56-5.96c0.03-0.01 0.68-0.06 0.71-0.05 0.55 0.11-1.29 0.25-0.71 0.05zm-16.19 1.7c0.21-0.16 1.76-0.26 2.12-0.17-0.31 0.23-2.39 0.36-2.12 0.17zm95.7-3.36q0.73 0.05 1.39 0.2c-0.11 0.1-1.34-0.12-1.39-0.2zm-77.12 1.42q0.05 0.01 0.1 0.01-0.05 0-0.1-0.01zm66.21-2.1c-0.4-0.06-0.33 0.14-0.3 0.15 0.3 0.08 0.76-0.09 0.3-0.15zm-154.02 18.71c-0.19-0.13-0.79 0.21-1.19 0.29 0.16 0.1 0.89-0.18 1.19-0.29zm120.37-18.56c-0.53-0.18 1.58-0.47 2.03-0.36 0.04 0.12-1.95 0.38-2.03 0.36zm-78.43 8.23c-0.07-0.14-0.91 0.2-0.71 0.23 0.12 0.02 0.75-0.15 0.71-0.23zm81.52-8.53c0.2-0.05 0.67 0.08 0.51 0.17-0.21 0.11-0.56-0.16-0.51-0.17zm17.81-0.3c-0.09-0.02-1.25 0.12-0.77 0.26 0.33 0.11 0.38-0.1 0.46-0.1 0.09 0 1.96 0.27 0.31-0.16zm-32.73 0.97c0.44-0.08 0.97-0.04 1.43-0.07-0.18 0.1-1.24 0.17-1.43 0.07zm-63.25 7.2c-0.12-0.04-2.98 0.45-1.33 0.33 0.1-0.01 1.68-0.21 1.33-0.33zm122.45-6.91q-0.13-0.01-0.3-0.05 0.17 0.03 0.3 0.05zm-1.36-0.74c-0.28-0.09-1.16 0.01-1.36 0.15q-0.05-0.05-0.3-0.13 0 0 0 0c-0.23-0.1-7.36-0.6-2.59-0.02 0.15 0.02-0.05-0.13 0.56-0.06 0.04 0 0.05 0.11 0.17 0.13 0.29 0.03 1.81 0.2 2.11 0.14q0 0.03 0.06 0.06c0.37 0.19 1.56-0.2 1.35-0.27zm-56.38 0.23c0.26-0.07 0.75-0.03 1.07-0.05-0.05 0.1-0.95 0.15-1.07 0.05zm-18.62 1.12c0.54 0.01 1.18-0.07 1.18-0.18q0.02 0.02 0.08 0.05c0.05 0.01 0.6-0.09 0.85-0.07 1.48 0.12-5.64 0.61-1.54-0.06q-0.28 0.13-0.57 0.26zm-24.26 2.62c-0.32-0.11-1.13 0.19-0.9 0.21 0.15 0.02 1.21-0.11 0.9-0.21zm11.4-1.49c-0.09-0.02-0.89 0.17-0.9 0.25 0.47 0.03 1.32-0.18 0.9-0.25zm-13.7 1.63c-0.19 0.01-0.4 0.27-0.38 0.28 0.2 0.05 0.71-0.19 0.38-0.28zm95.18-3.94c0.17-0.09-0.63-0.16-0.86-0.12-0.08 0.12 0.84 0.14 0.86 0.12zm-79.87 2.11c-0.17-0.02-0.68 0.07-0.72 0.18 0.26 0.02 1.11-0.12 0.72-0.18zm-35 4.99c-0.35-0.02-1.16 0.28-0.89 0.31 0.16 0.02 1.29-0.29 0.89-0.31zm29.83-4.35c1.92-0.11 0.45-0.06 0.73-0.24q-0.37 0.12-0.73 0.24zm100.12-1.68c-0.29-0.06 0.09-0.31 0.41-0.11 0.1 0.06-0.24 0.15-0.41 0.11zm12.18 2.48c-0.06-0.3 0.66 0.18 0.29 0.2-0.01 0-0.28-0.18-0.29-0.2zm-8.25-2.12c-0.23 0.13-0.35 0.13-0.91 0 0.84 0.09 0.1-0.19 0.91 0zm-86.46-0.45q0.01 0.01 0.01 0.02-0.01-0.01-0.01-0.02zm-29.52 3.26c-0.26-0.11-0.92 0-0.7 0.12 0.02 0.01 0.62 0 0.7-0.12zm101.99-4.26q0.04 0.04-0.05 0.06 0-0.03 0.05-0.06zm-98.42 3.64c-0.01 0.11 1.02 0.02 1.06 0 0.56-0.27-0.64-0.06-1.06 0zm-28.17 4.58c-0.05 0.02 0.33 0.23 0.52 0.08 0.14-0.11-0.34-0.16-0.52-0.08zm142.47-6.5c0.31 0.06 0.73 0.14 0.78 0.29-0.2-0.07-0.8-0.2-0.78-0.29zm6.1 1.55c-0.32 0.05-0.96-0.17-1.4-0.33 0.06-0.2 1.16 0.28 1.4 0.33zm-19.75-3.27c-0.04-0.01-0.82-0.14-0.73 0.01 0.15 0.22 0.95 0.09 0.73-0.01zm-127.24 8.07c0.34-0.17-0.54-0.3-0.88 0-0.17 0.15 0.82 0.02 0.88 0zm20.91-3.69c-0.47 0.15 0.74 0.11 0.88-0.05-0.22 0.02-0.72-0.01-0.88 0.05zm16.22-2.28c-1.56-0.24-0.65 0.43-0.39 0.33 0.04-0.02 0.43-0.32 0.39-0.33zm-84.48 18.05c-0.18 0.13 0.64 0.07 0.69-0.1 0.03-0.1-0.57 0.02-0.69 0.1zm107.25-19.81q-0.1 0.01-0.19 0.01 0.07-0.01 0.19-0.01zm-43.4 4.14c1.15 0.42 0.97-0.01 1.06-0.02 0.2-0.03 0.68 0.06 1.05-0.03q-0.62 0.2-1.25 0.4c0.34-0.01 3.31-0.24 3.36-0.34 0.07-0.15-0.85 0.03-0.88 0.02-0.04-0.01-0.24-0.36-0.33-0.37-0.14 0-2.6 0.37-3.01 0.34zm17.49-1.94c0.24 0.01 0.33 0.15 0.44 0.11 0.03-0.02 0.02-0.16 0.15-0.22q-0.3 0.06-0.59 0.11zm-19.3 2.76c-0.32-0.12 1.03-0.27 1.07-0.26 0.25 0.08-0.8 0.36-1.07 0.26zm11.38-1.71c-0.05-0.01-1.09 0.08-1.07 0.18 0.29 0.03 1.66-0.14 1.07-0.18zm8.67-1.19c0.37-0.02 1.07 0.04 0.97-0.16q-0.01 0-0.01 0-0.48 0.08-0.96 0.16zm-33.6 4.99c-0.73-0.22-0.33 0.15 0.28 0.15 0.15-0.19-0.16-0.12-0.28-0.15zm-2.18 0.15c-0.2-0.02-2.09 0.41-1.76 0.54 0.11 0.04 1.18-0.34 1.23-0.33 0.08 0-0.23 0.27 0.35 0.11-0.05-0.06 0.25-0.31 0.18-0.32zm1.59-0.27c-0.71-0.13-0.77 0.37-0.27 0.28 0.19-0.04 0.37-0.26 0.27-0.28zm2.71-0.46c-0.24 0-0.89 0.05-1.3 0.29q0.88-0.15 1.76-0.29c0.06-0.1-0.24 0-0.46 0q0 0 0 0zm147.57-2.99c-0.56-0.41 0.89 0.19 0.87 0.21 0.11 0.17-0.59-0.01-0.87-0.21zm-203.59 13.61c-0.16 0-0.31-0.14-0.59 0.06q0.54 0.02 1.07 0.04c0.14-0.37-0.3-0.1-0.48-0.1zm-1.57-0.61c0.04-0.03-0.36-0.38 0.32-0.29 0.46 0.06-1.57 1.01-2.02 0.95 0.39-0.24 1.34-0.47 1.7-0.66zm-4.36-0.56c-0.04-0.03 0.74-0.37 0.84-0.38 0.53-0.05-0.64 0.52-0.84 0.38zm2.57-0.85c-0.4 0.05 0.41-0.3 0.67-0.34 0.06 0.07-0.6 0.34-0.67 0.34zm204.51-20.09c-0.35-0.45-0.95 0.09-0.23 0.16 0.04 0.01 0.24-0.14 0.23-0.16zm-206.46 20.21c0.4-0.05-0.41 0.31-0.67 0.35-0.05-0.08 0.61-0.34 0.67-0.35zm205.83-22.04c-0.43-0.21-1.08-0.04-0.14 0.25q-0.53-0.07-1.04-0.12c1.19 0.5 1.22 0.05 1.58 0.17 0.49 0.17 0.35 0.53 0.21 0.61 0.47-0.11 2.26 0.48 3.35 0.97-0.9-0.54-2.34-1.24-3.21-1.56-0.25-0.1-0.53-0.07-0.73-0.14-0.34-0.11 0.01-0.17-0.02-0.18q0 0 0 0zm-2.32 0.72c-0.57-0.05 0.78 0.43 1.1 0.3-0.28-0.06-0.94-0.29-1.1-0.3zm-3.01-2.11c-0.19-0.61-0.47 0.24-0.97-0.32-0.88 0.53 2.13 0.39 2.37 1.04-3.12-0.7 1.97 0.97-0.05-0.31 1.76 0.69 0.62 0.02 0.92-0.03 0.32-0.05 1.35 0.32 1.34 0.1q0 0 0 0-0.97-0.21-1.92-0.38c0.52 0.57-0.74 0.17-1.1-0.27q-0.3 0.08-0.59 0.17zm-0.81 0.71c-0.43-0.24-0.62 0.21-0.07 0.16 0.02 0 0.08-0.15 0.07-0.16zm-2.51-0.6q-0.06-0.05-0.12-0.06c-0.02 0-0.08-0.02-0.1-0.02-0.24-0.05-0.48 0.26-0.07 0.33q0.01 0 0.03 0c0.02 0 0.07 0.01 0.09 0.01 0.12-0.01 0.19-0.23 0.17-0.26zm9.18 2.29c-0.54-0.4-0.54 0.4-0.47 0.45 0.27 0.2 1.41 0.25 1.66 0.27-1.63-0.44-0.93-0.52-1.19-0.72zm-12.6-2.73c-0.83-0.31-0.35 0.21 0.16 0.19 0.02 0-0.13-0.18-0.16-0.19zm-195.32 22.83c1.15-0.21 0.45 0.31 2.58-0.87-0.86 0.6 0.02 0.2-0.13 0.37-0.12 0.14-0.7 0.27-0.32 0.32-0.49-0.02-2.32 0.7-2.41 0.7q0 0 0 0c-0.06 0-0.08-0.45 0.28-0.52zm201.84-21.31c-0.29-0.09-1.14-0.3-1.3-0.21 0.32 0.03 1.15 0.3 1.3 0.21zm3.7-0.03c-0.06-0.03-1.45-0.27-1.38-0.16 0.16 0.08 2.14 0.48 1.38 0.16zm7.62 2.2c-0.87-1.1-2.66-1.23-2.79-1.29-0.16-0.07 0.17-0.17 0.14-0.19-0.09-0.07-1.79-0.64-1.87-0.64-0.06-0.01 0.15 0.37-0.22 0.35 0.68-0.03 3.81 1.38 3.99 1.53 0.14 0.05-0.67-0.77 0.75 0.24q0 0 0 0zm-26.69-4.93c-0.62 0.09 1.27 0.28 0.73 0.07-0.02-0.01-0.7-0.08-0.73-0.07zm14.16 1.39c-0.61-0.27-0.39 0.32 0.09 0.26 0.03-0.01-0.06-0.24-0.09-0.26zm-199.77 22.3c-0.01-0.14 1.59-0.62 1.87-0.73-0.12 0.18-1.87 0.89-1.87 0.73zm211.1-18.85c-0.55-0.29-1.36-0.74-1.71-0.69 0.54 0.21 1.34 0.68 1.71 0.69zm-1.97-1.42c0.38 0.28-0.81-0.15-1.07-0.27-0.6-0.31 1.01 0.22 1.07 0.27zm-2.75-0.99c-0.13-0.07-1.27-0.39-1.4-0.27 0.49 0.29 1.67 0.41 1.4 0.27zm-12.49-2.2c-0.28-0.02-1.06-0.21-1.11-0.1 0.29 0.02 1.05 0.21 1.11 0.1zm-188.88 20.53c-0.47 0.06 0.54-0.35 0.85-0.41 0.05 0.07-0.81 0.4-0.85 0.41zm194.85-20.52c-0.08-0.03-0.93-0.17-1.84-0.29-0.03 0-0.11-0.02-0.14-0.02-0.97-0.1-2.03-0.19-2.28-0.19 0.24 0.08 1.3 0.23 2.26 0.36 0.02 0.01 0.11 0.02 0.14 0.02 0.88 0.15 1.69 0.28 1.78 0.27 0.04 0 0.1-0.14 0.08-0.15zm7.79 1.69c0.4-0.06 0.57 0.22 0.61 0.23 0.43 0.16 1.38 0.47 1.12 0.56-0.79-0.38-2.53-0.66-1.73-0.79zm-13.91-2.53c-1.17-0.07 1.05 0.37 0.77 0.16-0.01-0.02-0.65-0.15-0.77-0.16zm6.51 0.86c0.28-0.12 3.8 0.7 4.39 0.86-0.57 0.14-0.96-0.15-1.64-0.28-0.19-0.04-0.16 0.08-0.18 0.08-0.32-0.06-0.05-0.14-0.25-0.18-0.13-0.04-2.72-0.35-2.32-0.48zm7.64 1.61c0.21-0.07 2.75 0.81 2.86 0.93 0.68 0.47-2.73-0.91-2.86-0.93zm-7.91-1.9c0.42-0.24 2.14 0.28 0.91 0.21-0.11 0-0.58-0.22-0.91-0.21zm-6.08-0.85c-0.06-0.01-1.27-0.21-1.3-0.11 0.16 0.05 1.94 0.29 1.3 0.11zm0.67-0.25c-0.03 0 0.23 0.22-0.34 0.13-0.04-0.01-0.12-0.23-0.84-0.24-0.14 0-0.39 0.12-0.37 0.13 0.71 0.41 3.04 0.04 1.55-0.02zm13.41 2.85c-0.1-0.12 0.29-0.28 0.54-0.06 0.1 0.1-0.17 0.17-0.54 0.06zm-17.94-3.09c0.73-0.09-1.51-0.34-1.62-0.3 0.06 0.1 1.54 0.31 1.62 0.3zm-184.4 20.58q0 0-0.01 0.01c0.58-0.17 0.27 0.08 0.3 0.08 1.26-0.24 0.84-0.41 1.02-0.51 0.37-0.22 0.43 0.15 1.06-0.22-1.05 0.6-0.06 0.15 0.02 0.27 0.3 0.46-1.58 0.28-2.09 0.58-0.08 0.04 0.55 0 0.37 0.12-0.59 0.37-2.87 0.3-0.67-0.33zm203.11-17.49c0.34-0.1 2.85 1.1 2.12 0.94-0.15-0.08-2.67-0.91-2.12-0.94zm-98.21-3.07c0.49-0.17-0.68-0.24-0.88-0.12-0.11 0.07 0.67 0.2 0.88 0.12zm-8.16 0.14c-0.59 0.09-1.16 0.72-0.43 0.55 0.07-0.01 0.5-0.48 0.43-0.55zm39.02-2.07c-0.63-0.18-0.59 0.19-0.13 0.17 0.16 0 0.15-0.16 0.13-0.17zm-23.67 1.16c-0.07-0.01-0.78 0.06-0.75 0.15 0.27 0.03 1.15-0.09 0.75-0.15zm23.86-1.22c-0.37 0.08 0.28 0.34 0.72 0.06-0.23 0.03-0.68-0.06-0.72-0.06zm57.21 2.27q-0.21 0.05-0.62 0c-0.03 0-0.13-0.02-0.17-0.02-0.36-0.03-0.79-0.09-1.1-0.11-0.02-0.14 0.61-0.06 1.12 0.01 0.03 0 0.13 0.02 0.17 0.03 0.26 0.04 0.48 0.08 0.6 0.09zm-93.88-0.15c-0.55 0.19 0.66 0.2 0.54 0.02-0.02 0-0.52-0.03-0.54-0.02zm56.52-2.32c-0.42 0.12 0.89 0.29 0.53 0.07-0.01 0-0.51-0.08-0.53-0.07zm5.69 0.16c-0.31-0.05-1.64-0.06-1.12 0.06 0.07 0.02 1.1 0.05 1.12-0.06zm-160.2 22.02c-0.22-0.14 0.72-0.42 0.86-0.43 0.06 0-0.56 0.61-0.86 0.43zm130.43-21.83c-0.32 0.04-1.15 0.02-1.29 0.13 0.39-0.03 1.41 0.08 1.29-0.13zm-29.88 1.74c-0.51-0.18-1.34-0.08-1.11 0.19 0.92-0.1-0.14-0.25 1.11-0.19zm36.17-2.18c-0.25-0.01-0.45 0.28-0.42 0.29 0.29 0.12 0.68-0.19 0.42-0.29zm-19.31 0.99c-0.02-0.12-0.84-0.02-0.73 0.05 0.04 0.03 0.75 0.05 0.73-0.05zm63.36 0.25c-0.38-0.14 0.81-0.15 1.14 0.01 0.15 0.2-1.1 0.01-1.14-0.01zm-36.9-1.29c0.03-0.18-1.25-0.06-0.74 0.08 0.13 0.03 0.73-0.02 0.74-0.08zm12.38-0.21c-0.87 0.2 2.78 0.41 1.83 0.13-0.08-0.02-1.74-0.14-1.83-0.13zm5.97 0.26c-0.15-0.03-0.07-0.63 0.56-0.38 0.08 0.03-0.31 0.18-0.24 0.22 0.04 0.02 1.39 0.14 1.45 0.13 0.07-0.01-0.01-0.21 0.06-0.23 0.08-0.02 0.91 0.18 1.34 0.2 0.83 0.03 0.92-0.13 0.99-0.13 0.19 0.01 0.52 0.14 0.92 0.15 2.01 0.08 5.1 0.1 6.67 0.54-1.41-0.22-2.78-0.15-4.18-0.17 0.42-0.32-2.09 0.16-0.62-0.16-0.68 0.04-6.46-0.1-6.95-0.17q0 0 0 0zm-69.13 2.49c0.34-0.24-1.53 0-1.66 0.25 0.25 0.01 1.61-0.22 1.66-0.25zm8.59-1.3c0.17-0.05 0.31-0.46 1.24-0.34q0 0 0 0c0.27 0.04-0.03 0.16 0.03 0.19 0.01 0.02 0.86 0.15 0.17 0.23-1.05 0.14-0.12-0.28-0.68-0.24-0.07 0-1.12 0.31-1.05 0.35 0.01 0 0.32-0.07 0.38-0.05 0.2 0.05 0.12 0.19 0.14 0.19 0.1 0.01 1.76-0.34 2.02-0.18 0.09 0.06-2.66 0.42-2.77 0.4-0.07-0.01-0.07-0.36-0.15-0.39-0.03-0.01-1.13 0.21-1.28 0.19q-0.06 0-0.1-0.01c0.18 0.09-0.83 0.17-0.81 0.05 0.02-0.05 0.71-0.09 0.74-0.08q0.01 0 0.03 0.01c-0.16-0.12 2.19-0.32 1.66-0.47 0.67-0.16-0.07 0.3 0.43 0.15zm3.25-0.48q-0.1 0.06-0.2 0.13c1.18-0.19 2.57-0.11 3.94-0.21 0.35-0.03-0.07-0.22 0.39-0.19 0.37 0.02 0.79 0.2 0.59 0.26-0.04 0.01-0.8-0.07-1.17-0.03-1.09 0.12-0.8 0.29-0.87 0.3-0.07 0.01-0.77-0.07-1.14-0.04-0.95 0.09-1.38 0.24-2.69 0.19 0.74-0.18 0.31-0.43 1.15-0.41zm44.4-1.33c0.04-0.12 0.83-0.02 1.11-0.03-0.04 0.12-0.83 0.01-1.11 0.03zm-115.47 12.3c-0.19 0.24 1.58-0.11 1.08-0.16-0.11-0.02-0.86 0.11-1.08 0.16zm7.94-1.61c0.23-0.1-0.75-0.04-0.72 0.11 0.01 0.05 0.69-0.09 0.72-0.11zm78.53-10.15c0.04-0.01 0.7 0 0.72 0.01 0.45 0.19-1.72 0.18-0.72-0.01zm-68.93 8.02c-0.8 0.28 1.69-0.13 0.9-0.15-0.04 0-0.86 0.13-0.9 0.15zm3.44-0.67c-0.19 0.04-1.09 0.14-1.09 0.2 0 0.1 1.02-0.02 1.09-0.2zm82.04-8.02c-0.1-0.22 1.07-0.08 1.49-0.11 0.1 0.22-1.08 0.07-1.49 0.11zm-7.42 0.05c4.95-0.34 3.87 0.17-0.29 0.12-0.01-0.14-0.02-0.1 0.29-0.12zm6.34-0.16c-0.17 0.15-0.73 0.12-1.12 0.12 0.07-0.1 0.85-0.09 1.12-0.12zm-104.1 12.72c0.26-0.25 1.66-0.34 1.44-0.21-0.05 0.02-1.54 0.33-1.44 0.21zm89.03-12.15c-0.12-0.21 1.37-0.2 1.48-0.15 0.47 0.17-1.36 0.09-1.48 0.15zm23.18-0.77c0.26-0.17 1.01-0.09 1.49-0.09-0.22 0.14-1.08 0.09-1.49 0.09zm-3.47-0.08c0.03-0.01 0.7-0.01 0.73 0 0.55 0.16-1.34 0.15-0.73 0zm-143.06 22.73c0.02-0.02 0.51-0.18 0.53-0.18 0.48 0-0.97 0.48-0.53 0.18z"/>
</svg>