<svg width="135" height="37" viewBox="0 0 135 37" fill="none" xmlns="http://www.w3.org/2000/svg">
<path d="M14.7637 34.7159C14.8229 34.6609 15.123 34.5561 15.24 34.4843C15.2038 34.7461 14.5496 34.9147 14.7637 34.7159ZM21.6885 14.3474C21.6052 14.4293 21.5223 14.5111 21.4398 14.5928C21.4251 14.6071 21.4105 14.6215 21.3959 14.6358C21.4138 14.6305 21.4319 14.6249 21.4503 14.6191C21.7839 14.5133 22.1938 14.3158 22.5072 14.2442C22.5606 14.2324 22.4862 14.4266 22.6077 14.3863C22.7294 14.3459 22.6297 14.1594 22.7959 14.0704C22.9833 13.9702 23.9337 13.7605 24.2445 13.6396C25.4022 13.1848 26.5383 12.6399 27.7407 12.3045C26.5799 12.8848 27.8587 12.594 28.1692 12.4136C28.2379 12.3736 28.0993 12.0049 29.3443 11.6768C30.1388 11.4696 29.6059 12.2403 30.8028 11.5387C29.6851 11.5058 30.6714 11.1978 31.4446 10.9269C31.5783 10.8792 32.6809 10.5772 33.1574 10.4061C33.3214 10.3467 33.507 10.0722 33.7237 9.99735C33.8727 9.94603 34.0202 10.0163 34.2422 9.93996C35.2733 9.58683 36.2976 9.26202 37.3538 8.98487C36.8953 9.67101 37.8965 9.05588 37.9541 9.06568C38.2435 9.12811 37.1294 9.50305 37.5999 9.45556C38.2186 9.25345 38.8327 9.05586 39.4542 8.85919C38.9239 8.94533 40.0079 8.23862 40.2756 8.34222C40.0552 7.91738 43.2336 7.93575 43.6427 7.67243C43.7286 7.61624 43.0534 7.55619 44.5068 7.28116C44.6637 7.25211 44.6409 7.40289 44.7183 7.36916C44.7645 7.34898 44.9454 6.84157 45.3205 6.99896C45.457 7.05727 44.7997 7.52531 46.3749 7.00296C45.6218 6.72311 48.5487 6.2068 49.1039 6.19746C48.984 6.16344 48.864 6.12952 48.7441 6.09569C49.3056 6.13009 49.3651 5.95828 49.4853 5.93842C49.9701 5.85849 50.6581 5.85851 51.1004 5.74348C51.6156 5.60988 51.5557 5.33432 52.1875 5.30609C52.0297 5.27738 51.8719 5.24883 51.7142 5.22044C52.1373 5.14102 52.5607 5.06296 52.9838 4.98637C52.0915 5.563 53.1968 4.95778 53.2739 4.93357C53.3955 4.89348 53.2488 5.08126 53.4529 5.01789C53.4739 5.01025 53.4123 4.87615 53.7303 4.79174C54.3933 4.61691 54.325 4.81676 54.6061 4.75573C54.6318 4.74951 54.5145 4.64118 54.9959 4.51025C56.5247 4.09811 55.0081 4.60832 54.9525 4.63889C54.8798 4.67862 55.5178 5.09703 54.1682 5.18398C54.6206 5.15099 54.714 5.37668 54.7647 5.3721C54.8094 5.36736 55.565 5.17711 55.6053 5.16088C55.9639 5.00489 55.6014 4.91153 55.6686 4.86792C55.7236 4.83207 56.6866 4.85644 56.8073 4.33147C57.3359 4.69093 56.6332 4.78477 55.9084 5.00268C55.819 5.11551 56.6478 5.04166 56.6901 5.03348C57.7351 4.82709 57.0851 4.57437 57.2684 4.29506C57.3652 4.14887 57.842 4.31664 57.383 4.06396C58.3315 3.8457 57.7885 4.14783 57.8557 4.16405C57.9564 4.1877 58.2722 4.03015 58.3165 4.0349C58.3813 4.04197 58.1896 4.19608 58.4389 4.19074C58.48 4.18905 58.8335 3.91971 58.3129 3.9203C58.9902 3.82216 58.9046 3.66577 59.1947 3.96097C59.5414 3.23784 59.5994 4.27703 59.7877 4.27983C60.2886 4.28702 60.0588 3.81095 60.0799 3.78183C60.1331 3.71451 60.3432 3.66257 60.6062 3.61835C61.079 3.53854 61.7209 3.48557 61.9273 3.40327C61.8568 3.78658 60.8604 3.58894 60.6627 3.69656C60.6487 3.70417 60.6357 3.71145 60.6237 3.71843C60.4344 3.82904 60.5014 3.86276 60.6524 3.88169C60.9379 3.91718 61.5225 3.9024 61.2491 4.24882C61.4393 4.0875 61.63 3.9265 61.8211 3.76581C62.2591 3.99309 61.7289 4.21158 62.7568 3.93191C62.8864 3.65099 62.0239 4.09402 62.1736 3.86506C62.2618 3.7301 62.865 3.60511 62.8669 3.54184C62.8668 3.4656 62.3321 3.64369 62.3998 3.5156C62.5487 3.23624 64.5907 3.1506 63.087 3.52888C63.5115 3.45606 63.8082 3.9109 64.1521 3.7008C64.3758 3.5652 62.9261 3.09548 64.9615 2.90951C65.0392 3.13405 64.1664 3.10088 64.1469 3.12242C64.12 3.15284 64.3544 3.65085 64.3848 3.67254C64.4904 3.74039 66.5023 3.15408 66.9742 3.35864C66.7596 3.07919 68.5186 3.08982 68.6934 2.97495C68.74 2.94288 68.5286 2.78226 68.5795 2.75557C68.897 2.59415 69.8447 2.80855 70.2626 2.76588C70.7323 2.71759 70.6536 2.56494 70.6798 2.56195C70.8873 2.54574 70.7356 2.67449 70.8617 2.65885C71.052 2.6341 72.3629 2.50322 72.4262 2.47403C72.4447 2.46477 72.21 2.30579 72.4915 2.23858C72.5407 2.22722 72.5325 2.44687 73.3682 2.25998C74.3755 2.0363 72.6301 2.06701 73.0286 1.79327C73.7207 2.04526 73.6637 1.72713 73.8444 1.73317C73.9072 1.73575 74.3924 1.96029 74.8886 1.89234C74.5358 1.97312 74.1842 2.05467 73.8329 2.13708C74.1875 2.14734 74.8627 2.01749 75.1568 2.04283C75.3001 2.05508 75.2069 2.29115 75.5114 2.25472C75.5757 2.246 75.7795 1.67242 75.0027 1.99854C74.9188 1.80965 75.3132 1.89826 75.4843 1.82559C75.5103 1.81433 75.5828 1.47744 75.8296 1.65819C75.8884 1.70354 75.3912 2.71047 76.8473 1.87721C76.8942 1.85042 76.7128 1.74696 76.7583 1.71776C76.7896 1.69787 77.1822 1.71033 77.2243 1.68951C77.2668 1.66731 77.0664 1.55425 77.1165 1.52382C77.3742 1.36706 77.7732 1.8521 77.2155 1.86291C77.4067 1.90986 77.5975 1.95709 77.7879 2.00458C77.5554 1.63262 78.0686 1.8691 78.3223 1.83529C79.9569 1.61996 78.8371 1.45935 79.1084 1.30441C79.5454 1.05671 79.252 1.75159 79.9097 1.49739C79.9702 1.4743 79.1335 1.25315 80.7375 1.29054C80.5039 1.31921 80.27 1.34829 80.0356 1.37777C80.201 1.74389 80.8811 1.28677 80.9354 1.27769C81.5569 1.18006 81.1452 1.3459 82.0588 1.08632C82.1405 1.06311 82.326 1.14391 82.5014 1.08542C83.2246 0.844258 81.5241 1.03521 81.4662 0.887328C81.4386 0.81238 83.277 0.706295 83.3413 0.739739C83.6187 0.879983 82.5142 0.863047 82.7365 1.04523C82.817 1.10623 85.4234 0.804515 85.9522 0.857607C86.5619 0.91484 86.8608 1.41445 86.8364 0.838619C87.0344 1.39533 87.1661 1.00283 87.2436 1.00313C88.1837 1.01273 88.1826 1.0189 88.9851 0.932738C89.1626 0.914067 89.3187 1.07999 89.3803 1.04871C89.4161 1.02988 89.3412 0.848827 89.5177 0.785666C89.7605 0.697882 91.2629 0.839128 91.378 0.938697C91.4914 1.03685 90.7482 1.00107 90.8864 1.16408C91.4221 1.16474 91.9377 1.10963 92.4773 1.11476C92.703 1.11742 92.5897 1.23687 92.6871 1.23701C92.7293 1.23717 93.5002 1.11879 93.4661 1.07662C93.3907 0.974568 90.9957 1.10102 91.6212 0.881205C91.7424 0.838291 92.1776 1.09662 92.1013 0.771101C94.2461 0.792358 96.384 0.844593 98.5384 0.93206C97.3029 1.16896 95.9171 0.954733 94.626 0.994828C94.4514 0.99969 93.8539 0.977423 93.929 1.14182C95.021 1.1662 96.3868 1.06922 97.4406 1.17834C97.4744 1.18192 97.3505 1.33051 97.4767 1.35415C97.7111 1.39787 98.4818 1.1613 98.6113 1.22453C98.6335 1.23902 98.1936 1.43256 98.3264 1.55785C98.6666 1.87933 98.7575 1.17212 99.0497 1.183C99.2794 1.19024 100.805 1.55368 101.185 1.347C101.211 1.33312 101.229 1.32036 101.24 1.30859C101.26 1.28751 101.259 1.2696 101.241 1.2541C101.114 1.13922 100.08 1.16047 100.176 1.00686C100.536 0.947232 100.895 0.934746 101.247 0.944345C101.937 0.963009 102.612 1.06324 103.255 1.06886C103.272 1.06885 103.126 0.916236 103.347 0.902888C103.736 0.880004 103.828 1.09326 104.012 1.13363C104.205 1.17611 104.929 1.17601 105.016 1.25675C105.028 1.26727 104.876 1.46859 104.854 1.4735C104.541 1.54583 104.441 1.27211 104.412 1.26746C104.306 1.25294 104.197 1.35207 104.102 1.34229C103.945 1.32605 103.862 1.22728 103.652 1.21138C103.507 1.20011 103.641 1.38841 103.501 1.37517C103.448 1.36927 102.912 0.932662 102.847 1.35889C102.826 1.47848 107.33 1.84924 107.791 1.78906C107.411 1.71335 107.017 1.63845 106.637 1.56596C107.415 1.73348 108.389 1.45633 108.422 1.96572C111.342 2.20697 114.281 2.54411 117.229 3.02198C117.75 3.14397 117.411 3.41906 118.292 3.46245C118.085 3.32446 117.876 3.18688 117.668 3.05053C118.103 3.18435 120.048 3.65715 120.378 3.6553C120.421 3.65463 120.528 3.37404 121.028 3.44316C121.47 3.50516 121.492 3.73466 121.72 3.82284C121.909 3.89585 122.137 3.88332 122.193 3.90733C122.236 3.92594 122.227 4.06156 122.327 4.10622C122.645 4.24644 122.455 3.81923 122.696 4.31472C122.612 4.3142 122.528 4.31356 122.443 4.31281C122.832 4.45787 123.339 4.7694 122.727 4.73864C122.623 4.73381 122.737 4.62454 122.662 4.60899C119.674 4.02942 122.016 4.7503 123.085 4.77608C123.09 4.78169 123.096 4.78728 123.102 4.79284C123.15 4.79736 123.289 4.84192 123.336 4.8485C123.612 5.0951 125.124 5.40607 125.167 5.46358C125.223 5.53809 124.911 5.60542 125.224 5.83893C125.277 5.86837 127.447 6.48659 126.596 6.46871C126.414 6.4576 125.422 6.07692 125.184 6.01649C125.62 6.56829 127.158 6.47752 127.322 6.56244C127.925 6.85351 126.003 6.45511 127.388 7.0169C128.473 7.48168 127.537 6.81878 128.009 6.88057C128.271 6.90218 129.445 7.76688 129.585 7.41369C130.07 7.61014 129.703 7.6575 129.754 7.69948C129.799 7.7301 130.78 8.1314 131.052 8.4126C131.084 8.44477 130.858 8.54213 130.888 8.58054C130.945 8.63711 131.873 9.22965 131.918 9.25639C131.949 9.26395 131.839 8.96043 131.954 8.99211C132.094 9.01901 132.931 9.76909 133.002 9.78046C133.13 9.77181 132.025 8.92127 132.323 8.91729C132.692 9.2457 133.304 9.69396 133.721 9.96617L133.589 9.83803C133.649 9.85004 133.702 9.85083 133.747 9.84226C133.723 9.84869 133.681 9.82762 133.633 9.79106L133.767 9.92069C133.619 9.78247 133.446 9.61556 133.364 9.52836C133.479 9.46657 133.728 9.60261 133.922 9.7655L133.783 9.63076C133.888 9.68684 133.909 9.78086 133.769 9.83436C133.91 9.7937 133.914 9.70987 134.02 9.64783C134.049 9.63403 134.113 9.67964 134.152 9.6466C134.16 9.64057 134.174 9.50945 134.223 9.4736C134.271 9.44398 134.318 9.45683 134.364 9.48628C134.404 9.51214 134.525 9.61287 134.544 9.64374C134.591 9.72477 134.466 9.69082 134.369 9.68231C134.27 9.67238 134.203 9.69014 134.159 9.7337C134.153 9.74117 134.139 9.81224 134.157 9.9054C134.172 9.99621 134.239 10.1225 134.237 10.1339C134.183 10.2355 134.062 10.1705 133.997 10.1396C133.928 10.1066 133.892 10.0909 133.838 10.1792C133.856 10.2464 133.889 10.3238 133.968 10.4323C133.608 10.3547 133.56 10.3058 133.3 10.1473L133.422 10.2656C133.19 10.0714 132.975 9.92813 132.827 9.89358C133.007 10.0398 133.184 10.1948 133.342 10.3456L133.222 10.23C133.382 10.3631 133.465 10.4498 133.493 10.5628C133.518 10.6744 133.526 10.8389 133.399 11.0177C133.26 11.1945 133.021 11.1817 132.996 11.2329C132.878 11.4023 133.281 11.4191 133.316 11.4555C133.321 11.4741 133.32 11.488 133.313 11.4977C133.313 11.4977 133.313 11.4977 133.313 11.4977C133.278 11.5457 133.104 11.4874 132.99 11.4578C132.873 11.4263 132.781 11.3971 132.755 11.4113C132.666 11.4649 132.563 11.8897 132.516 11.9632C132.497 11.9744 132.195 11.8533 132.18 12.0384C132.163 12.2277 132.412 12.414 132.424 12.4411C132.405 12.5461 131.922 12.2902 131.879 12.3176C131.853 12.3343 131.975 12.6486 131.957 12.6942C131.932 12.7381 131.687 12.6844 131.513 12.7398C131.383 12.7819 131.49 12.985 131.45 12.9753C131.428 12.9722 131.137 12.7258 130.999 12.607L131.04 12.6469C130.996 12.6064 130.964 12.5798 130.955 12.5767C130.898 12.557 130.926 12.7309 130.905 12.7823L130.868 12.7468C130.864 12.755 130.86 12.7603 130.854 12.7618C130.854 12.7618 130.854 12.7618 130.854 12.7618L130.89 12.7968C130.828 12.8028 130.664 12.5757 130.654 12.6378C130.652 12.6525 130.698 12.7759 130.75 12.9367L130.719 12.9063C130.788 13.1951 130.912 13.6185 130.858 13.6835C130.715 13.8536 130.35 12.8736 130.439 14.0799C130.44 14.089 130.643 14.1744 130.645 14.1814C130.657 14.3888 129.947 14.1471 130.66 14.6392C129.222 13.8409 130.29 14.7721 129.878 14.908C129.723 14.9534 129.249 14.6156 129.165 14.5667C129.161 14.5617 129.146 14.5493 129.142 14.5442C129.135 14.5408 129.131 14.5394 129.13 14.5404C129.124 14.5506 129.12 14.5603 129.117 14.5694C129.121 14.5747 129.137 14.5876 129.141 14.5927C129.107 14.7422 129.329 14.7873 129.328 14.8943C129.327 14.9342 129.1 14.8452 128.936 14.8121C128.93 14.8055 128.91 14.7887 128.904 14.7819C128.819 14.7728 128.751 14.7837 128.747 14.8442C128.746 14.8592 128.757 14.8824 128.776 14.9104C128.782 14.9182 128.805 14.9373 128.812 14.9449C128.935 15.1039 129.292 15.3958 129.307 15.4179C129.447 15.6826 129.105 15.5632 129.099 15.6646C129.093 15.7343 129.435 16.0095 129.439 16.0216C129.442 16.0549 128.831 15.8547 128.688 15.8282C128.576 15.8114 128.789 16.1167 128.722 16.0938C128.484 16.0124 128.273 15.702 128.179 15.6211C128.169 15.6088 128.131 15.5777 128.121 15.5651C128.094 15.5423 128.074 15.5534 128.057 15.6293C128.067 15.6425 128.106 15.6747 128.117 15.6875C128.121 15.7562 128.138 15.8692 128.182 16.0461C128.195 16.105 128.447 16.3055 128.451 16.3168C128.503 16.5699 128.035 16.1884 127.876 16.2145C127.588 16.2572 128.312 16.7393 127.675 16.3782C127.963 16.8381 128.259 17.0813 128.796 17.4177C128.024 16.9377 127.448 16.6146 127.254 16.6533C127.064 16.6796 127.143 17.0055 128.031 17.6969C127.483 17.2547 127.343 17.5468 127.181 17.4176C127.133 17.3785 126.996 17.1586 126.859 17.0321C126.84 17.0098 126.773 16.9539 126.755 16.9311C126.695 16.8741 126.597 16.9085 126.384 17.2361C126.369 17.2578 126.376 17.2772 126.389 17.2965C126.409 17.3221 126.485 17.3846 126.506 17.4095C126.626 17.5382 126.849 17.7062 126.657 17.7154C126.562 17.6242 126.488 17.5516 126.427 17.4936C126.406 17.4681 126.328 17.4041 126.308 17.3779C126.19 17.2532 126.214 17.3543 126.24 17.4457C126.261 17.4723 126.34 17.5376 126.362 17.5636C126.45 17.6809 126.544 17.7957 126.539 17.8022C126.486 17.8554 126.368 17.8186 126.215 17.721C126.192 17.694 126.109 17.6259 126.087 17.5981C125.936 17.56 125.831 17.4371 125.676 17.287C125.525 17.1377 125.3 16.9558 125.202 16.927C124.93 16.845 124.524 17.0338 124.462 17.0063C124.25 16.9126 124.496 16.833 124.473 16.754C124.457 16.6731 123.663 16.7085 123.628 16.6804C123.517 16.5611 123.728 16.4219 123.717 16.4071C123.601 16.2226 122.515 16.0235 122.214 15.8887C122.188 16.0176 122.785 16.2167 122.345 16.3011C121.839 16.4035 121.975 15.8379 121.972 15.8095C121.519 15.6767 121.053 15.5492 120.577 15.4262L120.802 15.4797C119.013 15.0977 117.242 14.7802 115.441 14.5203C115.422 14.828 116.957 14.8314 116.985 14.8809C117.143 15.1445 114.623 14.7511 114.319 14.6104C114.544 14.708 114.779 14.8082 115.001 14.9077C114.55 15.203 113.719 14.624 113.109 14.7102C112.914 14.7381 113.26 14.9187 113.251 14.9271C113.025 15.0389 112.692 14.8922 112.971 14.7379C112.425 14.8529 112.532 14.6676 112.127 14.6075C112.107 14.6047 112.261 14.7664 111.94 14.7913C111.79 14.8022 110.996 14.7209 110.876 14.8364C110.827 14.8848 111.174 15.4807 111.271 15.0075C112.109 15.3306 111.57 14.8184 111.903 14.8649C111.953 14.8735 111.809 15.125 112.66 15.0954C112.449 15.5567 111.523 15.0911 111.347 15.1331C110.991 15.2164 112.378 15.6143 112.672 15.2719C112.507 15.6329 112.769 15.334 113.078 15.3871C113.413 15.4451 113.255 15.539 113.439 15.5626C113.942 15.6294 113.767 15.3382 114.152 15.6314C113.846 14.8397 114.876 15.6294 115.169 15.8713C114.639 15.8319 114.108 15.7976 113.575 15.7678C113.6 15.8104 113.625 15.853 113.65 15.8956C113.513 15.8724 113.375 15.8493 113.234 15.8264C113.261 15.792 113.289 15.7577 113.316 15.7234C112.571 15.8767 112.424 15.5869 112.366 15.5768C111.612 15.4585 110.732 15.3716 109.957 15.3013C109.841 15.2914 109.902 15.5387 109.07 15.2782C108.805 15.1958 109.076 15.0276 108.765 15.0313C108.337 15.5141 108.381 15.1062 108.266 15.0968C107.937 15.0724 107.724 15.1856 107.695 15.1849C107.29 15.1763 106.697 15.1169 106.243 15.1098C106.235 15.1113 106.459 15.2827 106.171 15.2191C106.074 15.1965 105.189 14.4707 104.369 14.6558C104.574 14.7104 104.786 14.7658 104.993 14.8214C104.743 14.7426 103.014 14.8445 103.429 15.042C103.678 15.1613 104.337 14.7534 104.384 15.1746C103.947 15.0559 101.964 15.0737 100.954 15.0585C100.654 15.0528 100.438 15.0418 100.381 15.0183C100.347 15.0039 100.561 14.8719 100.514 14.8537C100.478 14.8394 99.7407 14.86 99.646 14.807C99.5888 14.7752 99.9127 14.6964 99.8871 14.6472C99.8678 14.6115 98.9448 14.5426 98.8928 14.7129C99.1183 14.6463 99.7542 14.7136 99.4194 14.8531C99.3766 14.8703 99.1554 14.7582 99.1027 14.7803C98.6191 14.9836 100.056 14.949 100.281 14.9561C99.3774 15.1568 97.9819 14.8902 96.9302 15.0347C96.5065 14.8938 97.5609 14.8172 97.0791 14.7004C96.0841 14.4597 96.8155 14.8969 96.7841 14.9149C96.5414 15.0579 95.6866 14.2979 95.6936 14.8811C95.3326 14.7967 95.4493 14.7218 94.9375 14.804C95.0056 14.8436 95.0735 14.8831 95.1413 14.9227C94.5804 15.2656 93.3656 14.436 93.4545 14.3698C93.6902 14.1909 94.3266 14.4516 94.3783 14.4445C94.4571 14.434 94.6667 13.8378 95.5407 14.358C95.8935 13.957 94.1611 14.1062 94.9465 13.8263C94.4196 13.8737 92.217 13.6433 91.908 13.8289C91.8706 13.8527 92.0582 14.2426 91.5087 14.057C91.2493 13.9687 91.8699 13.9462 91.7496 13.8596C91.382 13.5795 86.4549 13.9569 85.5247 14.0408C85.4642 14.0447 85.4794 13.921 85.4199 13.9256C85.2383 13.9392 84.5787 14.162 84.2488 14.1266C84.9393 14.3106 83.6278 14.4108 83.2882 14.4099C82.7783 14.4066 82.7945 14.1895 82.5714 14.1592C81.7076 14.0424 80.4395 14.6565 79.7413 14.2356C79.8163 14.7059 78.5846 14.1008 78.0478 14.1474C77.6297 14.1825 77.0531 14.5543 77.6352 14.6912C76.911 14.7378 76.164 14.902 75.4923 15.002C75.3815 15.0186 75.52 14.8626 75.3313 14.8953C75.3143 14.8993 75.3051 15.0388 75.1434 15.0706C73.8079 15.3368 74.4329 14.9748 74.1708 14.9169C74.0245 14.8848 73.9177 14.8728 73.8403 14.8736C74.6211 14.7573 75.5258 14.6073 75.7672 14.5785C75.5288 14.2959 74.0289 14.8233 73.5713 14.7953C73.5553 14.7941 73.5905 14.6212 73.5746 14.6219C73.5742 14.6219 73.5739 14.622 73.5736 14.622C73.4024 14.6279 72.3373 14.8168 72.582 14.9893C72.6479 15.0352 73.1398 14.9758 73.7244 14.8908C73.5701 14.9462 73.7099 15.1193 73.6828 15.1305C73.3538 15.2612 72.5045 15.1773 72.2066 15.1892C72.1386 15.1921 72.1581 15.311 72.1471 15.3126C71.8762 15.3184 71.9431 14.9638 71.7131 15.3496C71.1756 14.9846 72.6133 15.1742 72.4818 14.9108C72.3784 14.7014 69.2984 15.2156 69.3551 15.5545C69.3395 15.5202 69.291 15.4816 69.1971 15.4432C68.989 15.3571 68.135 15.5139 67.9959 15.5975C67.9727 15.6132 68.0297 15.9359 67.9992 15.9434C67.9237 15.9613 66.839 15.8622 66.4786 16.1145C66.6959 16.1275 66.9136 16.1408 67.1311 16.1545C65.8599 16.3504 66.0726 16.4187 66.51 16.4495C66.5313 16.4472 66.5537 16.4563 66.5741 16.4545C66.9125 16.4756 67.3439 16.4816 67.3539 16.5063C67.3911 16.5973 65.2513 16.9858 65.6167 16.6221C65.6679 16.5712 66.6845 16.5496 66.158 16.4122C66.0658 16.3878 65.4355 16.5503 65.3985 16.5324C65.1476 16.4107 66.5139 15.9815 66.3088 15.7859C66.0017 16.0508 65.5475 16.0078 65.1672 16.1254C64.994 16.1788 64.977 16.3481 64.9556 16.3547C64.6364 16.4502 64.7916 16.2504 64.6834 16.2725C64.625 16.2848 64.0433 16.7534 64.0812 16.235C62.029 16.9644 63.5575 16.6956 64.8505 16.4549C64.4699 16.7031 63.653 16.7507 63.3005 16.8556C63.1741 16.8933 63.2794 17.046 63.0675 17.1172C63.0434 17.1253 63.014 17.1336 62.9799 17.1419C62.3955 17.2812 60.4269 17.4675 59.8914 17.5305C60.2224 17.4058 60.0877 17.2448 59.8255 17.3085C59.5635 17.3724 59.8324 17.5698 59.7859 17.6057C59.7361 17.6421 58.475 17.7743 58.2755 17.8485C59.1899 17.5734 58.9443 17.4357 58.1481 17.5775C58.252 17.5025 58.3561 17.4276 58.4603 17.3527C58.011 17.5182 56.9767 17.448 56.7257 17.5868C56.6864 17.6087 56.8694 17.7274 56.8473 17.7397C56.6264 17.8527 55.7921 17.8717 55.7663 17.9315C55.7441 17.981 56.1125 18.0333 55.9993 18.1228C55.9758 18.1415 55.6028 18.0093 55.2905 18.1305C55.1746 18.1754 55.2782 18.3016 55.2498 18.3165C55.0127 18.4408 55.1083 18.1681 54.6561 18.3094C54.3248 18.4136 54.1284 18.7036 53.6444 18.7333C55.2401 18.6835 53.9272 18.8494 53.3103 19.0881C53.2114 19.1264 53.3593 19.3626 52.7202 19.3805C53.9098 18.6113 52.291 19.2205 51.9491 19.2988C51.93 19.3017 51.8829 19.1337 51.715 19.1712C51.7009 19.1747 51.7488 19.2843 51.5957 19.3305C50.1397 19.7727 51.0521 19.4137 50.7439 19.3694C50.6131 19.3502 49.9359 19.6902 49.7441 19.7431C49.6999 19.7547 49.6903 19.6308 49.52 19.6788C49.2189 19.764 48.9795 19.9598 48.7815 20.0214C48.7584 20.0281 48.7088 19.8411 48.3452 20C48.243 20.0446 48.1409 20.1421 48.306 20.1565C48.8536 20.2023 49.7275 19.6535 50.3425 19.689C50.9011 19.7205 49.2695 20.1446 49.1871 20.1685C49.1561 20.177 49.4506 20.0029 49.1225 20.0671C48.8408 20.1226 48.4194 20.5758 47.9916 20.6131C47.9588 20.616 47.5576 20.4293 47.5685 20.4094C47.579 20.394 48.0697 20.2016 47.9752 20.1419C47.9646 20.1349 47.6428 20.2214 47.5854 20.1736C47.5152 20.1154 47.1902 19.4484 47.1165 19.4491C46.9282 19.4524 47.0858 19.5823 46.9686 19.6015C46.7187 19.6423 45.8116 19.6645 45.8507 19.9158C45.9947 19.8921 46.1389 19.8685 46.2833 19.845C45.5095 20.0817 45.871 20.0952 45.7729 20.1709C45.6678 20.2527 45.6425 20.0296 45.3751 20.0815C45.3165 20.092 44.2301 20.4428 44.2767 20.5271C44.8417 20.2146 44.6915 20.5417 44.7206 20.5386C44.8316 20.5261 44.9261 20.3402 45.0699 20.3035C46.0801 20.0498 45.1331 20.5626 45.3864 20.5575C45.4736 20.5552 45.6003 20.3843 45.6367 20.3813C45.7546 20.3715 45.8018 20.5368 45.8729 20.5029C46.0391 20.4241 45.7711 20.2452 45.7816 20.2292C45.8975 20.0395 46.5615 20.056 46.2485 20.4149C46.5024 20.4449 46.4461 20.1271 46.6611 20.2024C47.0872 20.3517 46.5308 20.4331 46.3945 20.514C45.9082 20.8039 45.7238 20.7258 44.9908 20.9732C44.7274 21.062 44.4552 21.3009 44.3339 21.3441C44.2571 21.3709 43.3712 21.0584 43.585 21.8823C43.2797 21.8843 42.6724 21.4768 42.3861 21.5875C42.1291 21.6873 42.298 21.9514 42.2766 21.9698C42.2444 21.9983 41.9195 22.0695 41.8232 22.1425C41.7111 22.2283 41.8068 22.3196 41.6201 22.4241C41.1563 22.6841 41.0818 22.3863 41.0248 22.3825C40.3638 22.3413 40.7505 22.681 40.6291 22.7544C40.5152 22.8207 38.7551 23.1896 38.4283 23.4118C38.556 23.3067 38.6858 23.2012 38.8124 23.0968C38.4936 22.9962 38.3078 23.3832 38.1994 23.0572C38.3135 23.6028 37.663 23.4215 37.5048 23.4878C37.4424 23.5141 37.4765 23.6025 37.3975 23.6323C37.0882 23.7493 36.3662 23.9068 36.2099 24.0094C35.5451 24.4461 37.5167 24.1573 37.6721 24.1316C37.3726 24.2196 35.753 24.8853 36.5999 24.8864C36.7312 24.8863 36.8624 24.5819 36.9252 24.5512C37.3527 24.3441 37.0699 24.6706 37.1116 24.6792C37.1815 24.6922 37.4101 24.3916 37.4964 24.3906C37.5251 24.39 37.4189 24.6359 37.85 24.5011C37.6964 24.7546 36.4499 24.9955 36.3058 25.0928C36.255 25.1274 36.7373 25.4049 35.5858 25.3636C35.6101 25.3963 35.6343 25.429 35.6586 25.4617C35.0928 25.669 34.5302 25.8784 33.9697 26.0903C34.0015 25.9847 34.2606 25.705 33.873 25.8799C33.6505 25.9807 33.8859 26.1092 33.8669 26.122C33.6708 26.2374 30.0088 27.4911 29.325 27.7897C29.0914 27.886 28.4871 28.2911 28.4389 28.3135C28.217 28.4125 27.5183 28.6254 27.1193 28.7665C26.9923 28.8114 26.8939 28.8491 26.8458 28.8743C26.7193 28.9409 26.9068 29.0445 26.7863 29.0847C26.6744 29.1219 26.7272 28.9273 26.6923 28.9342C26.4024 28.9839 24.4554 30.0209 23.9208 30.0919C24.226 30.0069 25.5728 29.0934 25.4981 29.0039C25.4857 28.9921 25.0829 29.0272 25.0304 29.1139C24.8525 29.0374 24.603 29.6017 24.3433 29.622C24.3142 29.6243 24.3214 29.3626 23.8996 29.4962C23.755 29.5421 23.4647 29.8685 23.0163 29.8383C22.5236 30.1513 19.643 31.1349 19.5703 31.4624C19.5708 31.4769 19.9934 31.3739 19.7784 31.5917C19.4921 31.882 19.6006 31.3107 19.1813 31.4664C19.1199 31.4872 18.0239 32.0737 18.0006 32.1193C17.7811 32.5208 18.7981 32.139 18.7973 32.1747C18.7976 32.2592 18.013 32.6971 17.974 32.6971C17.934 32.6958 18.4332 32.0588 17.7066 32.5673C17.8157 32.5595 17.9231 32.5526 18.0317 32.5452C17.7008 32.8001 17.5546 32.6042 17.4588 32.6356C17.1594 32.7338 17.024 33.2125 16.3751 33.0372C16.2032 32.9905 16.3364 32.772 16.3136 32.7635C16.0997 32.6917 16.1145 33.1705 15.7545 32.9942C15.7271 32.9817 16.1335 32.5512 15.2675 33.0028C15.3416 32.9989 15.416 32.9948 15.4901 32.991C15.3978 33.116 14.544 33.6142 14.4195 33.6637C14.0557 33.8049 14.2484 33.4491 13.9154 33.6588C14.2803 33.8064 13.2539 34.4098 13.188 34.1485C13.2025 34.5148 12.189 34.7867 11.769 35.0162C11.5018 35.1613 11.0368 35.592 10.9443 35.6259C10.8322 35.6665 10.7514 35.4541 10.5426 35.5166C10.482 35.5349 10.016 35.9934 9.41537 36.0756C9.29985 36.0913 8.90903 35.8791 9.03621 35.6944C9.25261 35.3787 9.97231 35.3158 9.85193 35.1259C9.72338 34.9217 9.03322 35.4884 8.81178 35.5825C7.78992 36.0144 8.20708 35.4728 8.144 35.4198C7.98475 35.295 7.46741 35.6074 7.43705 35.6059C7.3088 35.5945 7.60165 35.2481 7.54894 35.146C7.47987 35.013 6.83933 35.0787 6.9279 34.9677C7.05584 34.8085 7.63191 34.7295 7.65607 34.7029C7.96367 34.3536 7.26572 34.3634 7.03452 34.3031C6.96415 34.2841 7.09507 34.1071 7.05097 34.1153C6.37824 34.2431 7.18177 34.6018 6.78832 34.7791C6.43739 34.9376 6.74507 34.4911 6.72626 34.4878C6.70287 34.4856 6.30286 34.7086 6.20032 34.6762C6.14895 34.6594 6.9477 33.673 6.80483 33.5281C6.50001 33.7585 6.19483 33.9901 5.89044 34.2219C5.73274 34.0153 6.30031 33.8992 6.3356 33.8475C6.40652 33.7433 6.06627 33.7932 6.03638 33.7161C6.01607 33.6677 6.24321 33.3177 5.91376 33.4243C5.80025 33.461 5.68433 33.7401 5.22578 33.7982C6.36986 32.8429 5.41937 33.2394 5.33535 33.1829C5.25187 33.1261 5.7467 32.5816 5.0321 33.0508C4.74312 32.6382 4.96712 32.9046 5.1303 32.7049C5.33065 32.4598 4.65456 32.6681 5.65431 32.2216C5.4818 32.05 4.73758 32.5112 4.68807 32.5191C4.64492 32.525 4.75319 32.3259 4.67344 32.3278C3.73501 32.3579 4.326 32.2474 3.97297 32.12C3.94189 32.1082 3.21876 32.415 3.70542 32.075C4.59207 31.456 5.1499 31.5143 4.94304 30.8087C4.09714 30.9488 3.50228 31.8402 3.29816 31.9714C2.98544 32.1715 3.24074 31.8495 3.18061 31.838C3.16017 31.8349 2.892 32.0093 2.88227 32.0017C2.40702 31.6526 4.10074 31.2621 4.50046 30.9164C4.33873 30.9176 4.17712 30.9189 4.01563 30.9203C4.17664 30.8208 4.33801 30.7212 4.49982 30.6216C3.63891 30.9421 4.44058 30.5844 4.41049 30.0912C4.40371 29.9803 3.97895 30.4286 4.42224 29.8471C3.95984 30.0469 4.05034 29.8888 3.72441 30.2265C3.6437 30.069 4.4205 29.3773 4.72277 29.0954C3.39494 29.648 4.42333 29.7918 3.19256 30.1248C3.1086 30.429 3.59071 30.0924 3.56788 30.148C3.48698 30.3469 3.03604 30.3758 2.85356 31.014C2.82426 31.1184 3.22785 31.1445 2.7992 31.3879C2.75171 31.4145 2.38146 31.4076 2.37788 31.3931C2.33469 31.2399 2.63098 31.1297 2.60904 31.0681C2.58822 31.0098 2.3094 31.2192 2.29971 31.2055C2.19168 31.0458 2.5103 30.9936 2.44192 30.9644C2.29394 30.9002 1.01001 31.1864 2.47035 30.4535C1.42101 31.3352 2.42996 30.7248 2.8406 30.3824C2.94528 30.2955 2.91559 30.1794 3.06006 30.0468C3.24605 29.8758 3.52244 29.7758 3.62179 29.6923C3.72848 29.6021 2.91647 29.7674 3.93168 29.2602C3.29715 29.321 2.57193 30.0888 1.99128 30.2154C0.818344 30.4708 2.43276 29.408 2.58812 29.2731C2.62916 29.2369 2.39483 29.1959 2.42075 29.1693C2.46307 29.1267 3.4471 28.6255 3.47546 28.46C3.50345 28.2943 3.13086 28.6708 3.03323 28.5732C2.96684 28.5072 4.03386 27.6916 3.38044 28.0057C2.93007 28.2222 2.32941 29.0014 1.99858 28.7457C2.60809 28.3445 3.21985 27.944 3.83652 27.5444C3.41596 27.6197 2.9944 27.6966 2.57411 27.7737C3.2572 27.314 3.9564 27.0968 4.53065 26.5182C2.65874 27.0599 4.86902 25.8817 4.86847 25.8185C4.85837 25.7841 4.02002 25.824 3.87969 25.8245C4.37353 25.3622 6.10102 24.2956 4.83436 24.47C5.07518 24.4558 5.39779 23.968 5.38291 23.9536C5.21996 23.8033 4.29681 24.4873 4.36428 24.2305C4.44173 23.9321 4.85319 24.0411 5.12995 23.8567C6.55771 22.9102 5.61417 22.1782 7.22079 21.4991C7.17181 21.4812 7.12284 21.4633 7.07387 21.4454C8.76559 20.5984 10.48 19.7836 12.2118 19.0077C12.7306 18.3775 14.4332 17.3468 15.335 16.9825C15.5166 16.907 16.462 16.6764 16.5413 16.6758C16.687 16.6756 16.0252 16.9948 16.3732 16.9611C16.4467 16.9506 17.9562 16.3705 17.7778 16.2455C17.6016 16.2976 17.1182 16.6114 17.0171 16.6079C16.2866 16.5671 20.9759 14.8476 21.1566 14.6604C21.0314 14.6452 20.9064 14.63 20.7817 14.6149C20.9792 14.556 21.1779 14.4971 21.3778 14.4382C21.4811 14.4079 21.5846 14.3776 21.6885 14.3474ZM15.517 33.7135C15.4556 33.9581 15.0169 34.0305 14.8212 34.1952C14.5534 34.4218 14.381 35.3396 14.2574 34.5808C14.6776 34.288 15.0971 33.999 15.517 33.7135ZM22.2775 30.7399C21.9283 30.7859 22.0007 30.3087 22.3234 30.3493C22.3598 30.3541 22.75 30.6778 22.2775 30.7399ZM18.9769 32.0647C18.9874 32.0535 19.2567 31.9355 19.2678 31.9373C19.5745 31.97 18.7657 32.3236 18.9769 32.0647ZM34.9703 25.3679C34.6162 25.5072 34.9953 25.7671 35.1705 25.5474C35.1815 25.5335 34.9937 25.359 34.9703 25.3679ZM34.7113 25.446C34.3216 25.2303 33.9758 26.0578 34.4023 25.8392C34.443 25.8178 34.7303 25.4564 34.7113 25.446ZM21.1096 31.0928C21.0917 30.9617 21.4363 30.871 21.5837 30.8374C21.6276 30.9442 21.2384 31.0178 21.1096 31.0928ZM29.3303 27.6163C29.3091 27.5167 28.1593 27.9659 28.1316 28.1189C28.29 27.996 29.3491 27.7038 29.3303 27.6163ZM32.2548 26.3856C32.219 26.38 31.8262 26.5495 31.8681 26.6278C32.1021 26.6653 32.4143 26.411 32.2548 26.3856ZM38.252 24.3587C38.2678 24.3306 37.7898 23.8965 38.63 24.0148C38.7533 24.0321 38.4154 24.2925 38.4596 24.2995C38.5509 24.3114 38.6193 24.3088 38.6708 24.2959C38.3454 24.4477 38.003 24.5808 37.9588 24.5594C37.751 24.4582 38.2446 24.3705 38.252 24.3587ZM41.314 22.9726C41.3576 22.8642 41.8207 22.7765 41.9341 22.782C41.9537 22.7835 41.9452 23.0357 42.1429 22.9584C42.3015 22.896 41.989 22.7328 42.3168 22.6768C42.6469 22.6205 42.2704 22.9137 42.3017 22.9175C42.3434 22.922 42.806 22.6713 42.831 22.8127C42.8484 22.9175 42.3019 23.0037 42.1755 23.0649C42.0157 23.1424 42.2692 23.2506 41.9781 23.2977C41.7955 23.3276 41.8045 23.002 41.7629 22.9981C41.7275 22.9953 41.1655 23.3502 41.3152 22.9733C41.3148 22.9731 41.3144 22.9728 41.314 22.9726ZM38.7585 24.2537C38.7361 24.2718 38.7078 24.2866 38.6708 24.2959C38.7003 24.2821 38.7295 24.2677 38.7585 24.2537ZM16.3249 33.1399C16.5261 33.1435 16.1147 33.4932 15.8829 33.4734C15.8326 33.3857 16.2923 33.1397 16.3249 33.1399ZM38.9976 23.9139C39.5225 23.8303 39.1873 24.0467 38.7585 24.2537C38.8831 24.1532 38.8211 23.9424 38.9976 23.9139ZM25.0304 29.1139C25.0596 29.1267 25.0864 29.1545 25.1108 29.2083C25.0324 29.171 25.0142 29.141 25.0304 29.1139ZM26.1931 28.7479C26.5094 28.4246 25.7297 28.7504 25.7827 28.8685C25.8029 28.9127 26.1825 28.7598 26.1931 28.7479ZM35.4398 25.2273C35.3976 25.2231 35.7929 24.5155 35.0973 25.1814C35.558 25.093 35.1125 25.3063 35.1349 25.3491C35.1957 25.4726 35.8956 25.0977 36.0761 25.1004C36.1264 24.8253 35.5803 25.2408 35.4407 25.227C35.4404 25.2271 35.4401 25.2272 35.4398 25.2273ZM47.1393 21.4533C47.0749 21.619 46.7369 21.6621 46.5156 21.7136C46.5799 21.5474 46.9193 21.5034 47.1393 21.4533ZM105.887 15.2491C104.354 15.3015 104.181 14.7112 105.57 15.011C105.599 15.0171 105.984 15.195 105.887 15.2491ZM92.6147 14.9333C92.4609 14.6822 92.9494 14.6294 93.2707 14.7281C93.3436 14.7502 93.6148 15.0028 93.3118 15.0594C93.3159 14.7505 92.8398 14.6426 92.6147 14.9333ZM39.2328 23.6691C39.3282 23.461 39.8189 23.4348 40.0651 23.3858C39.9611 23.564 39.4585 23.6538 39.2328 23.6691ZM100.848 14.7575C100.687 14.735 100.572 14.9545 100.6 14.9735C100.724 15.0603 101.03 14.8873 100.848 14.7575ZM37.7679 24.1069C37.7159 24.0168 38.2826 23.7325 38.4009 23.9585C38.267 23.9818 37.8021 24.1626 37.7679 24.1069ZM46.7058 21.4911C46.5979 21.4667 47.0628 21.2456 47.223 21.256C47.2391 21.3634 46.7769 21.5064 46.7058 21.4911ZM98.2166 14.8002C98.0677 14.7801 97.7043 14.7732 97.6634 14.8627C97.6133 14.9744 98.147 14.9379 98.2166 14.8002ZM123.69 17.7161C123.687 17.7574 123.21 17.8797 123.05 17.7452C122.76 17.4882 123.701 17.683 123.69 17.7161ZM102.394 14.6818C102.844 14.9065 102.343 14.6869 102.356 14.9094C102.661 14.9259 103.433 14.9638 102.909 14.7275C102.805 14.6818 102.538 14.7005 102.394 14.6818ZM101.97 14.5955C101.916 14.6658 101.585 14.8839 101.868 14.875C102 14.8707 102.223 14.6251 101.97 14.5955ZM120.93 16.912C120.632 16.62 122.218 17.188 122.23 17.2388C122.248 17.2635 122.257 17.2846 122.261 17.3011C122.335 17.2588 122.622 17.3419 122.601 17.5014C122.525 17.4618 122.289 17.3988 122.268 17.374C122.259 17.3632 122.252 17.3538 122.248 17.3452C122.116 17.4399 121.002 16.9655 120.93 16.912ZM118.338 16.1465C118.84 15.946 118.825 16.4462 118.783 16.454C118.262 16.5591 118.645 16.2629 118.633 16.2432C118.606 16.209 118.228 16.3093 118.339 16.1468C118.338 16.1467 118.338 16.1466 118.338 16.1465ZM120.388 16.6813C120.409 16.6798 120.751 16.7873 120.765 16.7995C121.007 17.036 120.03 16.7305 120.388 16.6813ZM43.6342 21.9312C43.9224 21.8995 43.7027 22.1509 43.5028 22.1407C43.4861 22.1389 43.3801 21.9592 43.6342 21.9312ZM101.743 14.6383C101.714 14.6219 101.35 14.577 100.965 14.5613C100.517 14.5426 100.038 14.5652 100.091 14.7147C100.155 14.7014 100.565 14.7273 100.961 14.7431C101.476 14.7631 101.965 14.7668 101.743 14.6383ZM89.0773 14.6885C89.3755 14.6786 89.0612 14.9496 88.8978 14.8602C88.8371 14.8269 89.002 14.6912 89.0773 14.6885ZM36.8892 24.1457C36.64 24.3767 36.5521 23.9047 36.8577 23.9762C36.8697 23.979 36.899 24.1367 36.8892 24.1457ZM91.4755 14.7527C90.4515 14.9414 90.6654 14.1131 92.0212 14.3514C91.9801 14.389 91.9389 14.4266 91.8978 14.4642C93.4485 14.5474 92.0082 14.5179 91.6258 14.5754C91.4813 14.597 91.606 14.73 91.4765 14.7536C91.4762 14.7533 91.4759 14.753 91.4755 14.7527ZM87.5012 14.7432C86.4759 14.2116 88.3972 14.4959 88.9394 14.4C88.4217 14.6616 87.7297 14.6566 88.6779 14.8607C87.3102 14.9688 87.8717 14.7131 87.8153 14.696C87.7499 14.6774 87.5449 14.766 87.5012 14.7432ZM90.1267 14.6287C90.1827 14.6096 90.621 14.7127 90.777 14.6884C90.5631 14.8936 89.7503 14.7576 90.1267 14.6287ZM115.198 15.761C115.256 15.6124 115.352 15.5102 115.671 15.6172C115.557 15.6789 115.343 15.7148 115.198 15.761ZM14.8518 33.1391C14.6429 33.2368 14.209 33.4025 14.4106 33.4801C14.4299 33.4853 14.8955 33.2195 14.8518 33.1391ZM96.8362 14.4577C96.7895 14.4377 95.4903 14.4331 95.9398 14.6018C96.079 14.6516 97.249 14.6259 96.8362 14.4577ZM103.5 14.5873C103.395 14.5815 102.957 14.5955 102.946 14.632C102.913 14.7579 103.45 14.707 103.5 14.5873ZM13.7486 33.5491C13.7143 33.5488 13.1065 33.9129 13.211 33.942C13.4098 33.9953 13.8664 33.5483 13.7486 33.5491ZM44.5375 21.2958C44.5938 21.274 44.7159 21.4152 44.7364 21.4114C44.7829 21.4001 45.8289 21.0428 45.4804 21.3643C45.4211 21.4169 43.8755 21.7647 43.6718 21.8026C43.5312 21.6014 44.2425 21.6277 44.3954 21.5601C44.4223 21.5478 44.3873 21.3561 44.5373 21.2969C44.5374 21.2965 44.5375 21.2962 44.5375 21.2958ZM116.903 15.8624C116.975 15.7225 118.208 15.8411 118.162 16.0166C117.74 15.9612 117.327 15.9109 116.903 15.8624ZM116.289 15.7371C116.045 15.5925 116.66 15.6557 116.833 15.7318C116.819 15.8297 116.323 15.7576 116.289 15.7371ZM101.083 13.9653C100.952 13.9985 101.348 14.2223 101.257 14.2622C101.22 14.2781 101.087 14.2477 100.971 14.2416C100.909 14.2382 100.851 14.2423 100.818 14.2656C100.804 14.2768 100.881 14.3421 100.968 14.3991C101.044 14.4481 101.128 14.4909 101.168 14.4878C101.289 14.4788 101.175 14.3171 101.308 14.319C101.745 14.3256 102.13 14.4496 102.539 14.4596C102.576 14.4602 102.294 14.3391 102.608 14.3504C102.655 14.3519 102.944 14.5283 103.322 14.5172C104.171 14.0301 104.764 14.5642 105.823 14.4338C105.785 14.3822 105.006 14.2113 104.959 14.2048C104.082 14.0755 102.497 14.0091 101.567 13.9871C101.328 13.9809 101.441 14.0934 101.339 14.095C101.257 14.0962 101.359 13.8951 101.083 13.9653ZM14.9073 32.9828C14.7165 32.8539 14.4329 33.1497 14.2114 33.2566C14.3731 33.3775 14.6754 33.0541 14.9073 32.9828ZM110.748 14.876C110.627 14.8719 110.254 14.7756 110.216 14.8336C110.17 14.9092 110.71 15.0105 110.748 14.876ZM50.557 19.7636C50.5674 19.7552 50.8641 19.6932 50.8768 19.6967C51.1783 19.7901 50.2888 19.9752 50.557 19.7636ZM57.634 18.1927C57.8541 18.1214 58.0679 18.0129 58.1764 18.1588C58.0284 18.1631 57.631 18.3103 57.634 18.1927ZM67.4525 16.4393C67.374 16.2327 68.0777 16.2702 68.2098 16.2711C68.175 16.3726 67.5098 16.5875 67.4525 16.4393ZM115.248 15.0844C115.649 15.156 115.612 14.8208 115.848 15.0059C115.885 15.0371 115.919 15.7296 115.513 15.4106C115.44 15.3536 115.775 15.2395 115.248 15.0844ZM92.2404 14.3525C92.3446 14.2071 92.68 14.2412 92.9102 14.2475C92.8606 14.3545 92.4013 14.338 92.2404 14.3525ZM12.548 34.0208C12.2789 33.9387 11.5591 34.5137 11.8205 34.5197C11.8567 34.5188 12.4329 34.0753 12.548 34.0208ZM40.0659 22.7295C40.3792 22.4674 39.6198 22.6492 39.4283 22.8714C39.5324 22.8282 40.0453 22.7466 40.0659 22.7295ZM65.0654 16.692C65.0822 16.6826 65.4783 16.6342 65.4971 16.6392C65.8456 16.7507 64.7261 16.8884 65.0654 16.692ZM55.2485 18.4358C55.361 18.2768 56.3097 18.1781 56.5452 18.2622C56.3841 18.4904 55.1097 18.6326 55.2485 18.4358ZM113.569 14.95C113.858 14.9796 114.131 15.056 114.386 15.1475C114.318 15.2483 113.589 15.0345 113.569 14.95ZM66.51 16.4495C66.5313 16.4472 66.5537 16.4563 66.5741 16.4545C66.5524 16.4531 66.5309 16.451 66.51 16.4495ZM107.002 14.2607C106.758 14.2018 106.797 14.4061 106.812 14.4131C106.993 14.4897 107.279 14.3276 107.002 14.2607ZM14.5173 32.8511C14.3548 32.7316 14.0526 33.0524 13.8199 33.1288C13.9509 33.221 14.353 32.9596 14.5173 32.8511ZM86.4153 14.4258C86.0855 14.2457 87.372 13.9494 87.6517 14.0643C87.6782 14.1841 86.4616 14.4495 86.4153 14.4258ZM38.8656 22.817C38.7992 22.6884 38.3321 23.016 38.4626 23.0454C38.5463 23.0637 38.9064 22.8968 38.8656 22.817ZM88.3079 14.1173C88.4285 14.0684 88.7187 14.1965 88.6223 14.2863C88.4988 14.4014 88.277 14.1311 88.3079 14.1173ZM99.2346 13.8089C99.1788 13.7862 98.4682 13.9266 98.7604 14.0741C98.9631 14.1766 98.9958 13.9713 99.0449 13.9711C99.1014 13.9717 100.243 14.2374 99.2346 13.8089ZM79.1548 14.8124C79.4187 14.7344 79.7508 14.7697 80.0329 14.7423C79.925 14.8393 79.279 14.9187 79.1548 14.8124ZM40.8595 22.1631C40.7767 22.1261 39.0633 22.6164 40.0825 22.4884C40.1407 22.4804 41.101 22.2719 40.8595 22.1631ZM115.248 15.0844C115.198 15.0753 115.139 15.06 115.072 15.0362C115.14 15.0515 115.198 15.0697 115.248 15.0844ZM110.618 14.5093C110.722 14.415 110.249 14.3424 110.099 14.3846C110.045 14.5065 110.605 14.5222 110.618 14.5093ZM80.0424 14.5964C80.2003 14.5237 80.5006 14.5626 80.7008 14.5397C80.6747 14.6383 80.1212 14.6879 80.0424 14.5964ZM68.6532 15.7589C68.9812 15.7702 69.3708 15.6899 69.3611 15.5724C69.3702 15.5897 69.3885 15.6069 69.4169 15.6229C69.4456 15.6385 69.7818 15.5373 69.9363 15.5572C70.8597 15.6679 66.5115 16.1781 68.9779 15.4943C68.8696 15.5824 68.7613 15.6706 68.6532 15.7589ZM53.9351 18.4463C53.7235 18.3472 53.2624 18.6381 53.4053 18.6631C53.5043 18.6796 54.1465 18.5461 53.9351 18.4463ZM60.8279 16.9251C60.7691 16.9099 60.296 17.102 60.2975 17.1788C60.5949 17.2027 61.0948 16.9961 60.8279 16.9251ZM52.5212 18.6017C52.4037 18.6071 52.3137 18.8661 52.3293 18.8728C52.4626 18.9279 52.7396 18.6825 52.5212 18.6017ZM114.493 14.349C114.34 14.2609 113.787 14.3576 113.655 14.4953C113.638 14.4633 113.585 14.4178 113.484 14.3586C113.484 14.3587 113.485 14.3587 113.485 14.3588C113.354 14.2614 109.067 13.7534 111.917 14.3429C112.006 14.3621 111.896 14.2118 112.261 14.2765C112.285 14.2809 112.285 14.3935 112.359 14.4074C112.531 14.4374 113.427 14.6151 113.626 14.5506C113.625 14.5714 113.634 14.5925 113.657 14.6136C113.856 14.8007 114.615 14.4167 114.493 14.349ZM61.801 16.7243C61.6946 16.7014 61.3875 16.7979 61.373 16.9011C61.5376 16.9197 62.0483 16.7776 61.801 16.7243ZM40.689 21.7912C40.4667 21.7733 40.0113 22.0713 40.186 22.1023C40.2922 22.1214 40.9443 21.8114 40.689 21.7912ZM58.6699 17.3773C59.849 17.2616 58.9442 17.3129 59.0932 17.1356C58.9522 17.2159 58.8108 17.2966 58.6699 17.3773ZM119.626 15.5914C119.457 15.5234 119.719 15.2844 119.887 15.4772C119.939 15.5381 119.722 15.6293 119.626 15.5914ZM125.551 17.577C125.66 17.3403 125.779 17.6224 125.59 17.6945C125.584 17.6968 125.55 17.5875 125.551 17.577ZM121.772 15.9186C121.61 16.0515 121.54 16.0516 121.234 15.9218C121.713 16.0064 121.325 15.7371 121.772 15.9186ZM69.3551 15.5545C69.3581 15.5611 69.3605 15.566 69.3611 15.5724C69.3579 15.5664 69.3561 15.5606 69.3551 15.5545ZM51.4513 18.9033C51.2727 18.7959 50.8717 18.9048 51.0268 19.0185C51.0416 19.0288 51.4176 19.0225 51.4513 18.9033ZM113.655 14.4953C113.671 14.5237 113.659 14.5392 113.626 14.5506C113.627 14.531 113.637 14.5138 113.655 14.4953ZM53.5903 18.2767C53.6004 18.3861 54.225 18.2872 54.2465 18.2695C54.5575 18.0053 53.8437 18.2114 53.5903 18.2767ZM36.66 22.8963C36.6327 22.9172 36.9191 23.1199 37.0076 22.9753C37.0761 22.8631 36.7623 22.8173 36.66 22.8963ZM122.819 16.169C122.981 16.222 123.206 16.2995 123.2 16.4393C123.106 16.3838 122.786 16.261 122.819 16.169ZM125.564 17.3609C125.402 17.4386 125.197 17.3106 125.031 17.1944C125.138 17.0124 125.485 17.3575 125.564 17.3609ZM115.003 14.4976C114.991 14.487 114.515 14.3587 114.562 14.5052C114.633 14.7196 115.127 14.5911 115.003 14.4976ZM37.6322 22.739C37.8155 22.5801 37.2379 22.4572 37.0799 22.7465C37.0001 22.8941 37.6019 22.7652 37.6322 22.739ZM50.1477 19.0259C49.8798 19.1752 50.6253 19.137 50.69 18.9723C50.5548 18.9935 50.2431 18.9729 50.1477 19.0259ZM59.9427 16.7109C58.9481 16.4783 59.5926 17.1296 59.7414 17.0323C59.7623 17.0185 59.9669 16.7162 59.9427 16.7109ZM10.1429 34.4193C10.0579 34.535 10.5872 34.4739 10.574 34.3223C10.5652 34.2275 10.1972 34.3454 10.1429 34.4193ZM73.8403 14.8736C73.8014 14.8794 73.7627 14.8852 73.7244 14.8908C73.7524 14.8807 73.7901 14.8742 73.8403 14.8736ZM47.4012 19.1516C48.1881 19.5548 48.0048 19.1336 48.0612 19.1213C48.1823 19.0963 48.5002 19.1788 48.7196 19.0956C48.4773 19.2263 48.2359 19.3573 47.9954 19.4886C48.2092 19.4745 50.0322 19.2348 50.047 19.1346C50.0672 18.989 49.5194 19.1704 49.5005 19.163C49.4729 19.1523 49.293 18.8072 49.2377 18.8063C49.1477 18.8039 47.6623 19.1785 47.4012 19.1516ZM58.045 17.154C58.2007 17.1682 58.2722 17.3068 58.3331 17.2579C58.3539 17.2412 58.3293 17.1001 58.4013 17.0478C58.2824 17.0831 58.1637 17.1185 58.045 17.154ZM46.3996 19.9674C46.1747 19.8466 46.9969 19.6946 47.0278 19.7071C47.1954 19.785 46.5845 20.0651 46.3996 19.9674ZM53.2545 18.2238C53.2223 18.2205 52.5878 18.3125 52.6147 18.4061C52.7961 18.4389 53.6334 18.2673 53.2545 18.2238ZM58.4974 17.0185C58.721 16.9903 59.1655 17.0492 59.0758 16.8473C59.0755 16.8474 59.0751 16.8474 59.0748 16.8475C58.8827 16.9041 58.6896 16.9612 58.4974 17.0185ZM38.2264 22.0723C37.7234 21.8716 38.0439 22.2247 38.4301 22.2189C38.49 22.0385 38.3092 22.1046 38.2264 22.0723ZM36.8755 22.2358C36.7442 22.2124 35.6302 22.6492 35.8598 22.7653C35.9431 22.8056 36.5433 22.437 36.5779 22.4393C36.6293 22.4421 36.4829 22.701 36.8194 22.5497C36.7778 22.4916 36.9198 22.2432 36.8755 22.2358ZM37.8297 21.9675C37.3546 21.845 37.4134 22.3319 37.7102 22.2383C37.8263 22.2021 37.8976 21.9855 37.8297 21.9675ZM39.461 21.4995C39.3051 21.4997 38.9029 21.5547 38.6899 21.7893C39.0429 21.693 39.4011 21.5963 39.7533 21.5025C39.767 21.4034 39.597 21.4995 39.46 21.4998C39.4603 21.4997 39.4607 21.4996 39.461 21.4995ZM128.074 17.8767C127.914 17.6691 128.077 17.7363 128.272 17.8473C128.471 17.9615 128.659 18.0853 128.659 18.1066C128.689 18.2633 128.239 18.0786 128.074 17.8767ZM5.69498 31.9502C5.58672 31.951 5.44294 31.8279 5.31349 32.0136C5.55906 32.0218 5.80445 32.0303 6.05026 32.0389C6.03548 31.6961 5.81347 31.9499 5.69498 31.9502ZM4.44881 31.4024C4.47037 31.3811 4.09431 31.0627 4.57983 31.1361C4.90694 31.1857 3.81348 32.0738 3.49169 32.0263C3.68146 31.801 4.26225 31.5826 4.44881 31.4024ZM1.31487 30.927C1.28194 30.9034 1.70894 30.5839 1.77525 30.5747C2.12294 30.5273 1.4918 31.0528 1.31487 30.927ZM2.8148 30.1328C2.5543 30.183 2.99884 29.8498 3.16773 29.81C3.22565 29.8763 2.85445 30.1244 2.8148 30.1328ZM129.15 10.206C129.012 9.76582 128.441 10.2353 128.938 10.3484C128.962 10.354 129.154 10.2261 129.15 10.206ZM1.51834 30.2573C1.77847 30.2069 1.3352 30.5405 1.16761 30.5803C1.10997 30.5139 1.47892 30.2655 1.51834 30.2573ZM129.308 9.43167C129.016 9.01707 128.803 9.77176 128.837 9.82333C128.973 10.0252 129.804 10.1603 129.991 10.1986C128.894 9.66424 129.446 9.63827 129.308 9.43167ZM127.324 9.0039C126.947 8.9361 127.773 9.44631 128.034 9.33763C127.855 9.2653 127.433 9.02179 127.324 9.0039ZM125.303 8.00932C125.129 7.92307 124.597 7.69065 124.471 7.77936C124.679 7.81785 125.189 8.10151 125.303 8.00932ZM124.992 7.53292C124.751 7.28765 124.543 7.7221 124.916 7.68845C124.931 7.68716 125 7.54486 124.992 7.53292ZM123.416 6.89691C123.274 6.66209 122.947 7.05213 123.243 7.14436C123.333 7.17172 123.431 6.92337 123.416 6.89691ZM129.178 8.43698C128.909 8.21311 128.384 8.32939 129.004 8.66898C128.76 8.60439 128.517 8.54581 128.277 8.49366C129.014 9.03562 129.161 8.61412 129.396 8.75353C129.723 8.9574 129.515 9.27819 129.391 9.34432C129.767 9.27219 130.977 9.99669 131.666 10.5468C131.151 9.96951 130.226 9.16615 129.657 8.79868C129.495 8.69066 129.28 8.69591 129.143 8.61405C128.919 8.48071 129.192 8.45022 129.179 8.43759C129.179 8.43738 129.178 8.43718 129.178 8.43698ZM121.166 6.38515C120.661 6.06711 120.913 6.58815 121.242 6.56964C121.257 6.56607 121.179 6.39305 121.166 6.38515ZM0.182878 29.4172C0.899574 29.2133 0.579869 29.7031 1.67608 28.5936C1.27223 29.1562 1.74755 28.7819 1.69819 28.941C1.65788 29.0676 1.30152 29.1959 1.57794 29.237C1.23439 29.2175 0.207078 29.8959 0.144699 29.8968C0.14514 29.8965 0.145581 29.8963 0.146022 29.896C0.108324 29.897 -0.0452671 29.4823 0.182878 29.4172ZM125.672 6.85609C125.654 6.26027 125.304 7.08366 125.071 6.52536C124.373 7.01421 126.456 6.95923 126.508 7.59928C124.482 6.82809 127.673 8.61125 126.527 7.2992C127.62 8.02819 126.958 7.34396 127.182 7.30967C127.425 7.2739 128.074 7.67317 128.124 7.46958C128.124 7.46941 128.123 7.46925 128.123 7.46908C127.682 7.30046 127.252 7.15086 126.826 7.0132C127.077 7.58386 126.282 7.15148 126.11 6.71009C125.965 6.75836 125.816 6.80603 125.672 6.85609ZM127.876 8.11527C127.836 8.08171 126.901 7.78248 126.933 7.89544C127.028 7.98228 128.347 8.45456 127.876 8.11527ZM132.142 10.5945C131.818 10.2952 131.322 9.80171 131.03 9.80792C131.385 10.0562 131.853 10.558 132.142 10.5945ZM115.572 5.07572C115.163 5.16116 116.361 5.36601 116.036 5.15459C116.018 5.14407 115.592 5.07155 115.572 5.07572ZM124.73 6.65314C124.371 6.36824 124.413 6.94966 124.749 6.90144C124.769 6.89855 124.747 6.66623 124.73 6.65314ZM0.648376 29.0606C0.601198 28.9326 1.54758 28.4757 1.70747 28.3792C1.67961 28.5404 0.701209 29.2078 0.648376 29.0606ZM132.907 10.6271C132.909 10.6057 132.909 10.5849 132.909 10.5647L133.018 10.6697C132.67 9.74049 131.363 9.41045 131.283 9.35025C131.182 9.26424 131.473 9.21151 131.452 9.18985C131.399 9.11698 130.228 8.40086 130.169 8.40138C130.125 8.38992 130.179 8.75993 129.906 8.71286C130.432 8.73485 132.474 10.3879 132.55 10.5047C132.639 10.5569 132.307 9.82832 132.994 10.6938L132.886 10.5896C132.893 10.6015 132.899 10.6139 132.906 10.6267C132.906 10.6268 132.906 10.627 132.907 10.6271ZM131.048 9.11049C131.264 9.4025 130.456 8.8853 130.289 8.74425C129.912 8.4006 131.016 9.05456 131.048 9.11049ZM129.194 7.92485C129.113 7.84891 128.338 7.47144 128.223 7.57685C128.512 7.88848 129.363 8.07722 129.194 7.92485ZM120.915 5.37268C120.731 5.35456 120.25 5.15623 120.202 5.27034C120.386 5.28612 120.861 5.48478 120.915 5.37268ZM3.19979 26.3192C2.89222 26.3827 3.46617 25.998 3.66383 25.939C3.71377 26.0028 3.22578 26.3138 3.19979 26.3192ZM124.989 5.52684C124.923 5.48231 124.019 5.24705 123.273 5.09264C123.227 5.08636 123.095 5.04381 123.049 5.0395C122.608 4.96748 122.206 4.91173 122.088 4.90964C122.193 4.9669 122.586 5.07113 123.02 5.17694C123.064 5.18114 123.193 5.22256 123.237 5.22867C123.958 5.43429 124.83 5.67947 124.906 5.6743C124.939 5.67033 125.002 5.53659 124.989 5.52684ZM130.298 7.55536C130.634 7.53532 130.692 7.81689 130.722 7.83723C131.016 8.03222 131.693 8.43113 131.454 8.47979C130.929 8.02729 129.646 7.60633 130.298 7.55536ZM120.91 4.5532C120.152 4.47536 121.553 4.93458 121.397 4.71661C121.39 4.70344 120.99 4.56108 120.91 4.5532ZM125.259 5.5535C125.461 5.44559 127.782 6.35764 128.203 6.55864C127.747 6.66009 127.542 6.36526 127.074 6.21061C126.948 6.16977 126.944 6.28549 126.931 6.28087C126.712 6.20916 126.916 6.14596 126.785 6.09833C126.689 6.0526 124.957 5.66699 125.259 5.5535ZM130.5 7.52572C130.686 7.47167 132.49 8.60208 132.543 8.7267C132.743 9.0164 132.262 8.6659 131.71 8.30275C131.159 7.93514 130.554 7.57511 130.5 7.52572ZM125.116 5.26507C125.449 5.03884 126.556 5.60731 125.711 5.50045C125.634 5.49078 125.349 5.26326 125.116 5.26507ZM121.046 4.28088C121.012 4.26433 120.239 4.05664 120.207 4.15115C120.312 4.20709 121.45 4.45958 121.046 4.28088ZM121.515 4.03513C121.496 4.03374 121.642 4.25448 121.282 4.15958C121.253 4.15187 121.231 3.93045 120.757 3.91958C120.659 3.91732 120.486 4.02799 120.496 4.03867C120.915 4.452 122.489 4.11791 121.515 4.03513ZM130.615 7.39284C130.565 7.26307 130.919 7.15384 131.061 7.39368C131.12 7.49654 130.872 7.53241 130.615 7.39284ZM118.569 3.75251C119.054 3.66765 117.617 3.4051 117.539 3.43784C117.571 3.54301 118.519 3.75903 118.569 3.75251ZM3.1742 24.8928C3.1739 24.893 3.17359 24.8931 3.17328 24.8933C3.51782 24.735 3.38321 24.9685 3.40059 24.9633C4.19388 24.7303 3.8582 24.5748 3.94926 24.4805C4.14589 24.2778 4.29043 24.6203 4.61063 24.2604C4.06923 24.8315 4.61683 24.4081 4.70085 24.5115C5.04016 24.9344 3.70685 24.7929 3.43991 25.0794C3.40251 25.119 3.82206 25.0732 3.73072 25.1825C3.4341 25.5365 1.85777 25.5011 3.1742 24.8928ZM131.233 7.46871C131.542 7.42122 133.234 8.85888 132.68 8.61458C132.592 8.52265 130.776 7.4359 131.233 7.46871ZM67.8618 3.81009C68.1602 3.63167 67.4041 3.5735 67.2829 3.69793C67.223 3.75956 67.7305 3.88826 67.8618 3.81009ZM62.6297 4.00821C62.257 4.09759 61.9551 4.72478 62.4079 4.55965C62.4558 4.54184 62.6855 4.07888 62.6297 4.00821ZM87.4352 1.75293C87.0325 1.56822 87.0736 1.9442 87.3619 1.92543C87.4636 1.91892 87.4479 1.75878 87.4352 1.75293ZM72.3997 2.99701C72.3589 2.98828 71.9063 3.06479 71.933 3.14912C72.1074 3.18099 72.6645 3.05782 72.3997 2.99701ZM87.5584 1.69355C87.3261 1.77222 87.7436 2.02628 88.018 1.7475C87.8737 1.77559 87.5824 1.68547 87.5584 1.69355ZM124.481 4.21489C124.28 4.28908 123.868 4.16966 123.534 4.09023C123.48 4.08273 123.322 4.0319 123.267 4.02675C123.195 4.01283 123.126 4.00046 123.064 3.99239C123.066 3.92604 123.16 3.91205 123.29 3.92327C123.345 3.92851 123.506 3.98018 123.561 3.98781C123.851 4.02803 124.312 4.19307 124.481 4.21489ZM64.2639 3.97792C63.9297 4.17316 64.7099 4.16905 64.6114 3.99527C64.6002 3.98665 64.277 3.9697 64.2639 3.97792ZM100.213 1.4694C99.9473 1.58498 100.783 1.75938 100.556 1.54522C100.545 1.53638 100.228 1.4629 100.213 1.4694ZM103.861 1.6323C103.663 1.58395 102.808 1.5687 103.136 1.69622C103.183 1.71534 103.844 1.74112 103.861 1.6323ZM3.89643 24.3441C3.70063 24.2188 4.26395 23.9512 4.35973 23.9382C4.3967 23.9342 4.15219 24.5061 3.89643 24.3441ZM84.8703 1.85276C84.6688 1.88994 84.1365 1.87246 84.0495 1.9863C84.2988 1.94841 84.9497 2.06396 84.8703 1.85276ZM65.8882 3.73112C65.5454 3.55476 65.0173 3.65677 65.1923 3.92654C65.7749 3.81945 65.0812 3.67637 65.8882 3.73112ZM88.8657 1.39676C88.6994 1.3862 88.5864 1.67227 88.6053 1.68476C88.7865 1.80351 89.034 1.49966 88.8657 1.39676ZM76.5929 2.44737C76.5723 2.32845 76.0529 2.43291 76.1303 2.50326C76.156 2.52676 76.6097 2.54336 76.5929 2.44737ZM117.132 2.71851C116.899 2.57337 117.675 2.57898 117.88 2.74109C117.962 2.93981 117.16 2.73445 117.132 2.71851ZM93.4218 1.33434C93.4438 1.15522 92.623 1.27293 92.9503 1.41401C93.0325 1.44919 93.4146 1.39404 93.4218 1.33434ZM101.335 1.12546C100.774 1.324 103.111 1.53328 102.503 1.25305C102.454 1.23193 101.389 1.10782 101.335 1.12546ZM105.162 1.38448C105.068 1.35689 105.14 0.759799 105.535 1.00969C105.586 1.04211 105.331 1.18871 105.373 1.22695C105.401 1.24832 106.258 1.37508 106.304 1.36414C106.349 1.35058 106.308 1.15606 106.353 1.13689C106.406 1.11543 106.928 1.31287 107.212 1.33185C107.745 1.3669 107.809 1.2116 107.853 1.21368C107.977 1.22056 108.189 1.34798 108.445 1.36529C109.736 1.44834 111.749 1.48761 112.744 1.93491C111.839 1.70458 110.952 1.76858 110.038 1.73933C110.33 1.4267 108.68 1.89219 109.645 1.57995C109.201 1.61571 105.477 1.45988 105.163 1.38453C105.163 1.38451 105.163 1.3845 105.162 1.38448ZM61.1148 4.09363C61.2142 3.97159 60.9621 3.97498 60.6804 4.04152C60.4046 4.1066 60.1014 4.23238 60.0724 4.35661C60.1611 4.35894 60.4572 4.28765 60.7115 4.21877C60.922 4.16172 61.1036 4.10623 61.1148 4.09363ZM66.5276 2.73454C66.6332 2.68392 66.6827 2.27218 67.292 2.39214C67.2925 2.39207 67.2931 2.392 67.2936 2.39192C67.4715 2.42706 67.2914 2.5504 67.3273 2.58049C67.3406 2.59285 67.8969 2.7171 67.4619 2.80932C66.7991 2.95104 67.3579 2.52323 66.9999 2.569C66.956 2.57452 66.3096 2.88529 66.3558 2.92689C66.3607 2.93176 66.5578 2.85723 66.5942 2.87201C66.7316 2.92742 66.6874 3.05989 66.7061 3.06322C66.7667 3.06928 67.8056 2.70972 67.9868 2.87347C68.0443 2.92438 66.312 3.30606 66.2389 3.28716C66.1929 3.27399 66.1614 2.92825 66.1117 2.901C66.0862 2.88724 65.3996 3.11953 65.3033 3.10207C65.2753 3.09693 65.2535 3.09015 65.2373 3.08429C65.3601 3.17416 64.7196 3.26303 64.7211 3.14063C64.7248 3.09183 65.1695 3.05235 65.1864 3.05835C65.1938 3.0608 65.2006 3.06469 65.2067 3.06716C65.0962 2.95029 66.5872 2.73789 66.2379 2.59263C66.6557 2.4249 66.2172 2.88382 66.5276 2.73454ZM68.5775 2.23667C68.5376 2.27873 68.4977 2.32079 68.4579 2.36286C69.2036 2.17364 70.0991 2.23644 70.9722 2.13002C71.1936 2.10337 70.9124 1.91248 71.2098 1.93827C71.4482 1.959 71.7289 2.13443 71.6081 2.19501C71.5789 2.20993 71.0905 2.13207 70.8551 2.17466C70.1604 2.30052 70.3605 2.46924 70.3203 2.47924C70.276 2.49012 69.8204 2.41142 69.5808 2.44813C68.9783 2.54097 68.7193 2.69262 67.8738 2.65229C68.3331 2.46299 68.0359 2.22655 68.5775 2.23667ZM96.9029 0.756828C96.9311 0.636278 97.4346 0.742594 97.6149 0.725378C97.5868 0.845859 97.0855 0.738578 96.9029 0.756828ZM24.0796 13.7524C24.0056 13.9912 25.106 13.6274 24.7626 13.5816C24.6885 13.5703 24.2161 13.7017 24.0796 13.7524ZM28.9974 12.0887C29.1253 11.9862 28.4915 12.0569 28.5428 12.2012C28.5597 12.247 28.9823 12.1013 28.9974 12.0887ZM78.3948 1.3664C78.4234 1.35764 78.8483 1.36583 78.8622 1.37485C79.158 1.55995 77.7649 1.55723 78.3948 1.3664ZM34.8871 9.88515C34.4146 10.1684 35.971 9.74149 35.4514 9.73062C35.4251 9.73016 34.9095 9.87137 34.8871 9.88515ZM37.0211 9.19099C36.9009 9.23427 36.3337 9.33953 36.3447 9.39937C36.3616 9.49563 37.0081 9.36863 37.0211 9.19099ZM88.9479 0.646849C88.8777 0.42666 89.6353 0.566573 89.8925 0.529994C89.9623 0.750197 89.2092 0.608173 88.9479 0.646849ZM84.2098 0.716485C87.3586 0.365136 86.6882 0.874859 84.0281 0.836025C84.0156 0.693768 84.011 0.73947 84.2098 0.716485ZM88.2576 0.536946C88.149 0.684138 87.7884 0.657297 87.5441 0.656962C87.5837 0.555832 88.0843 0.569692 88.2576 0.536946ZM22.6801 13.9647C22.8006 13.7235 23.716 13.6086 23.5931 13.7357C23.5682 13.7617 22.6451 14.084 22.6801 13.9647ZM78.6435 1.1541C78.5521 0.944226 79.5076 0.953647 79.583 0.996335C79.8904 1.16523 78.7174 1.09914 78.6435 1.1541ZM93.4337 0.327067C93.5986 0.154337 94.0813 0.233303 94.3867 0.23138C94.2501 0.378111 93.6953 0.325049 93.4337 0.327067ZM91.2149 0.246731C91.2344 0.239561 91.6641 0.242988 91.6832 0.250389C92.0392 0.406199 90.824 0.397486 91.2149 0.246731ZM1.90076 23.7514C1.91039 23.7393 2.19542 23.5851 2.20835 23.585C2.53989 23.5797 1.68431 24.0417 1.90076 23.7514Z" fill="#B0FCAA"/>
</svg>
