<svg width="345" height="73" viewBox="0 0 345 73" fill="none" xmlns="http://www.w3.org/2000/svg">
<path d="M33.0969 72.6385C33.2901 72.5409 34.1422 72.4863 34.494 72.3855C34.2118 73.028 32.3999 72.9916 33.0969 72.6385ZM60.8132 24.3827C60.5474 24.5848 60.2817 24.7869 60.016 24.9891C60.8766 24.8923 61.9849 24.5423 62.794 24.4998C62.9264 24.4935 62.6827 24.9626 62.9886 24.9136C63.2946 24.8645 63.1169 24.3361 63.5435 24.1812C64.0224 24.0091 66.3623 23.888 67.1419 23.7063C70.0568 23.0244 72.9367 22.0644 75.9152 21.6426C72.9799 22.7106 76.1168 22.4454 76.9254 22.0849C77.1042 22.0033 76.8521 21.0037 79.9417 20.5873C81.9052 20.3224 80.4421 22.1541 83.5001 20.7232C80.804 20.263 83.2524 19.7964 85.1843 19.3348C85.345 19.2963 86.0647 19.1728 86.8994 19.0207C87.1598 18.9282 87.9888 18.8444 88.255 18.7701C89.1622 18.6688 90.152 18.552 90.8203 18.4288C91.1744 18.3602 91.8427 17.7153 92.3216 17.6299C92.6827 17.5669 93.0396 17.8123 93.6048 17.7134C96.189 17.2633 98.8189 16.8519 101.418 16.5702C100.062 18.1717 102.726 16.9751 102.834 17.0264C103.514 17.307 100.706 17.8285 101.867 17.8956C103.392 17.6278 104.978 17.3514 106.524 17.0812C105.207 17.1022 108.067 15.6746 108.665 16.0458C108.268 14.8645 115.93 16.0623 117.011 15.4924C117.237 15.3723 115.606 14.997 119.202 14.7546C119.595 14.7286 119.502 15.1159 119.701 15.0522C119.818 15.0142 120.369 13.7467 121.24 14.2767C121.559 14.4701 119.847 15.4976 123.802 14.6118C122.04 13.6575 129.238 13.1722 130.599 13.2805C130.315 13.159 130.035 13.0368 129.747 12.916C131.102 13.1592 131.276 12.7234 131.571 12.7034C132.762 12.6225 134.44 12.7963 135.529 12.6029C136.806 12.377 136.711 11.639 138.244 11.7129C137.866 11.6009 137.488 11.4889 137.111 11.3769C138.147 11.2691 139.186 11.1611 140.227 11.0531C137.97 12.3688 140.751 11.026 140.939 10.978C141.24 10.8991 140.857 11.3606 141.361 11.2384C141.413 11.2227 141.283 10.8576 142.065 10.7036C143.7 10.3833 143.507 10.8929 144.198 10.7897C144.261 10.7783 143.991 10.471 145.175 10.222C148.938 9.43129 145.193 10.484 145.054 10.5516C144.871 10.6404 146.373 11.8714 143.077 11.8259C144.182 11.8323 144.38 12.4433 144.504 12.4416C144.613 12.439 146.478 12.0858 146.578 12.0498C147.47 11.7072 146.599 11.3935 146.768 11.2915C146.905 11.2089 149.245 11.4485 149.596 10.0867C150.846 11.1224 149.122 11.2529 147.335 11.6906C147.104 11.9715 149.129 11.9283 149.235 11.9129C151.806 11.55 150.245 10.773 150.72 10.0697C150.969 9.70167 152.107 10.222 151.02 9.48103C153.341 9.06217 151.997 9.76765 152.158 9.82178C152.402 9.90018 153.185 9.53491 153.292 9.55413C153.449 9.5827 152.969 9.95877 153.576 9.98307C153.677 9.98489 154.557 9.33016 153.293 9.252C154.946 9.09732 154.746 8.67176 155.427 9.4913C156.33 7.63634 156.391 10.3798 156.852 10.4129C158.072 10.4993 157.543 9.21477 157.597 9.14107C157.961 8.66601 161.328 8.66866 162.101 8.36753C161.918 9.37027 159.505 8.73454 159.012 8.99244C157.396 9.84645 161.486 9.14065 160.413 10.5172C160.887 10.1146 161.359 9.71232 161.829 9.31048C162.883 9.95617 161.571 10.4797 164.106 9.84489C164.436 9.11792 162.301 10.199 162.678 9.61052C162.904 9.26435 164.384 8.99471 164.389 8.82791C164.393 8.6273 163.079 9.04359 163.25 8.71271C163.633 7.99563 168.589 7.95534 164.925 8.81487C165.95 8.66414 166.674 9.88641 167.523 9.36043C168.068 9.02009 164.553 7.66976 169.508 7.33722C169.681 7.93721 167.577 7.78084 167.523 7.83577C167.457 7.91379 168.018 9.2449 168.092 9.30441C168.34 9.4983 173.266 8.08623 174.444 8.63951C174.211 8.31218 174.922 8.14761 175.806 8.04364C176.979 7.90447 178.471 7.86407 178.718 7.69492C178.835 7.61186 178.304 7.18115 178.432 7.11243C179.233 6.69705 181.61 7.29406 182.663 7.19387C183.843 7.08098 183.644 6.67581 183.71 6.66875C184.231 6.63229 183.85 6.96733 184.167 6.9299C184.644 6.8708 187.938 6.56275 188.096 6.48723C188.142 6.46331 187.553 6.03741 188.26 5.86783C188.382 5.83918 188.366 6.41856 190.462 5.94738C192.986 5.38323 188.611 5.41893 189.61 4.707C191.345 5.39018 191.201 4.54904 191.655 4.56948C191.812 4.57788 193.036 5.18189 194.276 5.01432C193.394 5.21916 192.51 5.42603 191.627 5.63495C192.521 5.67056 194.211 5.34423 194.95 5.41752C195.31 5.45294 195.076 6.07392 195.842 5.98428C196.004 5.96254 196.513 4.45373 194.562 5.29719C194.351 4.79695 195.342 5.03951 195.772 4.85133C195.837 4.82222 196.021 3.93458 196.639 4.41692C196.788 4.53736 195.54 7.18571 199.192 5.01534C199.31 4.94553 198.854 4.66911 198.968 4.59292C199.046 4.54103 200.034 4.58111 200.137 4.52707C200.243 4.46931 199.742 4.16711 199.867 4.08777C200.51 3.67907 201.511 4.96642 200.116 4.98447C200.594 5.11203 201.072 5.24018 201.551 5.36869C200.965 4.38314 202.255 5.01595 202.893 4.93061C206.986 4.38773 204.179 3.94646 204.858 3.54176C205.952 2.8941 205.225 4.7239 206.869 4.06185C207.023 4.00121 204.919 3.40846 208.943 3.52566C208.357 3.59887 207.77 3.67292 207.182 3.74783C207.6 4.71631 209.303 3.51736 209.439 3.4938C210.992 3.24265 209.964 3.67662 212.252 2.99913C212.456 2.93852 212.924 3.15305 213.36 3.00011C215.169 2.3687 210.912 2.86045 210.764 2.46892C210.695 2.27164 215.298 2.00512 215.46 2.09264C216.157 2.46435 213.389 2.41357 213.948 2.8956C214.152 3.05888 220.676 2.27145 221.999 2.40856C223.53 2.55852 224.282 3.87613 224.212 2.35624C224.717 3.82505 225.04 2.7884 225.233 2.78882C227.591 2.80902 227.581 2.82542 229.592 2.59079C230.035 2.5399 230.428 2.97632 230.581 2.89312C230.67 2.84304 230.479 2.36591 230.919 2.19733C231.535 1.96339 235.29 2.31598 235.579 2.57619C235.867 2.83354 234.003 2.75065 234.352 3.17882C235.703 3.1723 236.973 3.0187 238.333 3.02143C238.895 3.02412 238.616 3.3416 238.859 3.34008C238.96 3.34001 240.89 3.01082 240.806 2.9C240.597 2.63499 234.629 3.01223 236.183 2.42051C236.482 2.30537 237.58 2.97936 237.381 2.12141C242.742 2.13818 248.104 2.21649 253.457 2.36055C250.387 3.03616 246.921 2.51642 243.702 2.65583C243.258 2.67361 241.765 2.62945 241.959 3.06149C244.7 3.09982 248.097 2.80338 250.728 3.05275C250.812 3.06101 250.511 3.45769 250.825 3.51554C251.421 3.62263 253.328 2.96827 253.651 3.12962C253.702 3.16707 252.625 3.69544 252.958 4.02088C253.809 4.85602 254.019 2.9853 254.752 3.00162C255.318 3.01232 259.126 3.90061 260.084 3.33382C261.096 2.72465 257.269 2.9821 257.553 2.4861C260.141 1.97753 262.758 2.51971 265.216 2.48091C265.259 2.47974 264.888 2.08626 265.435 2.03698C266.379 1.95159 266.634 2.50819 267.096 2.60244C267.365 2.65639 267.998 2.66553 268.558 2.69514C269.053 2.72081 269.493 2.7616 269.601 2.85692C269.631 2.88386 269.262 3.42613 269.207 3.44067C268.926 3.51762 268.711 3.47353 268.547 3.38525C268.266 3.22919 268.143 2.9347 268.098 2.9282C267.837 2.89737 267.575 3.16646 267.335 3.14703C266.94 3.11476 266.725 2.85969 266.198 2.83143C265.841 2.81117 266.18 3.2994 265.837 3.27354C265.713 3.26172 264.35 2.14286 264.211 3.27151C264.195 3.42153 266.173 3.60227 268.541 3.7621C271.826 3.9778 275.863 4.17859 276.537 4.03721C275.566 3.8707 274.616 3.70778 273.645 3.54717C275.596 3.92606 277.981 3.10472 278.112 4.44569C285.385 4.81056 292.704 5.34631 300.075 6.14487C301.378 6.38349 300.58 7.16453 302.764 7.134C302.226 6.8041 301.707 6.47761 301.162 6.15011C302.254 6.43721 307.143 7.34923 307.965 7.28168C308.068 7.27134 308.317 6.51713 309.556 6.60567C310.666 6.6874 310.766 7.28858 311.337 7.47655C311.805 7.63165 312.395 7.55871 312.53 7.60992C312.639 7.65093 312.628 8.00843 312.893 8.10794C313.72 8.41784 313.173 7.32897 313.847 8.58662C313.636 8.60075 313.43 8.6156 313.218 8.63001C314.217 8.93868 315.524 9.66011 313.995 9.69678C313.728 9.70325 314.001 9.3949 313.806 9.36743C306.25 8.4029 312.185 9.86057 314.901 9.72764C315.316 10.1417 317.251 10.3983 318.443 10.5659C318.538 10.5693 318.817 10.6427 318.912 10.6491C319.486 10.7492 319.889 10.8212 319.922 10.8601C320.073 11.0388 319.329 11.3046 320.131 11.8253C320.27 11.905 325.617 12.8105 323.566 13.0432C323.127 13.0793 320.658 12.3953 320.066 12.3015C321.237 13.629 324.925 12.8827 325.327 13.0341C326.834 13.5755 322.143 13.2248 325.584 14.1923C328.276 14.9857 325.893 13.6226 327.032 13.6013C327.657 13.5677 330.642 15.281 330.886 14.2967C332.076 14.568 331.228 14.8662 331.358 14.9495C331.47 15.0118 333.891 15.5363 334.639 16.096C334.726 16.1606 334.218 16.5314 334.302 16.613C334.447 16.7295 336.908 17.7157 337.05 17.7614C337.128 17.7641 336.734 17.0504 337.029 17.0676C337.361 17.049 339.833 18.5304 340.048 18.5419C340.349 18.4401 337.149 16.8364 337.914 16.6721C339.271 17.4686 341.915 18.7286 343.071 19.0995C342.785 19.0239 341.361 18.0557 340.87 17.7141C341.311 17.3477 342.989 18.2758 343.421 18.8126L343.028 18.5291C343.049 18.6268 342.993 18.7449 342.81 18.8428L343.193 19.1192C343.191 19.1188 343.189 19.1185 343.187 19.1182C343.189 19.1186 343.191 19.1191 343.193 19.1195L342.809 18.8431C343.151 18.6848 343.144 18.4696 343.395 18.2689C343.466 18.2236 343.619 18.3041 343.7 18.197C343.721 18.1797 343.751 17.8544 343.861 17.7401C343.972 17.6442 344.075 17.6459 344.134 17.6675C344.173 17.6803 344.462 17.872 344.525 17.9461C344.664 18.1363 344.331 18.0942 344.117 18.1273C343.898 18.1577 343.788 18.2594 343.693 18.3912C343.682 18.4136 343.627 18.5808 343.662 18.795C343.686 19.0039 343.883 19.3012 343.882 19.3319C343.774 19.6146 343.454 19.4955 343.317 19.4601C343.169 19.4195 343.107 19.4133 342.986 19.6561C343.011 19.8025 343.069 19.9653 343.289 20.209C342.914 20.1866 342.738 20.1907 342.589 20.1731C342.439 20.1557 342.259 20.0806 342.022 19.9716L342.37 20.2224C341.275 19.4912 340.216 18.9443 339.65 18.9212C340.529 19.393 341.421 19.9574 342.153 20.5133L341.815 20.2692C342.117 20.4899 342.224 20.645 342.251 20.8946C342.273 21.1413 342.272 21.5099 342.034 21.9545C341.729 22.464 341.195 22.5622 341.139 22.7009C341.029 22.9482 341.159 23.0112 341.369 23.0388C341.572 23.0633 341.908 23.0814 341.923 23.1055C341.941 23.1515 341.942 23.188 341.927 23.2155C341.927 23.2155 341.927 23.2156 341.927 23.2156C341.85 23.3526 341.399 23.2718 341.141 23.2595C340.873 23.2427 340.655 23.2169 340.594 23.2637C340.39 23.4397 340.197 24.5498 340.095 24.757C340.061 24.798 339.308 24.6244 339.302 25.0984C339.298 25.5883 339.912 25.9386 339.954 26.0054C339.922 26.2777 338.726 25.8529 338.61 25.9321C338.553 25.9869 338.91 26.7335 338.873 26.8557C338.822 26.9785 338.213 26.9481 337.787 27.156C337.471 27.3143 337.784 27.7921 337.682 27.7831C337.643 27.7795 337.269 27.551 336.905 27.3086L337.022 27.3933C336.589 27.0799 336.167 26.8105 336.111 26.8018C335.93 26.7742 336.163 27.3734 336.046 27.4038C335.887 27.449 335.357 26.942 335.362 27.1072C335.365 27.1695 335.806 27.8801 336.126 28.5956L336.047 28.5388C336.25 29.1201 336.449 29.6933 336.358 29.8284C336.167 30.1073 335.698 29.4276 335.44 29.4091L335.491 29.4461C335.398 29.4311 335.333 29.4932 335.311 29.6884L335.267 29.657C335.236 29.8875 335.253 30.3035 335.394 31.0058C335.399 31.0287 335.934 31.1731 335.939 31.1904C336.024 31.7214 334.159 31.3613 336.095 32.3659C332.239 30.8393 335.187 32.8447 334.177 33.3484C333.948 33.4491 333.37 33.2418 332.913 33.0326C332.901 33.0223 332.862 32.9982 332.85 32.9876C332.554 32.8574 332.311 32.7437 332.295 32.7625C332.169 33.1252 332.484 33.166 332.613 33.3059C332.626 33.3183 332.672 33.3463 332.686 33.3583C332.734 33.4029 332.766 33.4519 332.771 33.514C332.773 33.553 332.688 33.557 332.556 33.544C332.542 33.531 332.492 33.5008 332.478 33.4874C332.127 33.4807 331.434 33.4298 331.456 33.741C331.462 33.8415 331.692 34.0319 331.929 34.2231C331.947 34.2406 332.012 34.2799 332.031 34.2968C332.412 34.5778 332.828 34.8384 332.851 34.8726C333.28 35.508 332.373 35.3208 332.385 35.5848C332.387 35.7668 333.345 36.3627 333.361 36.3943C333.377 36.4786 331.745 36.1696 331.378 36.1559C331.086 36.1528 331.711 36.8656 331.534 36.8303C331.214 36.7658 330.888 36.5436 330.62 36.3204C330.589 36.2931 330.484 36.2292 330.454 36.2009C330.121 35.8681 329.997 35.5014 329.983 36.7856C329.982 36.7968 329.985 36.8089 329.991 36.8217C330.024 36.8534 330.143 36.9249 330.177 36.9556C330.321 37.1321 330.887 37.4777 330.9 37.5037C331.057 37.9884 330.321 37.6274 329.807 37.4857C329.77 37.4524 329.641 37.3744 329.605 37.3398C329.514 37.3418 329.428 37.3588 329.358 37.4082C329.133 37.5683 329.193 37.7114 329.252 37.8124C329.291 37.8495 329.43 37.9333 329.47 37.9692C329.655 38.1548 329.821 38.2794 329.367 38.1158C329.327 38.0792 329.185 37.9936 329.145 37.9557C329.09 37.9517 329.019 37.9438 328.928 37.9341C328.954 38.0086 328.98 38.0776 329.007 38.1411C329.048 38.1801 329.193 38.268 329.235 38.3056C329.976 39.1362 330.788 39.6411 332.135 40.2614C330.76 39.6373 329.54 39.0855 328.821 38.8993C328.776 38.8586 328.618 38.7635 328.574 38.7214C328.027 38.7986 327.757 39.1711 327.934 39.5806C327.982 39.6275 328.158 39.7332 328.208 39.7784C328.578 40.1496 329.203 40.6504 330.217 41.2406C328.651 40.2638 328.393 41.0834 327.939 40.805C327.889 40.7729 327.793 40.6721 327.673 40.5452C327.618 40.4959 327.428 40.3809 327.375 40.33C327.296 40.0771 327.158 39.6614 326.465 41.0823C326.349 41.2912 326.793 41.2358 326.417 41.5722C325.91 41.0676 326.221 41.8118 326.18 41.8681C325.794 42.2955 325.628 42.2072 325.126 41.8687C324.633 41.5247 323.591 40.9201 323.233 40.8693C322.406 40.7396 321.349 41.3629 321.162 41.3092C320.521 41.1243 321.18 40.8413 321.082 40.6391C320.998 40.4334 318.822 40.7589 318.726 40.6933C318.381 40.4104 318.907 39.9852 318.873 39.9489C318.486 39.5007 315.537 39.2704 314.72 38.9872C314.68 39.3334 316.313 39.7049 315.171 40.0384C313.857 40.4343 314.08 38.9126 314.063 38.8392C313.863 38.7998 313.659 38.7603 313.452 38.7206L313.911 38.8021C308.275 37.9063 302.699 37.2243 296.993 36.7103C296.997 37.5273 300.896 37.2963 300.97 37.4195C301.42 38.0948 294.937 37.4455 294.151 37.11C294.751 37.3375 295.332 37.5653 295.929 37.7965C294.813 38.6408 292.614 37.2303 291.081 37.537C290.581 37.6356 291.495 38.0673 291.472 38.0907C290.897 38.4144 290.043 38.0711 290.73 37.6277C289.377 38.0032 289.584 37.4976 288.574 37.391C288.521 37.386 288.936 37.794 288.115 37.8986C287.723 37.9454 285.697 37.8244 285.406 38.1425C285.284 38.2755 286.232 39.8073 286.434 38.5484C288.589 39.3003 287.172 38.014 288.028 38.0971C288.162 38.1135 287.806 38.7951 289.985 38.6111C289.488 39.8543 287.068 38.7392 286.641 38.8708C285.752 39.1336 289.299 40.0156 290.036 39.0747C289.662 40.048 290.269 39.225 291.08 39.3258C291.954 39.4355 291.549 39.7031 292.018 39.7404C293.321 39.8495 292.833 39.1051 293.848 39.8245C292.962 37.78 295.708 39.7192 296.472 40.3103C295.124 40.2862 293.749 40.2694 292.391 40.2633C292.461 40.3722 292.531 40.4812 292.601 40.5901C292.243 40.5472 291.885 40.5049 291.533 40.4636C291.597 40.3694 291.662 40.2751 291.726 40.1809C289.826 40.6823 289.44 39.9364 289.283 39.9167C287.348 39.6997 285.095 39.5726 283.116 39.4704C282.823 39.4563 282.977 40.103 280.849 39.5016C280.161 39.3107 280.836 38.8397 280.048 38.8807C279.017 40.1971 279.076 39.1157 278.782 39.1021C277.934 39.0688 277.423 39.3877 277.342 39.3882C276.294 39.4024 274.779 39.2978 273.64 39.317C273.619 39.3215 274.199 39.7552 273.464 39.6113C273.209 39.5596 270.897 37.7164 268.84 38.2635C269.375 38.3931 269.895 38.5232 270.43 38.6545C270.129 38.5691 269.02 38.6047 268 38.7219C266.881 38.854 265.899 39.088 266.471 39.3474C266.827 39.5093 267.463 39.2554 267.993 39.1627C268.456 39.0839 268.84 39.122 268.912 39.6314C268.715 39.5833 268.397 39.5483 267.988 39.5235C265.402 39.355 259.271 39.6747 258.712 39.4603C258.622 39.4238 259.165 39.0647 259.043 39.019C258.943 38.9835 257.096 39.0732 256.841 38.9375C256.693 38.8563 257.518 38.6332 257.45 38.5044C257.39 38.4115 255.062 38.2712 254.932 38.7226C255.503 38.5372 257.105 38.6862 256.265 39.0694C256.158 39.117 255.598 38.8307 255.467 38.8914C254.25 39.4495 257.9 39.2944 258.458 39.3009C256.169 39.8758 252.626 39.2307 249.973 39.6478C248.893 39.2909 251.555 39.0515 250.336 38.7603C247.797 38.1593 249.673 39.288 249.596 39.3368C248.968 39.7233 246.807 37.7433 246.832 39.2826C245.907 39.0707 246.205 38.8696 244.919 39.1009C245.091 39.2034 245.264 39.306 245.435 39.4086C244.024 40.3304 240.934 38.1688 241.15 37.9918C241.754 37.5141 243.354 38.1871 243.486 38.1668C243.683 38.1369 244.21 36.5584 246.425 37.9064C247.297 36.8382 242.939 37.2801 244.911 36.5196C243.565 36.662 238.009 36.1012 237.229 36.5947C237.136 36.6582 237.617 37.6844 236.23 37.2036C235.571 36.9748 237.138 36.9051 236.832 36.6786C235.891 35.9542 223.469 36.9948 221.119 37.207C220.967 37.2173 221.003 36.8907 220.853 36.9027C220.394 36.9389 218.734 37.5257 217.902 37.4309C219.648 37.9188 216.334 38.1791 215.481 38.1739C214.195 38.1621 214.233 37.589 213.67 37.5074C211.494 37.1925 208.297 38.7991 206.534 37.6779C206.731 38.92 203.613 37.3054 202.266 37.4177C201.209 37.5034 199.759 38.4731 201.226 38.8455C199.406 38.9545 197.518 39.3725 195.827 39.6205C195.547 39.6618 195.897 39.2531 195.42 39.3353C195.377 39.3455 195.354 39.7134 194.946 39.7933C191.587 40.4623 193.156 39.5228 192.496 39.3634C192.127 39.275 191.857 39.2406 191.663 39.2407C193.636 38.9539 195.908 38.58 196.52 38.5092C195.916 37.7589 192.138 39.1137 190.985 39.0268C190.945 39.0233 191.034 38.5681 190.994 38.5694C190.993 38.5695 190.992 38.5696 190.991 38.5696C190.562 38.5807 187.876 39.0493 188.493 39.5111C188.658 39.6342 189.901 39.4913 191.371 39.2828C190.982 39.4249 191.334 39.8854 191.266 39.9141C190.44 40.2501 188.296 40.0052 187.548 40.0276C187.377 40.033 187.425 40.3473 187.398 40.3513C186.716 40.3584 186.886 39.4248 186.305 40.4358C184.951 39.4568 188.572 40.0001 188.241 39.3012C187.983 38.7475 180.221 40.0061 180.366 40.8996C180.333 40.8231 180.242 40.7379 180.073 40.6506C180.041 40.6339 180.006 40.6172 179.968 40.6005C179.453 40.366 177.248 40.7513 176.88 40.9661C176.821 41.0065 176.96 41.8603 176.882 41.8787C176.707 41.9216 173.88 41.6148 172.963 42.2546C173.519 42.302 174.075 42.3496 174.644 42.3956C171.358 42.8442 171.904 43.0316 173.03 43.1404C173.085 43.1354 173.142 43.1608 173.195 43.1573C174.05 43.2349 175.19 43.2682 175.211 43.3343C175.293 43.5843 169.747 44.479 170.703 43.5407C170.847 43.4103 173.48 43.4151 172.124 43.0207C171.89 42.951 170.234 43.3402 170.148 43.2882C169.499 42.9526 173.069 41.9072 172.54 41.3776C171.745 42.0573 170.546 41.9179 169.576 42.1977C169.128 42.3255 169.073 42.7704 169.018 42.7862C168.186 43.0137 168.6 42.4987 168.319 42.5485C168.168 42.5768 166.621 43.7648 166.759 42.3999C161.399 44.127 165.373 43.5776 168.74 43.0427C167.73 43.6704 165.624 43.7219 164.694 43.9638C164.362 44.0509 164.624 44.464 164.063 44.6311C162.93 44.971 157.263 45.2424 155.791 45.3279C156.661 45.0473 156.334 44.6037 155.649 44.7333C154.965 44.8633 155.634 45.4229 155.509 45.5106C155.376 45.6016 152.09 45.7547 151.565 45.9137C153.969 45.3387 153.353 44.9371 151.277 45.1784C151.556 44.9984 151.836 44.8184 152.116 44.6385C150.931 45.0026 148.274 44.6334 147.603 44.9502C147.498 45.0007 147.951 45.3471 147.892 45.3755C147.3 45.6335 145.15 45.5201 145.071 45.6715C145.004 45.7976 145.947 46.0078 145.638 46.2211C145.574 46.2659 144.634 45.8445 143.805 46.0989C143.497 46.1929 143.741 46.5465 143.665 46.5798C143.031 46.8568 143.329 46.1606 142.139 46.4353C141.263 46.638 140.691 47.3589 139.441 47.3259C143.57 47.5508 140.143 47.6997 138.506 48.1812C138.242 48.2584 138.569 48.9163 136.913 48.8107C140.162 47.0703 135.838 48.2909 134.947 48.4053C134.897 48.4082 134.814 47.9552 134.369 48.0117C134.332 48.0175 134.43 48.3176 134.022 48.4003C130.171 49.182 132.605 48.4767 131.824 48.2793C131.498 48.1942 129.651 48.9051 129.151 48.9882C129.035 49.0061 129.042 48.6786 128.594 48.7561C127.81 48.8929 127.118 49.3407 126.597 49.4438C126.536 49.4542 126.457 48.9504 125.484 49.2586C125.21 49.3449 124.923 49.5695 125.341 49.6571C126.727 49.9431 129.134 48.7516 130.705 49.0112C132.133 49.2477 127.839 49.9096 127.604 49.9466C127.521 49.9602 128.335 49.5866 127.464 49.662C126.716 49.7282 125.527 50.7902 124.401 50.7599C124.314 50.7581 123.331 50.1464 123.366 50.0974C123.396 50.0609 124.722 49.7046 124.496 49.5191C124.468 49.4983 123.611 49.6277 123.477 49.4846C123.313 49.3106 122.67 47.4622 122.482 47.4408C122.001 47.3904 122.366 47.7803 122.062 47.7937C121.43 47.8205 119.069 47.5899 119.104 48.258C119.478 48.2435 119.854 48.2287 120.233 48.2135C118.179 48.5818 119.104 48.7337 118.83 48.8999C118.537 49.0792 118.549 48.4858 117.844 48.533C117.67 48.546 114.808 49.0876 114.892 49.3237C116.428 48.704 115.942 49.5064 116.017 49.5084C116.303 49.5143 116.603 49.0604 116.984 49.0129C119.683 48.6832 117.06 49.7133 117.72 49.7835C117.947 49.8064 118.333 49.4 118.422 49.4049C118.723 49.419 118.794 49.8672 118.985 49.8022C119.432 49.651 118.803 49.0939 118.835 49.0555C119.182 48.5988 120.884 48.8561 119.971 49.695C120.616 49.8555 120.566 49.0049 121.102 49.2698C122.165 49.7943 120.69 49.8344 120.317 50.0015C118.979 50.6032 118.538 50.3381 116.569 50.7384C115.869 50.8805 115.104 51.4091 114.764 51.4817C114.547 51.5277 112.395 50.3927 112.672 52.6217C111.862 52.5208 110.446 51.2329 109.698 51.4111C108.991 51.5775 109.333 52.3302 109.271 52.3704C109.173 52.4336 108.305 52.4978 108.04 52.6503C107.727 52.8304 107.935 53.1063 107.432 53.3052C106.121 53.8081 106.045 52.9998 105.899 52.9679C104.243 52.5963 105.115 53.6337 104.764 53.7789C104.415 53.9161 99.7539 54.1558 98.8644 54.5831C99.2257 54.3654 99.5726 54.1498 99.9522 53.9294C99.1673 53.5343 98.5735 54.4563 98.4072 53.564C98.4575 55.0369 96.886 54.2804 96.4429 54.3845C96.2798 54.4245 96.3282 54.6696 96.1318 54.7097C95.4746 54.8383 94.4506 54.901 93.6672 55.0059L94.7979 54.7969C94.474 54.8632 94.2144 54.9296 94.0879 54.9962C93.2049 55.4595 93.9476 55.6496 95.0014 55.7183L93.8066 55.9392C94.834 56.1068 96.4721 56.1239 96.606 56.1327C96.2401 56.1787 94.8048 56.4742 93.9323 56.7813L95.1849 56.5497C94.2985 56.9176 93.7952 57.2896 94.8727 57.4051C95.0144 57.4202 95.1699 57.2962 95.3156 57.1418L94.0219 57.3809C94.0039 57.3414 94.1134 57.279 94.171 57.2247C94.2049 57.174 94.2444 57.1229 94.2864 57.0762C94.3701 56.9829 94.4636 56.9073 94.5289 56.89C95.6775 56.5484 94.8273 57.2688 94.9281 57.3102C94.9968 57.3455 95.289 57.1813 95.485 57.0286C95.6882 56.8749 95.9292 56.7126 96.0466 56.7294C96.1046 56.7427 95.7873 57.3274 96.9015 57.1732C96.6725 57.5344 95.1043 57.7217 94.0881 57.8245L95.4123 57.5797C94.7545 57.6955 94.2028 57.7867 94.0551 57.8655C93.9138 57.9409 95.0956 58.8081 92.1062 58.3723C92.1602 58.4651 92.2143 58.5579 92.2683 58.6507C90.7412 59.031 89.2142 59.4113 87.6871 59.7915C87.8033 59.5246 88.5637 58.872 87.4991 59.2099C86.8862 59.4047 87.4621 59.815 87.4083 59.8425C86.8783 60.1075 76.9073 62.13 74.9949 62.6121C74.3442 62.7753 72.6098 63.5901 72.4723 63.6285C71.6492 63.8534 68.643 64.236 68.0679 64.424C67.7091 64.5423 68.1526 64.8937 67.8203 64.946C67.5112 64.994 67.7356 64.5102 67.6412 64.5129C66.8581 64.5284 61.281 66.3293 59.842 66.2374C60.6947 66.1721 64.638 64.4339 64.4906 64.1603C64.4638 64.1242 63.3915 64.0306 63.2186 64.2299C62.7977 63.9468 61.8653 65.2974 61.1798 65.2239C61.1022 65.2155 61.2513 64.5405 60.0877 64.6808C59.687 64.7295 58.7649 65.4335 57.6128 65.1269C56.1725 65.7144 48.1266 66.6581 47.7318 67.4351C47.7235 67.4734 48.8818 67.4552 48.1926 67.8905C47.2764 68.4691 47.9035 67.063 46.7203 67.2148C46.542 67.2376 43.3411 68.0725 43.252 68.1707C42.4241 69.0649 45.3054 68.7172 45.2833 68.8047C45.2288 69.025 42.9117 69.6626 42.8061 69.6368C42.7047 69.6081 44.4176 68.2872 42.196 69.1352C42.4829 69.1845 42.7697 69.2338 43.0565 69.2831C42.0226 69.7308 41.7823 69.1317 41.5122 69.1515C40.6722 69.2108 40.0007 70.3497 38.4398 69.4707C38.0268 69.2372 38.523 68.767 38.4696 68.7301C37.9636 68.4048 37.6815 69.6362 36.8754 68.9421C36.8148 68.8905 38.1537 68.0725 35.6211 68.6303C35.813 68.6715 36.0049 68.7128 36.1968 68.754C35.879 69.0108 33.3385 69.6826 32.9843 69.7167C31.9495 69.8162 32.7019 69.0499 31.7042 69.3419C32.5269 69.9828 29.4697 70.7651 29.4978 70.0508C29.2549 70.9938 26.4942 70.9172 25.2599 71.1686C24.4813 71.3279 22.9801 72.0474 22.724 72.0585C22.4119 72.0718 22.3755 71.4731 21.8047 71.4641C21.6419 71.4615 20.1211 72.242 18.5717 71.9561C18.2716 71.9013 17.4781 71.0474 17.9344 70.6895C18.7156 70.0769 20.543 70.5025 20.3939 69.9273C20.2322 69.3126 18.0873 70.173 17.4702 70.2243C14.6209 70.4607 16.0729 69.4487 15.9576 69.2645C15.666 68.8202 14.1577 69.169 14.085 69.1393C13.7808 69.0033 14.7673 68.3829 14.7181 68.0834C14.6525 67.6936 13.0418 67.3197 13.3444 67.1166C13.7778 66.8274 15.2449 67.1116 15.3237 67.0651C16.3463 66.4472 14.6349 65.8912 14.1208 65.5459C13.9645 65.4392 14.4199 65.1067 14.3063 65.0904C12.5722 64.8451 14.2449 66.4164 13.1522 66.528C12.1773 66.6277 13.2712 65.7726 13.2277 65.7483C13.173 65.7232 12.0294 65.9422 11.8057 65.7745C11.6952 65.6901 14.398 63.8997 14.1619 63.4166C13.2442 63.7372 12.3265 64.0577 11.4087 64.3783C11.1879 63.7291 12.6518 63.9197 12.7769 63.8201C13.0288 63.6201 12.1673 63.4572 12.1546 63.2393C12.1432 63.1015 12.9616 62.42 12.0835 62.4075C11.7817 62.4028 11.2827 63.0023 10.1328 62.7563C13.6341 61.3449 11.0321 61.5271 10.8728 61.315C10.7158 61.1025 12.3291 60.1645 10.2439 60.7278C9.86662 59.453 10.1989 60.3084 10.7473 59.9486C11.419 59.5069 9.62981 59.4547 12.3817 59.1865C12.0953 58.6138 9.95034 59.1324 9.8256 59.1092C9.71743 59.0871 10.1305 58.6832 9.93742 58.6198C7.65904 57.8942 9.16441 58.1229 8.41427 57.5039C8.34748 57.4486 6.37728 57.5926 7.80653 57.1628C10.4105 56.3802 11.7067 56.9951 11.7462 55.06C9.61159 54.6945 7.50045 56.404 6.90956 56.5556C6.00472 56.7857 6.86597 56.2027 6.7305 56.1225C6.68402 56.0972 5.9056 56.3015 5.88849 56.2741C5.01927 54.9967 9.37906 55.479 10.6021 54.9535C10.2136 54.8193 9.825 54.6851 9.43643 54.5508C9.89891 54.4399 10.3614 54.329 10.8239 54.2181C8.51868 54.2847 10.7106 54.0756 11.0118 52.8195C11.0793 52.5373 9.72258 53.2952 11.224 52.2208C9.96515 52.3272 10.304 52.0094 9.26745 52.5736C9.19564 52.1126 11.5734 51.0497 12.5044 50.5995C8.92064 50.8548 11.2682 52.0856 8.07277 51.8657C7.64064 52.5515 9.04868 52.1257 8.9524 52.2444C8.60715 52.6711 7.50772 52.3574 6.58105 53.7898C6.43052 54.0246 7.37767 54.436 6.16307 54.6741C6.02853 54.6996 5.14699 54.364 5.14957 54.325C5.16421 53.9064 5.95886 53.8866 5.95382 53.7144C5.9488 53.5514 5.11957 53.8332 5.10706 53.7904C4.97141 53.3001 5.77441 53.4443 5.63332 53.3125C5.32811 53.0257 2.03495 52.6331 6.09428 52.0649C2.90374 53.3575 5.79087 52.7063 7.03401 52.2059C7.35123 52.0792 7.36917 51.7645 7.81547 51.5581C8.38937 51.2918 9.12689 51.2781 9.42705 51.1548C9.74957 51.0207 7.68724 50.7415 10.4925 50.3414C8.93447 49.9547 6.61815 51.2451 5.13081 51.0604C2.12969 50.6863 6.80605 49.4313 7.27694 49.2268C7.4023 49.1719 6.87446 48.8688 6.95643 48.825C7.09103 48.7558 9.81248 48.349 10.0037 47.9595C10.1942 47.5704 9.0252 48.1915 8.86624 47.8647C8.75883 47.6448 11.9016 46.5188 10.116 46.7465C8.88544 46.9041 6.86757 48.3287 6.27139 47.4079C8.02745 46.933 9.78351 46.4582 11.5396 45.9834C10.4841 45.816 9.4286 45.6485 8.37311 45.4811C10.338 44.9203 12.1548 44.9713 13.9257 44.0071C9.11029 43.787 15.1859 42.7048 15.2193 42.5413C15.2218 42.4473 13.2134 41.8492 12.8855 41.7311C14.3864 40.999 19.1624 39.7488 16.0733 39.1447C16.646 39.3087 17.7339 38.3517 17.7062 38.3037C17.4292 37.7967 14.805 38.7445 15.1376 38.1579C15.5229 37.4773 16.4085 38.0897 17.1806 37.8547C21.141 36.644 19.4107 34.06 23.5517 33.6151C23.449 33.5321 23.3464 33.4492 23.2438 33.3662C27.6728 32.5565 32.1019 31.7467 36.531 30.937C38.0593 29.6938 42.5183 28.1578 44.7864 27.7573C45.243 27.676 47.5645 27.6388 47.7497 27.6813C48.0937 27.7651 46.3997 28.2 47.234 28.3153C47.4098 28.3379 51.2128 27.6981 50.8372 27.2742C50.4034 27.3113 49.1381 27.8453 48.8971 27.7792C47.2013 27.3012 58.9393 25.3907 59.4414 24.9364C59.15 24.8361 58.8585 24.7359 58.5671 24.6357C59.3158 24.5513 60.0645 24.467 60.8132 24.3827ZM35.7611 70.6139C35.429 71.1957 34.2481 71.0745 33.6279 71.3542C32.7715 71.7431 31.6565 73.9473 31.9009 71.9309C33.1876 71.4919 34.4744 71.0529 35.7611 70.6139ZM55.2028 67.0794C54.2606 67.0143 54.7161 65.8177 55.5372 66.0921C55.6285 66.1237 56.4772 67.1657 55.2028 67.0794ZM45.8185 68.6311C45.8526 68.6091 46.6233 68.4679 46.6536 68.4784C47.4319 68.7467 45.1079 69.1698 45.8185 68.6311ZM90.5046 58.2031C89.5398 58.4635 90.4555 59.2577 90.9752 58.7329C91.0078 58.6997 90.5682 58.1868 90.5046 58.2031ZM89.8057 58.331C88.8608 57.6474 87.7167 59.7083 88.8905 59.2671C89.0042 59.2236 89.8499 58.3647 89.8057 58.331ZM51.9576 67.3602C51.9852 67.0122 52.9325 66.9682 53.3394 66.9601C53.3946 67.2602 52.3317 67.2394 51.9576 67.3602ZM75.0755 62.1613C75.0576 61.8964 71.8889 62.6109 71.7474 62.9964C72.2163 62.7426 75.0899 62.3997 75.0755 62.1613ZM83.1305 60.0054C83.0403 59.9789 81.9594 60.2882 82.0413 60.5073C82.6417 60.6859 83.5368 60.1261 83.1305 60.0054ZM98.0083 56.975C98.0803 56.9055 96.9743 55.5792 99.1378 56.2393C99.4622 56.3349 98.4349 56.8765 98.5567 56.9119C98.7887 56.9818 98.9736 57.003 99.1195 56.9901C98.6416 57.1226 98.1892 57.2351 97.8546 57.3035C97.4887 57.3764 97.2033 57.4107 97.1552 57.3727C96.643 57.0218 98.0249 56.997 98.0083 56.975ZM106.424 54.6211C106.576 54.3556 107.827 54.3014 108.096 54.362C108.145 54.3735 108.033 55.0288 108.564 54.903C108.993 54.8005 108.246 54.2561 109.114 54.2332C109.999 54.2082 108.903 54.8354 108.986 54.8566C109.086 54.8854 110.408 54.3974 110.404 54.7786C110.438 55.0553 108.938 55.0851 108.609 55.1934C108.175 55.3342 108.779 55.7149 108.026 55.7247C107.557 55.7307 107.694 54.885 107.591 54.8585C107.5 54.8381 105.891 55.5502 106.427 54.6233C106.426 54.6225 106.425 54.6218 106.424 54.6211ZM99.3671 56.9169C99.3098 56.9533 99.2247 56.9807 99.1195 56.9901C99.2055 56.9661 99.2963 56.9396 99.3671 56.9169ZM38.24 69.6996C38.7542 69.8441 37.4588 70.4609 36.8707 70.2528C36.8044 69.9949 38.1583 69.6775 38.24 69.6996ZM100.096 56.1366C101.535 56.1304 100.487 56.57 99.3671 56.9169C99.7091 56.7108 99.6307 56.1363 100.096 56.1366ZM63.2186 64.2299C63.2884 64.2768 63.3449 64.3617 63.3831 64.513C63.1971 64.3793 63.164 64.2927 63.2186 64.2299ZM66.4169 63.8089C67.3903 63.1072 65.2086 63.6085 65.2957 63.9376C65.3299 64.0616 66.3779 63.8369 66.4169 63.8089ZM91.7649 57.9724C91.6565 57.9487 92.8759 56.2095 90.8883 57.7514C92.1096 57.655 90.8933 58.0837 90.9389 58.2023C91.0651 58.5445 92.9803 57.766 93.4546 57.8212C93.6603 57.1137 92.1228 58.0504 91.7674 57.9719C91.7666 57.9721 91.7658 57.9722 91.7649 57.9724ZM121.965 52.698C121.747 53.1124 120.849 53.1201 120.264 53.1827C120.48 52.7684 121.372 52.7616 121.965 52.698ZM272.738 39.7134C268.838 39.972 268.355 38.4248 271.917 39.1103C271.982 39.1244 272.98 39.563 272.738 39.7134ZM239.047 39.4967C238.652 38.837 239.883 38.6882 240.694 38.9418C240.876 38.9987 241.575 39.6592 240.807 39.8154C240.808 38.9999 239.608 38.7252 239.047 39.4967ZM100.825 55.5933C101.132 55.0946 102.405 55.2291 103.069 55.1992C102.735 55.6216 101.377 55.6535 100.825 55.5933ZM259.894 38.7482C259.479 38.697 259.198 39.2822 259.27 39.3308C259.592 39.5538 260.365 39.0815 259.894 38.7482ZM96.8543 56.1115C96.8023 55.9838 97.1867 55.7938 97.6105 55.7156C97.9879 55.6443 98.4419 55.6792 98.5485 55.9983C98.3676 56.0009 97.9616 56.069 97.6208 56.1124C97.2234 56.1641 96.8846 56.192 96.8543 56.1115ZM120.824 52.6608C120.546 52.5636 121.842 52.1284 122.236 52.2079C122.254 52.4933 121.001 52.7244 120.824 52.6608ZM253.219 38.9808C252.849 38.9337 251.919 38.9295 251.818 39.1674C251.695 39.4643 253.056 39.3471 253.219 38.9808ZM319.287 43.4061C319.294 43.5162 317.996 43.9688 317.511 43.6556C316.616 43.0557 319.292 43.3175 319.287 43.4061ZM263.811 38.4622C264.981 39.0279 263.682 38.4786 263.729 39.0649C264.525 39.091 266.459 39.1411 265.132 38.5511C264.873 38.437 264.181 38.5028 263.811 38.4622ZM262.736 38.2592C262.611 38.4482 261.766 39.0424 262.494 39.003C262.83 38.984 263.373 38.3227 262.736 38.2592ZM312.103 42.1138C311.669 41.8005 312.44 41.8499 313.396 42.0094L312.832 41.9093C313.865 42.1154 315.067 42.472 315.12 42.5334C315.173 42.5939 315.205 42.6469 315.221 42.6894C315.403 42.5595 316.206 42.7056 316.197 43.1304C315.981 43.0461 315.319 42.9392 315.259 42.8796C315.231 42.8536 315.211 42.8305 315.199 42.8086C314.982 42.9905 313.733 42.67 312.741 42.3786L313.321 42.4815C312.69 42.3194 312.168 42.1617 312.103 42.1138ZM304.595 40.5244C305.832 39.9074 305.875 41.2268 305.769 41.2549C304.456 41.6238 305.389 40.776 305.358 40.7266C305.274 40.6401 304.343 40.9728 304.598 40.5249C304.597 40.5247 304.596 40.5246 304.595 40.5244ZM310.579 41.6646C310.624 41.6536 311.585 41.8402 311.617 41.8664C312.333 42.4173 309.645 41.8966 310.579 41.6646ZM112.78 52.7675C113.514 52.7907 112.898 53.3645 112.365 53.2687C112.32 53.2582 112.115 52.7495 112.78 52.7675ZM262.161 38.3852C261.989 38.29 257.708 37.9476 257.971 38.6729C258.327 38.5814 263.198 38.965 262.161 38.3852ZM230.097 38.9016C230.858 38.8721 230.057 39.5912 229.646 39.3563C229.493 39.269 229.905 38.9095 230.097 38.9016ZM94.5936 55.8221C93.8336 56.314 93.8339 55.0437 94.5815 55.3677C94.6096 55.3806 94.6197 55.8034 94.5936 55.8221ZM236.162 39.0405C233.571 39.5542 234.093 37.3662 237.527 37.9721C237.425 38.072 237.322 38.172 237.219 38.2719C241.15 38.4624 237.491 38.4127 236.537 38.57C236.174 38.6294 236.493 38.9785 236.164 39.043C236.164 39.0422 236.163 39.0413 236.162 39.0405ZM226.118 39.0568C223.521 37.6581 228.38 38.4003 229.743 38.1412C228.441 38.8363 226.697 38.8273 229.092 39.3594C225.641 39.6544 227.052 38.9752 226.91 38.9306C226.744 38.8819 226.228 39.1169 226.118 39.0568ZM232.745 38.7325C232.89 38.6814 234.001 38.9479 234.392 38.8816C233.863 39.4262 231.795 39.0774 232.745 38.7325ZM296.531 40.0154C296.656 39.6149 296.911 39.3338 297.721 39.5657C297.448 39.7465 296.901 39.8729 296.531 40.0154ZM34.4618 68.6882C33.8586 68.7912 32.6369 68.9025 33.0944 69.2436C33.1422 69.2707 34.5122 68.9252 34.4618 68.6882ZM249.712 38.1281C249.579 38.0777 246.312 38.1065 247.45 38.5377C247.791 38.6657 250.77 38.5578 249.712 38.1281ZM266.625 38.1427C266.351 38.1346 265.241 38.1996 265.219 38.2968C265.138 38.6313 266.501 38.462 266.625 38.1427ZM31.3604 68.9425C31.2726 68.9183 29.4659 69.3945 29.7093 69.5447C30.1708 69.8285 31.6614 69.0263 31.3604 68.9425ZM115.314 51.4247C115.469 51.3867 115.729 51.7994 115.783 51.7964C115.894 51.7866 118.708 51.2024 117.705 51.9274C117.536 52.0489 113.432 52.4267 112.917 52.4452C112.624 51.8694 114.425 52.1943 114.851 52.0682C114.925 52.0453 114.898 51.5317 115.313 51.4274C115.313 51.4265 115.314 51.4256 115.314 51.4247ZM300.902 40.0183C301.056 39.6387 304.226 39.7449 304.124 40.2122C303.061 40.1418 301.967 40.075 300.902 40.0183ZM299.313 39.786C298.664 39.4428 300.255 39.5139 300.7 39.6853C300.669 39.9446 299.414 39.8361 299.313 39.786ZM260.45 36.6449C260.123 36.7395 261.126 37.3092 260.901 37.4192C260.758 37.4875 260.028 37.2736 259.793 37.4513C259.727 37.5076 260.474 38.042 260.687 38.0195C260.992 37.9894 260.698 37.5686 261.03 37.5665C262.154 37.5604 263.119 37.8653 264.172 37.8669C264.266 37.8662 263.536 37.5636 264.342 37.5744C264.469 37.5756 265.2 38.0234 266.163 37.9694C266.827 37.5538 267.43 37.3984 268.021 37.3687C269.368 37.3032 270.665 37.8623 272.512 37.5671C272.413 37.4347 270.428 37.0441 270.3 37.0298C269.666 36.9528 268.889 36.8906 268.029 36.8415C265.911 36.7182 263.358 36.6839 261.674 36.6764C261.064 36.6732 261.358 36.9638 261.097 36.9737C260.892 36.9811 261.138 36.4451 260.45 36.6449ZM34.7149 68.3287C34.3149 67.8684 33.3902 68.4198 32.7469 68.5335C33.0754 68.9558 34.0665 68.3503 34.7149 68.3287ZM285.091 38.2616C284.783 38.2647 283.805 38.0508 283.725 38.2084C283.604 38.4124 285.01 38.621 285.091 38.2616ZM131.243 49.2644C131.275 49.2451 132.055 49.1615 132.085 49.1742C132.841 49.4996 130.495 49.7489 131.243 49.2644ZM149.851 46.7101C150.432 46.5613 151.003 46.3117 151.261 46.7142C150.877 46.7012 149.824 47.0196 149.851 46.7101ZM175.468 43.162C175.277 42.6132 177.074 42.7456 177.418 42.7517C177.319 43.0198 175.618 43.5555 175.468 43.162ZM296.573 38.225C297.615 38.3554 297.472 37.4767 298.09 37.928C298.196 38.005 298.354 39.8228 297.297 39.0461C297.102 38.9065 297.951 38.5567 296.573 38.225ZM238.079 37.9711C238.338 37.5854 239.199 37.6684 239.773 37.6805C239.655 37.964 238.488 37.9299 238.079 37.9711ZM27.9751 69.249C27.3576 68.841 25.1187 69.7391 25.7695 69.9551C25.8611 69.9818 27.6448 69.3014 27.9751 69.249ZM103.313 53.49C104.203 52.9355 102.227 53.0961 101.62 53.5993C101.907 53.5298 103.265 53.5249 103.313 53.49ZM169.282 43.6845C169.326 43.661 170.349 43.5628 170.396 43.5772C171.288 43.8972 168.395 44.1774 169.282 43.6845ZM143.639 46.8934C143.959 46.4998 146.431 46.4292 147.022 46.694C146.571 47.2664 143.24 47.3846 143.639 46.8934ZM292.277 38.108C293.034 38.1487 293.712 38.3101 294.389 38.5167C294.217 38.7917 292.348 38.3294 292.277 38.108ZM173.03 43.1404C173.085 43.1354 173.142 43.1608 173.195 43.1573C173.139 43.1524 173.084 43.1456 173.03 43.1404ZM275.506 37.012C274.875 36.8777 274.99 37.4131 275.029 37.4306C275.502 37.6171 276.216 37.1642 275.506 37.012ZM33.8123 67.72C33.4866 67.3008 32.4885 67.9021 31.8436 67.9276C32.1052 68.2577 33.3234 67.8795 33.8123 67.72ZM223.371 38.2226C222.536 37.7481 225.78 36.9626 226.486 37.264C226.556 37.5804 223.489 38.2854 223.371 38.2226ZM100.211 53.2212C100.071 52.8621 98.7688 53.5134 99.0882 53.6455C99.2734 53.7323 100.278 53.4473 100.211 53.2212ZM228.145 37.3997C228.448 37.2699 229.182 37.6059 228.941 37.8437C228.632 38.1485 228.068 37.4364 228.145 37.3997ZM255.756 36.3215C255.624 36.2642 253.814 36.6648 254.567 37.0419C255.088 37.304 255.166 36.7603 255.287 36.7578C255.421 36.7575 258.326 37.407 255.756 36.3215ZM205.059 39.1915C205.727 38.9893 206.559 39.0879 207.271 39.0192C206.998 39.2742 205.375 39.4737 205.059 39.1915ZM105.558 52.3302C105.401 52.1995 100.813 52.7842 103.446 52.8684C103.602 52.872 106.138 52.7099 105.558 52.3302ZM296.573 38.225C296.444 38.209 296.297 38.1775 296.126 38.1248C296.298 38.155 296.445 38.194 296.573 38.225ZM284.72 37.3089C284.98 37.0489 283.752 36.9092 283.391 37.0372C283.262 37.3646 284.683 37.3445 284.72 37.3089ZM207.294 38.6345C207.693 38.4448 208.451 38.5512 208.957 38.493C208.892 38.7529 207.494 38.877 207.294 38.6345ZM178.58 41.4148C179.161 41.4431 179.808 41.3577 180.145 41.201C180.298 41.1299 180.389 41.0439 180.381 40.947C180.404 40.993 180.45 41.0391 180.522 41.0821C180.594 41.1244 181.44 40.8691 181.829 40.9268C182.763 41.0635 181.557 41.3251 180.183 41.4888C178.123 41.7343 175.598 41.7617 179.413 40.7279C179.137 40.9566 178.859 41.1856 178.58 41.4148ZM140.248 46.6376C139.724 46.3299 138.48 46.9872 138.842 47.0861C139.092 47.1534 140.771 46.9478 140.248 46.6376ZM158.289 43.8622C158.14 43.8146 156.89 44.2568 156.884 44.4591C157.655 44.5635 158.971 44.0841 158.289 43.8622ZM136.573 46.7158C136.27 46.7016 135.982 47.3598 136.02 47.3812C136.35 47.559 137.117 46.9813 136.573 46.7158ZM294.566 36.397C294.15 36.1856 292.777 36.5185 292.444 36.8978C292.394 36.8157 292.256 36.703 291.998 36.561C291.998 36.561 291.999 36.5611 292 36.5611C291.664 36.3369 280.695 35.4992 288.008 36.7188C288.236 36.7585 287.949 36.3766 288.875 36.5015C288.936 36.5102 288.947 36.807 289.134 36.834C289.582 36.8932 291.897 37.2468 292.375 37.0476C292.375 37.1025 292.401 37.1568 292.463 37.2096C293.009 37.6779 294.879 36.5581 294.566 36.397ZM160.824 43.4549C160.55 43.3825 159.744 43.5993 159.698 43.8691C160.113 43.9403 161.463 43.6242 160.824 43.4549ZM105.262 51.2923C104.738 51.1527 103.413 51.7534 103.86 51.9029C104.152 51.9923 105.895 51.4479 105.262 51.2923ZM152.653 44.7374C155.717 44.618 153.37 44.6113 153.78 44.1676C153.404 44.3574 153.026 44.5476 152.653 44.7374ZM307.777 38.8317C307.328 38.6822 307.976 38.0079 308.414 38.482C308.551 38.6323 308.027 38.9139 307.777 38.8317ZM324.657 42.4898C324.728 42.1531 324.908 42.1618 324.98 42.2803C325.056 42.4002 325.022 42.6249 324.818 42.7758C324.809 42.7877 324.663 42.52 324.657 42.4898ZM313.565 39.1745C313.479 39.2611 313.402 39.3291 313.324 39.3794L313.805 39.4647C313.543 39.6498 313.254 39.6164 312.598 39.4251C313.831 39.4968 312.902 38.9806 313.847 39.2027L313.375 39.1189C313.431 39.1344 313.495 39.1528 313.565 39.1745ZM180.366 40.8996C180.374 40.9171 180.38 40.9301 180.381 40.947C180.373 40.9311 180.369 40.9157 180.366 40.8996ZM133.751 47.2412C133.316 46.9138 132.262 47.0943 132.633 47.4334C132.668 47.4647 133.635 47.5459 133.751 47.2412ZM292.444 36.8978C292.488 36.9705 292.46 37.0132 292.375 37.0476C292.375 36.9959 292.4 36.949 292.444 36.8978ZM139.397 46.1134C139.399 46.4039 141.027 46.2843 141.088 46.2415C141.945 45.6148 140.057 46.0013 139.397 46.1134ZM94.5502 52.4686C94.4955 52.5071 95.0873 53.1705 95.3891 52.8312C95.6078 52.5703 94.8458 52.309 94.5502 52.4686ZM316.392 39.5691C316.837 39.6664 317.461 39.8085 317.49 40.1779C317.216 40.0576 316.33 39.8199 316.392 39.5691ZM324.555 41.909C324.146 42.1768 323.439 41.8925 322.89 41.6345C323.088 41.1153 324.327 41.9301 324.555 41.909ZM295.881 36.7154C295.84 36.6888 294.624 36.42 294.762 36.7991C294.956 37.3532 296.212 36.9442 295.881 36.7154ZM97.1048 52.4878C97.6444 52.1531 96.1405 51.5938 95.6981 52.264C95.4333 52.6129 96.9778 52.5493 97.1048 52.4878ZM130.37 47.2179C129.638 47.5374 131.586 47.637 131.782 47.2226C131.436 47.2414 130.628 47.1049 130.37 47.2179ZM156.026 43.1758C153.497 42.4163 155.071 44.2276 155.468 43.9934C155.524 43.96 156.088 43.1934 156.026 43.1758ZM21.6602 68.3857C21.36 68.6089 22.7218 68.8768 22.8038 68.4844C22.8538 68.2391 21.8522 68.2433 21.6602 68.3857ZM191.663 39.2407C191.565 39.2549 191.467 39.2692 191.371 39.2828C191.441 39.257 191.536 39.2408 191.663 39.2407ZM123.295 46.7495C125.219 48.0437 124.846 46.8852 124.997 46.8698C125.312 46.8412 126.101 47.1522 126.687 46.9975C126.03 47.2698 125.377 47.5415 124.731 47.8124C125.267 47.8478 130.024 47.7387 130.084 47.4754C130.171 47.0994 128.721 47.4229 128.676 47.3975C128.608 47.3616 128.237 46.4051 128.097 46.387C127.858 46.3599 123.98 46.9009 123.295 46.7495ZM151.074 44.0458C151.473 44.1095 151.637 44.4864 151.802 44.3676C151.858 44.327 151.815 43.9515 152.008 43.8257C151.697 43.899 151.385 43.9723 151.074 44.0458ZM120.495 48.5713C119.954 48.1836 122.114 48.0464 122.182 48.0888C122.587 48.3462 120.953 48.8856 120.495 48.5713ZM138.547 45.8964C138.468 45.8804 136.805 45.9732 136.856 46.2246C137.317 46.3556 139.512 46.0989 138.547 45.8964ZM152.259 43.7642C152.837 43.7274 153.979 43.9512 153.775 43.4055C153.774 43.4056 153.773 43.4057 153.772 43.4058C153.268 43.5252 152.762 43.645 152.259 43.7642ZM98.8692 51.0117C97.7147 50.2668 98.3569 51.3289 99.3229 51.4814C99.549 51.0367 99.0575 51.1328 98.8692 51.0117ZM95.3796 50.8465C95.268 50.8105 94.8513 50.855 94.4627 50.9292C94.2021 50.9761 93.9482 51.0306 93.7543 51.0844C93.6503 51.1124 93.4774 51.1527 93.3871 51.1827C93.3369 51.1985 93.2964 51.2133 93.2595 51.2282C93.1554 51.253 93.1084 51.2698 93.1106 51.2798L93.9857 51.1181C93.5556 51.3081 93.2957 51.5028 93.4996 51.6356C93.5667 51.6794 93.7958 51.6182 94.074 51.518L93.1711 51.6849C93.652 51.5372 94.484 51.2285 94.5448 51.2417C94.6703 51.2727 94.2107 51.8772 95.0851 51.6409C94.9962 51.4725 95.4936 50.8846 95.3796 50.8465ZM97.9035 50.5683C96.7281 50.046 96.7256 51.3312 97.4839 51.2222C97.7893 51.1792 98.0755 50.6433 97.9035 50.5683ZM102.252 50.0344C101.857 49.971 100.772 49.9536 100.183 50.4679C101.059 50.3748 102.095 50.2583 102.981 50.1641C103.052 49.9115 102.586 50.0923 102.25 50.0348C102.251 50.0347 102.252 50.0345 102.252 50.0344ZM330.39 41.6989C329.899 41.2047 330.349 41.3286 330.902 41.5592C331.473 41.7983 331.998 42.0538 332.003 42.1071C332.042 42.2931 331.815 42.3365 331.461 42.2468C331.111 42.1601 330.609 41.9181 330.39 41.6989ZM12.6874 58.5434C12.4258 58.454 12.1731 58.0258 11.7188 58.3797C12.3047 58.6076 12.8905 58.8356 13.4764 59.0636C13.7009 58.1953 12.9736 58.6425 12.6874 58.5434ZM10.1077 56.1215C10.1756 56.0866 9.51658 54.9732 10.6254 55.5689C11.3745 55.971 8.06697 57.2543 7.3314 56.8585C7.95971 56.4604 9.52078 56.4127 10.1077 56.1215ZM2.96287 52.2493C2.90225 52.1622 4.1721 51.7346 4.33757 51.7689C5.20673 51.9501 3.2897 52.715 2.96287 52.2493ZM7.1634 51.5622C6.50186 51.4637 7.82018 51.0151 8.25257 51.0603C8.34097 51.2751 7.26514 51.5753 7.1634 51.5622ZM330.662 21.6784C330.185 20.6171 328.954 22.0983 330.195 22.1484C330.255 22.1515 330.679 21.728 330.662 21.6784ZM3.96728 50.7575C4.62882 50.856 3.31049 51.3046 2.8781 51.2594C2.79136 51.0444 3.86686 50.7439 3.96728 50.7575ZM330.797 19.6126C329.971 18.6906 329.685 20.7295 329.783 20.8473C330.171 21.3066 332.228 21.2306 332.695 21.2231C329.858 20.4314 331.196 20.0689 330.797 19.6126ZM325.904 19.3791C324.969 19.349 327.108 20.3543 327.706 19.9556C327.258 19.8477 326.167 19.3834 325.904 19.3791ZM320.75 17.4777C320.305 17.3061 318.956 16.8515 318.662 17.1181C319.182 17.1618 320.489 17.7542 320.75 17.4777ZM319.892 16.3242C319.254 15.7524 318.829 16.9486 319.738 16.7531C319.773 16.7456 319.914 16.3532 319.892 16.3242ZM315.622 15.1006C315.231 14.5348 314.502 15.6559 315.265 15.805C315.489 15.8468 315.663 15.1648 315.622 15.1006ZM330.196 17.1191C329.5 16.6695 328.279 17.2057 329.848 17.798C329.249 17.7452 328.65 17.7015 328.066 17.6697C329.971 18.7487 330.211 17.5823 330.804 17.8285C331.647 18.1928 331.245 19.1149 330.967 19.3472C331.849 18.9936 334.948 20.1607 336.973 21.1983C335.385 19.9915 332.898 18.4839 331.439 17.8159C331.024 17.6201 330.516 17.7381 330.164 17.5911C329.598 17.3551 330.232 17.1457 330.199 17.1201C330.198 17.1198 330.197 17.1195 330.196 17.1191ZM310.315 14.3216C308.989 13.576 309.726 14.9048 310.529 14.7923C310.565 14.7801 310.348 14.3399 310.315 14.3216ZM1.41846 47.5156C3.2897 47.6258 2.15563 48.5697 5.61802 46.7521C4.2272 47.8048 5.64531 47.2823 5.4065 47.6358C5.21423 47.9162 4.26461 47.9288 4.89338 48.2692C4.08972 47.925 1.10771 48.7276 0.955578 48.6765C0.956841 48.6762 0.958104 48.676 0.959367 48.6757C0.868143 48.6456 0.821465 47.4809 1.41846 47.5156ZM321.415 14.3507C321.253 12.7992 320.565 15.0586 319.889 13.6653C318.285 15.152 323.338 14.3864 323.595 16.0199C318.52 14.676 326.637 18.2656 323.575 15.2312C326.374 16.7482 324.624 15.1966 325.156 15.0288C325.728 14.85 327.38 15.6337 327.444 15.0819C327.443 15.0816 327.442 15.0813 327.441 15.0811C326.352 14.8228 325.288 14.5941 324.237 14.3833C324.967 15.7833 322.95 14.9327 322.447 13.8318C322.105 14.0044 321.752 14.1752 321.415 14.3507ZM327.009 16.8554C326.908 16.7911 324.589 16.3649 324.691 16.6427C324.939 16.8453 328.225 17.5487 327.009 16.8554ZM338.22 21.0786C337.216 20.4552 335.786 19.482 335.08 19.6583C336.038 20.0922 337.445 21.1223 338.22 21.0786ZM296.193 11.8044C295.18 12.0891 298.189 12.4535 297.354 11.9443C297.316 11.9199 296.246 11.7911 296.193 11.8044ZM319.082 14.097C318.152 13.451 318.362 14.9622 319.176 14.7415C319.223 14.7284 319.125 14.1266 319.082 14.097ZM2.80776 47.0293C2.79487 46.6701 5.40356 46.3485 5.85583 46.2455C5.66934 46.6232 2.82248 47.4411 2.80776 47.0293ZM340.719 21.1333C339.35 18.5633 335.727 18.4651 335.525 18.3532C335.248 18.1908 335.935 17.8941 335.876 17.8507C335.701 17.699 332.667 16.516 332.538 16.5391C332.431 16.5321 332.672 17.4512 332.006 17.4706C333.187 17.2789 338.855 20.3154 339.24 20.6481C339.514 20.7557 338.166 18.8655 340.716 21.1309C340.717 21.1317 340.718 21.1325 340.719 21.1333ZM334.868 17.8737C335.492 18.4974 333.361 17.6282 332.927 17.3524C331.919 16.6753 334.758 17.7558 334.868 17.8737ZM330.098 15.794C329.889 15.643 327.948 15.0024 327.705 15.3199C328.47 16.0142 330.538 16.1098 330.098 15.794ZM309.546 11.7038C309.081 11.6902 307.864 11.2568 307.749 11.5642C308.216 11.5735 309.434 12.0099 309.546 11.7038ZM10.9265 42.3906C10.1555 42.288 11.7853 41.8167 12.2952 41.835C12.3672 42.0366 10.9922 42.3996 10.9265 42.3906ZM319.503 11.0762C319.455 11.0484 319.221 10.9953 318.858 10.9273C318.764 10.9209 318.491 10.849 318.398 10.8457C316.896 10.6082 313.06 10.2274 312.409 10.2662C313.014 10.5445 316.889 11.1646 318.318 11.3448C318.408 11.348 318.671 11.4173 318.761 11.4235C319.076 11.4728 319.28 11.4968 319.328 11.4856C319.409 11.4658 319.536 11.0981 319.503 11.0762ZM332.598 14.3098C333.379 14.0867 333.6 14.7718 333.678 14.8085C334.423 15.1525 336.18 15.7877 335.626 16.0443C334.2 15.1999 331.08 14.7706 332.598 14.3098ZM309.422 9.5487C307.507 9.48113 311.071 10.4333 310.662 9.88893C310.632 9.85463 309.621 9.55515 309.422 9.5487ZM320.162 11.0687C320.638 10.7494 326.39 12.3702 327.418 12.6901C326.364 13.1339 325.807 12.4442 324.658 12.2071C324.348 12.1445 324.363 12.447 324.33 12.4396C323.792 12.3278 324.268 12.0939 323.945 12.0139C323.709 11.9398 319.457 11.4605 320.162 11.0687ZM333.063 14.13C333.455 13.9159 338.139 15.7721 338.38 16.0648C339.016 16.6985 337.633 16.061 336.179 15.4515C334.722 14.8293 333.208 14.2312 333.063 14.13ZM319.764 10.3551C320.53 9.67295 323.3 10.8168 321.245 10.7963C321.059 10.7947 320.326 10.2844 319.764 10.3551ZM309.722 8.80733C309.63 8.76964 307.671 8.36316 307.609 8.61772C307.884 8.74806 310.747 9.20263 309.722 8.80733ZM310.86 8.07386C310.811 8.07382 311.213 8.62822 310.287 8.44352C310.212 8.42816 310.144 7.85254 308.947 7.90892C308.708 7.92153 308.294 8.24401 308.318 8.27014C309.422 9.28453 313.283 8.10685 310.86 8.07386ZM333.295 13.7312C333.143 13.4259 333.936 12.9621 334.345 13.4976C334.517 13.7281 333.934 13.9525 333.295 13.7312ZM303.488 7.85225C304.677 7.54765 301.092 7.09567 300.89 7.1909C300.984 7.46389 303.372 7.87932 303.488 7.85225ZM11.8892 38.8143C11.8884 38.8145 11.8875 38.8147 11.8867 38.8149C12.8057 38.7107 12.3257 39.1792 12.3701 39.1808C14.3954 39.2661 13.7151 38.5952 13.9939 38.4368C14.5913 38.0953 14.6981 39.0702 15.6932 38.4366C14.0331 39.4144 15.6074 38.8105 15.7328 39.1381C16.2384 40.476 13.2083 39.0166 12.3804 39.5033C12.265 39.5708 13.2799 39.8094 12.9892 40.0052C12.0438 40.6403 8.36313 39.2152 11.8892 38.8143ZM334.771 13.5953C335.426 13.3107 340.123 16.0134 338.678 15.7045C338.355 15.5112 333.662 13.7704 334.771 13.5953ZM176.627 9.86944C177.09 9.58521 176.542 9.40729 175.982 9.39002C175.651 9.37751 175.313 9.42632 175.2 9.54899C175.104 9.65416 175.608 9.84676 176.05 9.91016C176.29 9.94194 176.514 9.93861 176.627 9.86944ZM163.792 10.0335C162.874 10.2324 162.102 11.8527 163.222 11.4644C163.342 11.4223 163.926 10.2252 163.792 10.0335ZM225.729 4.76696C224.713 4.28162 224.825 5.27371 225.547 5.22277C225.804 5.20497 225.762 4.78234 225.729 4.76696ZM188.03 7.86631C187.928 7.84221 186.792 8.03127 186.859 8.25447C187.297 8.34365 188.695 8.03406 188.03 7.86631ZM226.037 4.60955C225.459 4.81838 226.506 5.48703 227.187 4.74929C226.826 4.82441 226.097 4.58813 226.037 4.60955ZM317.529 7.73334C316.954 8.05692 315.564 7.71984 314.727 7.6695C314.708 7.12916 316.933 7.7349 317.529 7.73334ZM167.79 10.0997C166.966 10.5878 168.877 10.6385 168.638 10.1726C168.611 10.1491 167.822 10.0791 167.79 10.0997ZM257.667 3.70524C257.017 4.02308 259.085 4.44318 258.515 3.88884C258.488 3.86611 257.703 3.68742 257.667 3.70524ZM266.748 3.92854C266.238 3.81455 264.136 3.82809 264.954 4.14408C265.083 4.19206 266.702 4.21703 266.748 3.92854ZM13.9647 38.0525C13.5934 37.5769 15.0951 37.378 15.3266 37.4244C15.4181 37.4447 14.4486 38.6711 13.9647 38.0525ZM219.305 5.03528C218.8 5.1333 217.466 5.08578 217.25 5.38587C217.874 5.28689 219.507 5.59295 219.305 5.03528ZM171.774 9.56274C170.941 9.07667 169.632 9.31098 170.06 10.0336C171.5 9.78873 169.797 9.36747 171.774 9.56274ZM229.304 3.81672C228.89 3.79022 228.609 4.54647 228.657 4.57924C229.118 4.89099 229.725 4.08691 229.304 3.81672ZM198.555 6.51513C198.502 6.20107 197.201 6.46611 197.395 6.65329C197.459 6.71597 198.597 6.76886 198.555 6.51513ZM299.795 5.36014C299.2 5.01403 301.12 4.90789 301.654 5.30184C301.874 5.81172 299.878 5.39957 299.795 5.36014ZM240.701 3.58134C240.747 3.10835 238.697 3.43645 239.519 3.80203C239.721 3.89338 240.685 3.73915 240.701 3.58134ZM260.444 2.74123C259.057 3.29684 264.875 3.71846 263.35 3.0128C263.248 2.96081 260.557 2.6925 260.444 2.74123ZM269.976 3.18336C269.736 3.11732 269.889 1.53694 270.865 2.16625C270.993 2.24788 270.379 2.65415 270.483 2.75188C270.532 2.80623 272.716 3.07524 272.807 3.04164C272.915 3.00226 272.802 2.49234 272.911 2.43806C273.024 2.37684 274.373 2.85624 275.061 2.88123C276.38 2.92764 276.541 2.51199 276.648 2.51366C276.967 2.52098 277.471 2.83708 278.123 2.85949C281.349 2.96227 286.326 2.84629 288.847 3.90217C286.581 3.40495 284.367 3.67216 282.106 3.68994C282.8 2.83611 278.75 4.22963 281.126 3.30991C280.032 3.46028 270.756 3.36894 269.979 3.1834C269.978 3.18339 269.977 3.18337 269.976 3.18336ZM160.094 10.0927C160.586 9.47956 157.698 10.0003 157.54 10.6533C157.934 10.6863 160.028 10.1634 160.094 10.0927ZM173.345 6.97186C173.604 6.84366 173.735 5.76091 175.211 6.10735C175.212 6.10718 175.214 6.10702 175.215 6.10685C175.645 6.20826 175.211 6.52447 175.298 6.60555C175.309 6.61681 175.468 6.66416 175.634 6.73065C175.965 6.85568 176.323 7.04999 175.696 7.19946C175.674 7.20481 175.65 7.21009 175.626 7.2153C174.022 7.55638 175.373 6.45611 174.504 6.55907C174.401 6.57149 172.808 7.35838 172.919 7.47038C172.932 7.48347 173.42 7.29688 173.509 7.33769C173.848 7.49066 173.739 7.83769 173.785 7.84742C173.877 7.86012 174.877 7.52396 175.718 7.36754C176.27 7.266 176.767 7.23502 176.942 7.4033C176.994 7.45352 176.472 7.60384 175.771 7.77567C174.569 8.07706 172.743 8.45202 172.626 8.41432C172.515 8.37676 172.438 7.46366 172.319 7.38876C172.261 7.35106 170.588 7.91988 170.347 7.86734C170.279 7.85197 170.225 7.83268 170.186 7.81616C170.488 8.06128 168.903 8.25322 168.918 7.92895C168.921 7.80177 170.019 7.72779 170.061 7.74446C170.079 7.75139 170.095 7.7621 170.11 7.76901C169.853 7.45461 173.473 6.9887 172.629 6.58297C173.665 6.16201 172.577 7.34976 173.345 6.97186ZM178.427 5.74358C178.327 5.85318 178.227 5.96281 178.127 6.07246C180.002 5.59836 182.254 5.79251 184.444 5.53809C185 5.47433 184.294 4.96244 185.041 5.03924C185.64 5.10084 186.347 5.5715 186.043 5.72794C185.969 5.76655 184.741 5.54718 184.15 5.65235C182.406 5.96323 182.909 6.41422 182.808 6.43943C182.697 6.4668 181.55 6.24522 180.948 6.33429C179.436 6.55957 178.783 6.95152 176.658 6.81596C177.812 6.33247 177.066 5.69872 178.427 5.74358ZM249.38 1.95888C249.45 1.63974 250.691 1.90302 251.147 1.85068C251.074 2.16995 249.835 1.90462 249.38 1.95888ZM66.7139 23.9275C66.4633 24.5168 69.2116 24.0422 68.4011 23.7768C68.2217 23.7178 67.0565 23.8556 66.7139 23.9275ZM79.0035 21.539C79.3363 21.3179 77.7901 21.2748 77.8797 21.6683C77.9098 21.7942 78.9607 21.5677 79.0035 21.539ZM203.072 3.69431C203.143 3.67172 204.204 3.70025 204.241 3.72408C204.982 4.21739 201.494 4.18792 203.072 3.69431ZM95.1779 17.8584C93.9272 18.3889 97.8232 17.9625 96.5729 17.7069C96.4942 17.697 95.2531 17.8305 95.1779 17.8584ZM100.537 16.9709C100.236 17.0337 98.8496 17.0666 98.8428 17.2284C98.8659 17.4845 100.448 17.4285 100.537 16.9709ZM229.493 1.83646C229.316 1.2559 231.2 1.61836 231.856 1.51795C232.033 2.09862 230.142 1.73237 229.493 1.83646ZM217.634 2.03471C225.512 1.10945 223.842 2.45657 217.181 2.34967C217.148 1.97413 217.137 2.09479 217.634 2.03471ZM227.762 1.55218C227.493 1.94154 226.592 1.87308 225.982 1.8734C226.079 1.60633 227.329 1.63998 227.762 1.55218ZM63.3005 23.8547C63.6688 23.2865 65.8799 23.3986 65.5515 23.6719C65.4744 23.7323 63.184 24.1481 63.3005 23.8547ZM203.692 3.13815C203.458 2.58328 205.858 2.62173 206.048 2.73511C206.821 3.18501 203.874 2.99485 203.692 3.13815ZM240.702 0.92207C241.113 0.462389 242.302 0.660028 243.075 0.646801C242.728 1.03801 241.358 0.910994 240.702 0.92207ZM235.155 0.752094C235.203 0.732943 236.273 0.735123 236.321 0.754269C237.212 1.15987 234.186 1.15622 235.155 0.752094ZM9.71742 34.8924C9.74811 34.8709 10.5222 34.7292 10.5526 34.7397C11.3306 35.008 9.00691 35.4311 9.71742 34.8924Z" fill="#B0FCAA"/>
</svg>
